<svg width="100" height="66" viewBox="0 0 100 66" fill="none" xmlns="http://www.w3.org/2000/svg">
<g clip-path="url(#clip0_2426_2052)">
<path d="M85.5243 14.616C76.1958 5.18905 63.8686 0 50.8199 0C37.7712 0 25.4441 5.18905 16.1076 14.616C6.77505 24.0388 1.63574 36.4853 1.63574 49.6643V50.486H100V49.6643C100 36.4853 94.8608 24.0388 85.5243 14.616ZM75.9152 27.7343L69.465 16.32L74.2395 7.88072C77.5347 9.77501 80.5774 12.0417 83.3234 14.6402L75.9152 27.7303V27.7343ZM72.8083 7.09548L68.5269 14.6605L68.5109 14.6281L50.8159 44.7991L33.3054 14.9641L33.2894 14.9883L28.8276 7.10358C35.406 3.61857 42.8905 1.64738 50.8199 1.64738C58.7494 1.64738 66.2298 3.61857 72.8083 7.09953V7.09548ZM18.0639 14.8831C20.8701 12.1833 24.005 9.82763 27.3964 7.87667L32.3553 16.6398L25.7167 28.4062L18.0639 14.8831ZM16.8612 16.0731L24.7787 30.0617L14.1793 48.8386H3.27134C3.48782 36.1048 8.63113 24.561 16.8612 16.0731ZM27.3563 34.6193L35.406 48.8386H19.3347L27.3603 34.6193H27.3563ZM37.2782 48.8386L28.2944 32.9638L33.3816 23.9498L47.9897 48.8386H37.2782ZM68.4347 23.6138L73.3335 32.2879L63.9649 48.8386H53.6381L68.4347 23.6138ZM65.841 48.8386L74.2715 33.9434L82.682 48.8386H65.841ZM87.8334 48.8386L76.8492 29.3898L84.5261 15.8222C92.9045 24.3303 98.1521 35.9753 98.3645 48.8346H87.8374L87.8334 48.8386Z" fill="#D1BD64"/>
<path d="M83.8926 14.616C74.56 5.18905 62.2329 0 49.1842 0C36.1355 0 23.8084 5.18905 14.4758 14.616C5.13931 24.0388 0 36.4853 0 49.6643V50.486H98.3644V49.6643C98.3644 36.4853 93.2251 24.0388 83.8885 14.616H83.8926ZM74.2834 27.7343L67.8332 16.32L72.6077 7.88072C75.903 9.77501 78.9457 12.0417 81.6917 14.6443L74.2834 27.7343ZM71.1766 7.09548L66.8952 14.6605L66.8791 14.6281L49.1842 44.7991L31.6737 14.9641L31.6576 14.9883L27.1958 7.10358C33.7743 3.61857 41.2588 1.64738 49.1882 1.64738C57.1177 1.64738 64.5981 3.61857 71.1766 7.09953V7.09548ZM16.4281 14.8831C19.2343 12.1833 22.3692 9.82763 25.7607 7.87667L30.7196 16.6398L24.081 28.4062L16.4281 14.8831ZM15.2255 16.0731L23.1429 30.0617L12.5436 48.8386H1.6356C1.85207 36.1048 6.99539 24.561 15.2255 16.0731ZM25.7206 34.6193L33.7703 48.8386H17.6989L25.7246 34.6193H25.7206ZM35.6424 48.8386L26.6586 32.9638L31.7458 23.9498L46.354 48.8386H35.6424ZM66.799 23.6138L71.6977 32.2879L62.3291 48.8386H52.0024L66.799 23.6138ZM64.2052 48.8386L72.6358 33.9434L81.0463 48.8386H64.2052ZM86.1976 48.8386L75.2135 29.3898L82.8904 15.8222C91.2688 24.3303 96.5163 35.9753 96.7288 48.8346H86.2016L86.1976 48.8386Z" fill="#E8D483"/>
<path d="M3.255 60.1389H4.49773C5.33558 60.1389 5.68835 59.7908 5.72844 58.7506H6.08122C6.01708 59.3779 5.97699 59.7544 5.97699 60.4748C5.97699 61.1953 6.01708 61.7296 6.08122 62.357H5.72844C5.68835 61.2763 5.33558 60.8189 4.52579 60.8189H3.25901V64.0246C3.25901 64.8544 3.53562 65.0932 4.73826 65.1053V65.506C3.98059 65.4372 3.18284 65.4129 2.47729 65.4129C1.77173 65.4129 1.05015 65.4413 0.29248 65.506V65.1053C1.29869 65.0932 1.54724 64.8503 1.54724 64.0084V56.9696C1.54724 56.1277 1.33878 55.901 0.332569 55.8889V55.4882C1.09024 55.5691 1.69156 55.6096 2.39711 55.6096H5.65227C6.31774 55.6096 6.59434 55.4355 6.67051 55.1279H7.02329C6.97117 55.4234 6.93109 55.7553 6.93109 56.1317C6.91906 56.7348 7.08743 57.5606 7.25981 58.2406H6.90703C6.55426 56.7065 5.87276 56.3017 4.7102 56.3017H3.25901V60.1348L3.255 60.1389Z" fill="#523B1B"/>
<path d="M14.215 65.312C13.7179 65.5144 13.1687 65.6075 12.7117 65.6075C10.3304 65.6075 8.12158 63.9642 8.12158 60.8515C8.12158 58.0182 9.96564 56.4558 11.0761 56.0025L11.7937 55.7232C12.3028 55.5087 12.84 55.4277 13.297 55.4277C15.6782 55.4277 17.8871 57.0589 17.8871 60.1554C17.8871 63.0008 16.043 64.5632 14.9326 65.0166L14.215 65.312ZM16.0711 60.6896C16.0711 57.9373 14.4756 56.2413 12.5273 56.2534C12.1344 56.2534 11.7415 56.3223 11.3126 56.4558C10.4347 57.2694 9.93758 58.6335 9.93758 60.3173C9.93758 63.0696 11.5211 64.7656 13.4693 64.7373C13.8742 64.7373 14.2671 64.6968 14.7001 64.5632C15.578 63.7496 16.0751 62.3856 16.0751 60.6896H16.0711Z" fill="#523B1B"/>
<path d="M27.841 61.7173C27.841 64.1904 26.5061 65.7002 24.1128 65.7002C21.471 65.7002 19.8875 64.5263 19.8875 61.774V56.9775C19.8875 56.1356 19.6911 55.909 18.5405 55.8968V55.4961C19.2982 55.577 20.0318 55.6175 20.7494 55.6175C21.467 55.6175 22.2126 55.577 22.9743 55.4961V55.8968C21.7716 55.909 21.6153 56.1356 21.6153 56.9654V61.4016C21.6153 63.8059 22.7257 64.8097 24.2451 64.8097C26.1934 64.8097 26.8869 63.4861 26.8869 61.7254V56.9694C26.8869 56.1397 26.482 55.913 25.4237 55.9009V55.5001C26.1813 55.5811 26.7987 55.6216 27.372 55.6216C27.9452 55.6216 28.5345 55.5811 29.2962 55.5001V55.9009C28.278 55.913 27.845 56.1397 27.845 56.9816V61.7254L27.841 61.7173Z" fill="#523B1B"/>
<path d="M32.6878 61.0621V64.029C32.6878 64.8588 32.9243 65.0976 33.8263 65.1098V65.5105C33.0687 65.4417 32.6117 65.4174 31.9021 65.4174C31.1925 65.4174 30.475 65.4457 29.7173 65.5105V65.1098C30.7235 65.0976 30.972 64.8548 30.972 64.0128V56.974C30.972 56.1321 30.7636 55.9055 29.7574 55.8933V55.4926C30.515 55.5736 31.1164 55.6545 31.8219 55.614L34.0588 55.4805C35.6423 55.5857 36.9612 56.2536 36.9612 57.8969C36.9612 59.3783 36.1114 60.2202 34.9608 60.6614L36.7407 63.6405C37.1737 64.3488 37.759 65.0976 38.6369 65.1098V65.5105C38.0236 65.4417 37.2258 65.4174 36.6606 65.4174C36.0953 65.4174 35.5742 65.4457 34.8165 65.5105V65.1098C35.3377 65.1098 35.4058 64.964 35.4058 64.7738C35.4058 64.5188 35.2214 64.2274 35.0771 63.9845L33.3252 61.0176C33.1168 61.0298 32.8923 61.0581 32.6838 61.0581L32.6878 61.0621ZM32.6878 56.2252V60.3943C34.4397 60.3012 35.1091 59.5928 35.1091 57.9374C35.1091 56.974 34.7564 56.3993 34.155 56.039L32.6918 56.2252H32.6878Z" fill="#523B1B"/>
<path d="M39.3584 59.9814H43.8563V61.3455H39.3584V59.9814Z" fill="#523B1B"/>
<path d="M53.5175 62.3848L53.8983 62.5872C53.3772 63.336 53.1286 64.4572 53.0204 65.3922C52.6917 65.1534 52.4431 65.0603 52.0903 65.0603C51.2285 65.0603 50.5069 65.6067 49.5007 65.6067C47.2517 65.6067 45.0669 64.0727 45.0669 60.8508C45.0669 58.0701 46.6504 56.7101 47.8931 56.1879L48.6267 55.8803C49.1519 55.6536 49.673 55.427 50.2343 55.427C51.1643 55.427 51.9099 55.6293 52.3269 55.8277C52.5353 55.7751 52.7318 55.5484 52.7839 55.2812H53.1767C53.0966 55.6293 53.0725 56.0543 53.0725 56.3903C53.0725 56.9772 53.1767 57.6612 53.3852 58.4222H52.9803C52.3148 56.9124 51.1483 56.2729 49.6209 56.2729C49.204 56.2729 48.6788 56.366 48.1176 56.621C47.3599 57.4103 46.8869 58.5598 46.8869 60.3732C46.8869 62.9232 48.2218 64.7405 50.2102 64.7405C51.4008 64.7405 52.5113 64.2063 53.5175 62.3889V62.3848Z" fill="#523B1B"/>
<path d="M62.0682 60.6893H57.6224V64.0286C57.6224 64.8584 57.8188 65.0972 59.0094 65.1093V65.5101C58.2638 65.4412 57.466 65.417 56.7485 65.417C56.0309 65.417 55.2572 65.4453 54.4995 65.5101V65.1093C55.65 65.0972 55.8986 64.8543 55.8986 64.0124V56.9736C55.8986 56.1317 55.6901 55.905 54.5396 55.8929V55.4922C55.2973 55.5731 56.0429 55.6136 56.7485 55.6136C57.454 55.6136 58.2117 55.5731 58.9734 55.4922V55.8929C57.7707 55.905 57.6264 56.1317 57.6264 56.9615V59.8717H62.0722V56.9736C62.0722 56.1317 61.8637 55.905 60.7132 55.8929V55.4922C61.4708 55.5731 62.2045 55.6136 62.922 55.6136C63.6396 55.6136 64.3853 55.5731 65.1469 55.4922V55.8929C63.9443 55.905 63.7879 56.1317 63.7879 56.9615V64.0286C63.7879 64.8584 63.9964 65.0972 65.187 65.1093V65.5101C64.4414 65.4412 63.6316 65.417 62.9261 65.417C62.2205 65.417 61.4348 65.4453 60.6771 65.5101V65.1093C61.8276 65.0972 62.0762 64.8543 62.0762 64.0124V60.6853L62.0682 60.6893Z" fill="#523B1B"/>
<path d="M70.503 55.2656L74.2312 64.0166C74.5599 64.7937 75.1733 65.1135 76.0633 65.1135V65.5142C75.3056 65.4454 74.5078 65.4211 73.8023 65.4211C73.0967 65.4211 72.323 65.4494 71.5774 65.5142V65.1135C72.323 65.1013 72.5716 64.9799 72.5716 64.7006C72.5716 64.4983 72.4794 64.3121 72.3872 64.0328L71.7458 62.3894H68.5026L67.9013 64.0206C67.8372 64.2068 67.7971 64.3809 67.7971 64.5144C67.7971 64.9273 68.1899 65.1175 69.1721 65.1175V65.5183C68.4265 65.4494 67.8131 65.4252 67.2358 65.4252C66.6586 65.4252 66.0853 65.4535 65.3276 65.5183V65.1175C66.3339 65.1054 66.7267 64.8099 67.0394 64.0206L70.503 55.2697V55.2656ZM68.7752 61.6366H71.4571L70.0821 58.0949L68.7752 61.6366Z" fill="#523B1B"/>
<path d="M77.6026 56.9736C77.6026 56.1317 77.3941 55.905 76.2436 55.8929V55.4922C77.0013 55.5731 77.7469 55.6136 78.4525 55.6136C79.158 55.6136 79.9157 55.5731 80.6774 55.4922V55.8929C79.4747 55.905 79.3304 56.1317 79.3304 56.9615V64.0286C79.3304 64.8584 79.5268 65.0972 80.7174 65.1093V65.5101C79.9718 65.4412 79.174 65.417 78.4565 65.417C77.7389 65.417 76.9652 65.4453 76.2075 65.5101V65.1093C77.3581 65.0972 77.6066 64.8543 77.6066 64.0124V56.9736H77.6026Z" fill="#523B1B"/>
<path d="M83.72 58.0422V64.0286C83.72 64.8584 84.1529 65.0972 85.2113 65.1093V65.5101C84.4536 65.4412 83.8122 65.417 83.2349 65.417C82.6576 65.417 82.0443 65.4453 81.2866 65.5101V65.1093C82.2928 65.0972 82.7659 64.8543 82.7659 64.0124V56.9736C82.7659 56.1317 82.4772 55.905 81.471 55.8929V55.4922C82.1124 55.561 82.806 55.6136 83.4995 55.6136H83.9044L89.5408 62.2679V56.9655C89.5408 56.1358 89.1078 55.9091 88.0615 55.8969V55.4962C88.8072 55.5772 89.4486 55.6177 90.0218 55.6177C90.5951 55.6177 91.2245 55.5772 91.9701 55.4962V55.8969C90.9639 55.9091 90.4909 56.1358 90.4909 56.9777V65.6072H90.0579L83.716 58.0462L83.72 58.0422Z" fill="#523B1B"/>
<path d="M94.5479 57.3621C94.5479 58.459 95.2534 58.7261 96.6926 59.4466C98.6288 60.4099 99.5188 60.9442 99.5188 62.6806C99.5188 63.9111 98.7611 64.5506 98.3683 64.8178L97.819 65.178C97.4021 65.4573 96.8128 65.6071 96.2356 65.6071C95.1492 65.6071 94.2873 65.1133 93.9586 64.9514C93.698 64.9797 93.5256 65.3399 93.4214 65.7649H93.0285C93.1448 65.3237 93.1969 64.8178 93.1969 64.2552C93.1969 63.4011 93.0526 62.6402 92.792 61.7052H93.1969C94.0588 64.1216 95.4739 64.7652 96.5042 64.7652C96.9371 64.7652 97.342 64.7247 97.6667 64.579C97.9433 64.243 98.0476 63.7897 98.0476 63.3242C98.0476 62.4014 97.6667 61.9885 96.0872 61.2275C94.2833 60.333 93.1969 59.8797 93.1969 58.034C93.1969 57.1921 93.6819 56.4028 94.151 56.0952L94.6481 55.7754C95.053 55.5083 95.6022 55.4273 96.1915 55.4273C97.1055 55.4273 97.6306 55.6013 97.9954 55.7754C98.2039 55.7349 98.4124 55.4394 98.4645 55.1602H98.8694C98.7772 55.5083 98.7531 55.9616 98.7531 56.2975C98.7531 56.9006 98.8172 57.6211 99.0257 58.3942H98.6208C98.0716 56.8723 97.0373 56.2287 95.8106 56.2287C95.4819 56.2287 95.1171 56.2409 94.7523 56.3744C94.596 56.7104 94.5438 56.9371 94.5438 57.3621H94.5479Z" fill="#523B1B"/>
</g>
<defs>
<clipPath id="clip0_2426_2052">
<rect width="100" height="65.7658" fill="white"/>
</clipPath>
</defs>
</svg>
