<svg width="24" height="24" viewBox="0 0 24 24" fill="none" xmlns="http://www.w3.org/2000/svg">
<path fill-rule="evenodd" clip-rule="evenodd" d="M14 0.5C14 0.223858 13.7761 0 13.5 0H10.5C10.2239 0 10 0.223858 10 0.5V1.79133C10 2.02913 9.83213 2.23271 9.60122 2.28956C8.61147 2.53323 7.67971 2.92428 6.83053 3.4381C6.6271 3.56119 6.36451 3.5359 6.19638 3.36777L5.28244 2.45384C5.08718 2.25857 4.7706 2.25857 4.57534 2.45384L2.45402 4.57516C2.25876 4.77042 2.25875 5.087 2.45402 5.28226L3.36791 6.19615C3.53604 6.36429 3.56133 6.62688 3.43823 6.83031C2.92435 7.67955 2.53326 8.61139 2.28956 9.60122C2.23271 9.83213 2.02913 10 1.79133 10H0.5C0.223858 10 0 10.2239 0 10.5V13.5C0 13.7761 0.223858 14 0.5 14H1.79133C2.02913 14 2.23271 14.1679 2.28956 14.3988C2.53325 15.3886 2.92433 16.3204 3.43818 17.1696C3.56128 17.373 3.53599 17.6356 3.36786 17.8038L2.45404 18.7176C2.25877 18.9129 2.25877 19.2294 2.45404 19.4247L4.57536 21.546C4.77062 21.7413 5.0872 21.7413 5.28246 21.546L6.1963 20.6322C6.36443 20.4641 6.62702 20.4388 6.83045 20.5619C7.67965 21.0757 8.61144 21.4668 9.60122 21.7104C9.83213 21.7673 10 21.9709 10 22.2087V23.5C10 23.7761 10.2239 24 10.5 24H13.5C13.7761 24 14 23.7761 14 23.5V22.2087C14 21.9709 14.1679 21.7673 14.3988 21.7104C15.3886 21.4667 16.3204 21.0757 17.1697 20.5618C17.3731 20.4387 17.6357 20.464 17.8038 20.6321L18.7175 21.5457C18.9127 21.741 19.2293 21.741 19.4246 21.5457L21.5459 19.4244C21.7412 19.2291 21.7412 18.9126 21.5459 18.7173L20.6322 17.8036C20.4641 17.6355 20.4388 17.3729 20.5619 17.1695C21.0757 16.3203 21.4668 15.3885 21.7104 14.3988C21.7673 14.1679 21.9709 14 22.2087 14H23.5C23.7761 14 24 13.7761 24 13.5V10.5C24 10.2239 23.7761 10 23.5 10H22.2087C21.9709 10 21.7673 9.83213 21.7104 9.60122C21.4668 8.61144 21.0757 7.67965 20.5619 6.83045C20.4388 6.62702 20.4641 6.36443 20.6322 6.1963L21.5459 5.28257C21.7412 5.0873 21.7412 4.77072 21.5459 4.57546L19.4246 2.45414C19.2293 2.25888 18.9128 2.25888 18.7175 2.45414L17.8038 3.36786C17.6356 3.53599 17.373 3.56128 17.1696 3.43818C16.3204 2.92433 15.3886 2.53325 14.3988 2.28956C14.1679 2.23271 14 2.02913 14 1.79133V0.5ZM12 18C15.3137 18 18 15.3137 18 12C18 8.68629 15.3137 6 12 6C8.68629 6 6 8.68629 6 12C6 15.3137 8.68629 18 12 18Z" fill="#C7C7C7"/>
</svg>
