<svg width="16" height="16" viewBox="0 0 16 16" fill="none" xmlns="http://www.w3.org/2000/svg">
<rect width="16" height="16" rx="3" fill="#F0E6E0"/>
<path d="M0 10H16V13C16 14.6569 14.6569 16 13 16H3C1.34315 16 0 14.6569 0 13V10Z" fill="#26687D"/>
<path d="M11.7436 15.0688C11.4036 15.0688 11.0969 14.9971 10.8236 14.8538C10.5536 14.7071 10.3369 14.4921 10.1736 14.2088C10.0136 13.9254 9.93359 13.5754 9.93359 13.1588C9.93359 12.8521 9.98026 12.5788 10.0736 12.3388C10.1703 12.0988 10.3003 11.8954 10.4636 11.7287C10.6303 11.5621 10.8219 11.4354 11.0386 11.3488C11.2553 11.2621 11.4886 11.2188 11.7386 11.2188C12.0086 11.2188 12.2386 11.2687 12.4286 11.3688C12.6219 11.4654 12.7803 11.5754 12.9036 11.6988L12.4736 12.2188C12.3803 12.1321 12.2786 12.0604 12.1686 12.0038C12.0619 11.9471 11.9269 11.9187 11.7636 11.9187C11.5703 11.9187 11.3986 11.9671 11.2486 12.0638C11.0986 12.1604 10.9803 12.3004 10.8936 12.4838C10.8103 12.6638 10.7686 12.8804 10.7686 13.1337C10.7686 13.3904 10.8069 13.6121 10.8836 13.7988C10.9636 13.9821 11.0819 14.1221 11.2386 14.2188C11.3986 14.3154 11.5953 14.3637 11.8286 14.3637C11.9086 14.3637 11.9853 14.3538 12.0586 14.3338C12.1319 14.3138 12.1919 14.2854 12.2386 14.2488V13.5838H11.6136V12.9138H12.9636V14.6188C12.8369 14.7421 12.6653 14.8488 12.4486 14.9388C12.2353 15.0254 12.0003 15.0688 11.7436 15.0688Z" fill="white"/>
<path d="M6.32812 15.0002V11.2852H7.15813L8.15813 13.1652L8.52813 13.9802H8.55313C8.52979 13.7835 8.50479 13.5668 8.47813 13.3302C8.45479 13.0902 8.44313 12.8602 8.44313 12.6402V11.2852H9.21813V15.0002H8.38813L7.39313 13.1102L7.02312 12.3102H6.99813C7.01479 12.5102 7.03646 12.7268 7.06313 12.9602C7.08979 13.1935 7.10313 13.4202 7.10313 13.6402V15.0002H6.32812Z" fill="white"/>
<path d="M2.94531 15.0002V11.2852H4.20531C4.47865 11.2852 4.72531 11.3218 4.94531 11.3952C5.16865 11.4685 5.34531 11.5918 5.47531 11.7652C5.60865 11.9385 5.67531 12.1752 5.67531 12.4752C5.67531 12.7618 5.60865 12.9985 5.47531 13.1852C5.34531 13.3685 5.17031 13.5052 4.95031 13.5952C4.73031 13.6818 4.48865 13.7252 4.22531 13.7252H3.76031V15.0002H2.94531ZM3.76031 13.0802H4.18031C4.41365 13.0802 4.58865 13.0285 4.70531 12.9252C4.82198 12.8218 4.88031 12.6718 4.88031 12.4752C4.88031 12.2752 4.81865 12.1352 4.69531 12.0552C4.57198 11.9752 4.39198 11.9352 4.15531 11.9352H3.76031V13.0802Z" fill="white"/>
<path d="M5.86667 5.5L0 10H16V7L12.2667 4L8 7.5L5.86667 5.5Z" fill="#4C8496"/>
<circle cx="4.5" cy="3.5" r="1.5" fill="#DEBA83"/>
</svg>
