<svg width="20" height="20" viewBox="0 0 20 20" fill="none" xmlns="http://www.w3.org/2000/svg">
<path fill-rule="evenodd" clip-rule="evenodd" d="M6 0.5C6 0.223858 5.77614 0 5.5 0C5.22386 0 5 0.223858 5 0.5V3H1.5C0.671573 3 0 3.67157 0 4.5V18.5C0 19.3284 0.671572 20 1.5 20H18.5C19.3284 20 20 19.3284 20 18.5V4.5C20 3.67157 19.3284 3 18.5 3H15V0.5C15 0.223858 14.7761 0 14.5 0C14.2239 0 14 0.223858 14 0.5V3H6V0.5ZM14 5.5V4H6V5.5C6 5.77614 5.77614 6 5.5 6C5.22386 6 5 5.77614 5 5.5V4H1.5C1.22386 4 1 4.22386 1 4.5V8.5H19V4.5C19 4.22386 18.7761 4 18.5 4H15V5.5C15 5.77614 14.7761 6 14.5 6C14.2239 6 14 5.77614 14 5.5ZM3.5 13.5V10.5H6.5V13.5H3.5ZM11.5 10.5H8.5V13.5H11.5V10.5ZM3.5 17.5V14.5H6.5V17.5H3.5ZM11.5 14.5H8.5V17.5H11.5V14.5ZM13.5 13.5V10.5H16.5V13.5H13.5Z" fill="#848484"/>
</svg>
