<svg width="16" height="16" viewBox="0 0 16 16" fill="none" xmlns="http://www.w3.org/2000/svg">
<rect width="16" height="16" rx="3" fill="#F55050"/>
<rect x="2" y="2" width="12" height="8" rx="1" fill="white"/>
<path d="M9.5 6L6.5 4.5V7.5L9.5 6Z" fill="#F55050"/>
<path d="M10.7188 15.0002V11.2852H11.5338V15.0002H10.7188Z" fill="white"/>
<path d="M8.20703 15.0002L7.08203 11.2852H7.94203L8.39703 13.0352C8.45703 13.2385 8.5087 13.4368 8.55203 13.6302C8.59536 13.8235 8.64536 14.0235 8.70203 14.2302H8.72703C8.7837 14.0235 8.8337 13.8235 8.87703 13.6302C8.92036 13.4368 8.97036 13.2385 9.02703 13.0352L9.47703 11.2852H10.307L9.18203 15.0002H8.20703Z" fill="white"/>
<path d="M3.96875 15.0002L5.13875 11.2852H6.10875L7.27875 15.0002H6.42375L5.92375 13.1052C5.87042 12.9152 5.81875 12.7168 5.76875 12.5102C5.71875 12.3002 5.66875 12.0985 5.61875 11.9052H5.59875C5.55208 12.1018 5.50208 12.3035 5.44875 12.5102C5.39875 12.7168 5.34875 12.9152 5.29875 13.1052L4.79875 15.0002H3.96875ZM4.72875 14.0952V13.4652H6.50875V14.0952H4.72875Z" fill="white"/>
</svg>
