<svg width="24" height="24" viewBox="0 0 24 24" fill="none" xmlns="http://www.w3.org/2000/svg">
<g filter="url(#filter0_d_6499_17646)">
<path d="M4 3C4 1.34315 5.34315 0 7 0H17C18.6569 0 20 1.34315 20 3V15C20 15.5523 19.5523 16 19 16H7C5.34315 16 4 14.6569 4 13V3Z" fill="white"/>
<path fill-rule="evenodd" clip-rule="evenodd" d="M17 1H7C5.89543 1 5 1.89543 5 3V13C5 14.1046 5.89543 15 7 15H19V3C19 1.89543 18.1046 1 17 1ZM7 0C5.34315 0 4 1.34315 4 3V13C4 14.6569 5.34315 16 7 16H19C19.5523 16 20 15.5523 20 15V3C20 1.34315 18.6569 0 17 0H7Z" fill="#CECECE"/>
<path fill-rule="evenodd" clip-rule="evenodd" d="M6.5 11C6.5 10.7239 6.72386 10.5 7 10.5L17 10.5C17.2761 10.5 17.5 10.7239 17.5 11C17.5 11.2761 17.2761 11.5 17 11.5L7 11.5C6.72386 11.5 6.5 11.2761 6.5 11Z" fill="#CECECE"/>
<path fill-rule="evenodd" clip-rule="evenodd" d="M6.5 13C6.5 12.7239 6.72386 12.5 7 12.5L17 12.5C17.2761 12.5 17.5 12.7239 17.5 13C17.5 13.2761 17.2761 13.5 17 13.5L7 13.5C6.72386 13.5 6.5 13.2761 6.5 13Z" fill="#CECECE"/>
<path d="M17 0H7C5.34315 0 4 1.34315 4 3V13C4 14.6569 5.34315 16 7 16H10.7574C11.553 16 12.3161 15.6839 12.8787 15.1213L19.1213 8.87868C19.6839 8.31607 20 7.55301 20 6.75736V3C20 1.34315 18.6569 0 17 0Z" fill="#AB0101"/>
<path fill-rule="evenodd" clip-rule="evenodd" d="M10.1113 5.43716C9.98586 5.15296 9.73267 4.43399 9.72381 3.83165C9.71274 3.07873 10.0671 3.01229 10.1889 3.00122C10.3107 2.99015 10.8754 3.03444 10.8643 3.99774C10.8579 4.55256 10.7046 5.17715 10.508 5.77635C10.7373 6.31631 11.3421 6.9899 11.6395 7.2805C11.9584 7.22735 12.54 7.19192 12.791 7.18084C13.6547 7.18084 14.1861 7.36908 14.1861 7.83412C14.1861 8.20615 13.7359 8.29178 13.5107 8.28809C12.7932 8.31466 11.9347 7.74554 11.5952 7.45765C10.5776 7.64388 9.91668 7.85424 9.56924 7.99593C9.04823 8.92639 8.26396 9.99108 7.57577 9.99899C7.38384 10.0101 7 9.93477 7 9.54502C7 9.05783 7.74185 8.55957 8.99304 8.03917C9.26984 7.49662 9.88104 6.21666 10.1113 5.43716ZM9.67649 7.79949C10.0748 7.66569 10.9831 7.38503 11.4856 7.31456C11.2384 7.04882 10.6862 6.40441 10.4559 5.95265C10.3696 6.20063 10.2096 6.6328 10.0366 7.04114C9.99082 7.15406 9.93272 7.28525 9.86421 7.42834C9.83 7.5008 9.79605 7.56974 9.76283 7.63358C9.73522 7.68785 9.70641 7.74324 9.67649 7.79949ZM8.88252 8.24854C8.32521 8.47737 7.19508 9.04797 7.13308 9.49973C7.11804 9.60924 7.18401 9.83854 7.38774 9.82083C7.64241 9.79868 8.26246 9.36686 8.88252 8.24854ZM9.85663 3.83251C9.84777 4.34858 10.0744 4.97024 10.1888 5.21656C10.3748 4.74709 10.521 4.11917 10.521 3.755C10.5099 3.4659 10.428 3.12608 10.1888 3.13494C9.88983 3.14601 9.85663 3.65534 9.85663 3.83251ZM13.2572 8.11178C12.7257 8.0852 12.0614 7.63566 11.7957 7.41422C11.9322 7.381 12.2829 7.31456 12.7257 7.31456C13.2462 7.31456 13.7776 7.35885 13.7333 7.75746C13.6982 8.07354 13.3864 8.12285 13.2572 8.11178Z" fill="white"/>
</g>
<defs>
<filter id="filter0_d_6499_17646" x="0" y="0" width="24" height="24" filterUnits="userSpaceOnUse" color-interpolation-filters="sRGB">
<feFlood flood-opacity="0" result="BackgroundImageFix"/>
<feColorMatrix in="SourceAlpha" type="matrix" values="0 0 0 0 0 0 0 0 0 0 0 0 0 0 0 0 0 0 127 0" result="hardAlpha"/>
<feOffset dy="4"/>
<feGaussianBlur stdDeviation="2"/>
<feComposite in2="hardAlpha" operator="out"/>
<feColorMatrix type="matrix" values="0 0 0 0 0 0 0 0 0 0 0 0 0 0 0 0 0 0 0.25 0"/>
<feBlend mode="normal" in2="BackgroundImageFix" result="effect1_dropShadow_6499_17646"/>
<feBlend mode="normal" in="SourceGraphic" in2="effect1_dropShadow_6499_17646" result="shape"/>
</filter>
</defs>
</svg>
