<svg width="16" height="16" viewBox="0 0 16 16" fill="none" xmlns="http://www.w3.org/2000/svg">
<path d="M0 3C0 1.34315 1.34315 0 3 0H13C14.6569 0 16 1.34315 16 3V15C16 15.5523 15.5523 16 15 16H3C1.34315 16 0 14.6569 0 13V3Z" fill="white"/>
<path d="M7 13H13V7" stroke="#CECECE" stroke-linecap="round" stroke-linejoin="round"/>
<path fill-rule="evenodd" clip-rule="evenodd" d="M13 1H3C1.89543 1 1 1.89543 1 3V13C1 14.1046 1.89543 15 3 15H15V3C15 1.89543 14.1046 1 13 1ZM3 0C1.34315 0 0 1.34315 0 3V13C0 14.6569 1.34315 16 3 16H15C15.5523 16 16 15.5523 16 15V3C16 1.34315 14.6569 0 13 0H3Z" fill="#CECECE"/>
<path d="M13 0H3C1.34315 0 0 1.34315 0 3V13C0 14.6569 1.34315 16 3 16H6.75736C7.55301 16 8.31607 15.6839 8.87868 15.1213L15.1213 8.87868C15.6839 8.31607 16 7.55301 16 6.75736V3C16 1.34315 14.6569 0 13 0Z" fill="#E03303"/>
<path d="M4 10V4H6.27955C6.79237 4 7.25203 4.06928 7.65854 4.20783C8.0713 4.34638 8.3965 4.57625 8.63415 4.89744C8.87805 5.21233 9 5.64687 9 6.20108C9 6.73009 8.87805 7.16779 8.63415 7.51417C8.3965 7.85425 8.07442 8.10616 7.66792 8.26991C7.26767 8.43365 6.81739 8.51552 6.31707 8.51552H5.38837V10H4ZM5.38837 7.41026H6.22326C6.69856 7.41026 7.05191 7.30949 7.2833 7.10796C7.52095 6.90643 7.63978 6.60414 7.63978 6.20108C7.63978 5.79802 7.5147 5.51777 7.26454 5.36032C7.02064 5.19658 6.65791 5.11471 6.17636 5.11471H5.38837V7.41026Z" fill="white"/>
</svg>
