<svg width="16" height="16" viewBox="0 0 16 16" fill="none" xmlns="http://www.w3.org/2000/svg">
<path d="M0 3C0 1.34315 1.34315 0 3 0H13C14.6569 0 16 1.34315 16 3V15C16 15.5523 15.5523 16 15 16H3C1.34315 16 0 14.6569 0 13V3Z" fill="white"/>
<path fill-rule="evenodd" clip-rule="evenodd" d="M13 1H3C1.89543 1 1 1.89543 1 3V13C1 14.1046 1.89543 15 3 15H15V3C15 1.89543 14.1046 1 13 1ZM3 0C1.34315 0 0 1.34315 0 3V13C0 14.6569 1.34315 16 3 16H15C15.5523 16 16 15.5523 16 15V3C16 1.34315 14.6569 0 13 0H3Z" fill="#CECECE"/>
<path fill-rule="evenodd" clip-rule="evenodd" d="M2.5 11C2.5 10.7239 2.72386 10.5 3 10.5L13 10.5C13.2761 10.5 13.5 10.7239 13.5 11C13.5 11.2761 13.2761 11.5 13 11.5L3 11.5C2.72386 11.5 2.5 11.2761 2.5 11Z" fill="#CECECE"/>
<path fill-rule="evenodd" clip-rule="evenodd" d="M2.5 13C2.5 12.7239 2.72386 12.5 3 12.5L13 12.5C13.2761 12.5 13.5 12.7239 13.5 13C13.5 13.2761 13.2761 13.5 13 13.5L3 13.5C2.72386 13.5 2.5 13.2761 2.5 13Z" fill="#CECECE"/>
<path d="M13 0H3C1.34315 0 0 1.34315 0 3V13C0 14.6569 1.34315 16 3 16H6.75736C7.55301 16 8.31607 15.6839 8.87868 15.1213L15.1213 8.87868C15.6839 8.31607 16 7.55301 16 6.75736V3C16 1.34315 14.6569 0 13 0Z" fill="#AB0101"/>
<path fill-rule="evenodd" clip-rule="evenodd" d="M6.11135 5.43716C5.98586 5.15296 5.73267 4.43399 5.72381 3.83165C5.71274 3.07873 6.06706 3.01229 6.18885 3.00122C6.31065 2.99015 6.87535 3.03444 6.86428 3.99774C6.8579 4.55256 6.70461 5.17715 6.50805 5.77635C6.73727 6.31631 7.34213 6.9899 7.63948 7.2805C7.95837 7.22735 8.54004 7.19192 8.79102 7.18084C9.65467 7.18084 10.1861 7.36908 10.1861 7.83412C10.1861 8.20615 9.73586 8.29178 9.51072 8.28809C8.79323 8.31466 7.93475 7.74554 7.59519 7.45765C6.57762 7.64388 5.91668 7.85424 5.56924 7.99593C5.04823 8.92639 4.26396 9.99108 3.57577 9.99899C3.38384 10.0101 3 9.93477 3 9.54502C3 9.05783 3.74185 8.55957 4.99304 8.03917C5.26984 7.49662 5.88104 6.21666 6.11135 5.43716ZM5.67649 7.79949C6.0748 7.66569 6.9831 7.38503 7.48564 7.31456C7.23835 7.04882 6.68621 6.40441 6.4559 5.95265C6.36965 6.20063 6.20957 6.6328 6.03661 7.04114C5.99082 7.15406 5.93272 7.28525 5.86421 7.42834C5.83 7.5008 5.79605 7.56974 5.76283 7.63358C5.73522 7.68785 5.70641 7.74324 5.67649 7.79949ZM4.88252 8.24854C4.32521 8.47737 3.19508 9.04797 3.13308 9.49973C3.11804 9.60924 3.18401 9.83854 3.38774 9.82083C3.64241 9.79868 4.26246 9.36686 4.88252 8.24854ZM5.85663 3.83251C5.84777 4.34858 6.07438 4.97024 6.18879 5.21656C6.37481 4.74709 6.52097 4.11917 6.52097 3.755C6.5099 3.4659 6.42796 3.12608 6.18879 3.13494C5.88983 3.14601 5.85663 3.65534 5.85663 3.83251ZM9.25723 8.11178C8.72575 8.0852 8.0614 7.63566 7.79566 7.41422C7.93222 7.381 8.28285 7.31456 8.72575 7.31456C9.24615 7.31456 9.77763 7.35885 9.73334 7.75746C9.69822 8.07354 9.3864 8.12285 9.25723 8.11178Z" fill="white"/>
</svg>
