<svg width="14" height="19" viewBox="0 0 14 19" fill="none" xmlns="http://www.w3.org/2000/svg">
<path d="M0.25 3C0.25 2.58579 0.585786 2.25 1 2.25H13C13.4142 2.25 13.75 2.58579 13.75 3V4.75H0.25V3Z" fill="white" stroke="black" stroke-width="0.5"/>
<mask id="path-2-inside-1_4180_17311" fill="white">
<path d="M4 1C4 0.447715 4.44772 0 5 0H9C9.55228 0 10 0.447715 10 1V2H4V1Z"/>
</mask>
<path d="M4 1C4 0.447715 4.44772 0 5 0H9C9.55228 0 10 0.447715 10 1V2H4V1Z" fill="white"/>
<path d="M3.5 1C3.5 0.171573 4.17157 -0.5 5 -0.5H9C9.82843 -0.5 10.5 0.171573 10.5 1H9.5C9.5 0.723858 9.27614 0.5 9 0.5H5C4.72386 0.5 4.5 0.723858 4.5 1H3.5ZM10 2H4H10ZM3.5 2V1C3.5 0.171573 4.17157 -0.5 5 -0.5V0.5C4.72386 0.5 4.5 0.723858 4.5 1V2H3.5ZM9 -0.5C9.82843 -0.5 10.5 0.171573 10.5 1V2H9.5V1C9.5 0.723858 9.27614 0.5 9 0.5V-0.5Z" fill="black" mask="url(#path-2-inside-1_4180_17311)"/>
<mask id="path-4-inside-2_4180_17311" fill="white">
<path d="M1 5H13V17C13 18.1046 12.1046 19 11 19H3C1.89543 19 1 18.1046 1 17V5Z"/>
</mask>
<path d="M1 5H13V17C13 18.1046 12.1046 19 11 19H3C1.89543 19 1 18.1046 1 17V5Z" fill="white"/>
<path d="M1 5H13H1ZM13.7 17C13.7 18.4912 12.4912 19.7 11 19.7H3C1.50883 19.7 0.3 18.4912 0.3 17H1.7C1.7 17.718 2.28203 18.3 3 18.3H11C11.718 18.3 12.3 17.718 12.3 17H13.7ZM3 19.7C1.50883 19.7 0.3 18.4912 0.3 17V5H1.7V17C1.7 17.718 2.28203 18.3 3 18.3V19.7ZM13.7 5V17C13.7 18.4912 12.4912 19.7 11 19.7V18.3C11.718 18.3 12.3 17.718 12.3 17V5H13.7Z" fill="black" mask="url(#path-4-inside-2_4180_17311)"/>
<path d="M4 8V16" stroke="black" stroke-width="0.7" stroke-linecap="round"/>
<path d="M7 8V16" stroke="black" stroke-width="0.7" stroke-linecap="round"/>
<path d="M10 8V16" stroke="black" stroke-width="0.7" stroke-linecap="round"/>
</svg>
