<svg width="16" height="16" viewBox="0 0 16 16" fill="none" xmlns="http://www.w3.org/2000/svg">
<path d="M0.5 3C0.5 1.61929 1.61929 0.5 3 0.5H13C14.3807 0.5 15.5 1.61929 15.5 3V15C15.5 15.2761 15.2761 15.5 15 15.5H3C1.61929 15.5 0.5 14.3807 0.5 13V3Z" fill="white" stroke="#CECECE"/>
<path fill-rule="evenodd" clip-rule="evenodd" d="M12.5 5C12.7761 5 13 5.22386 13 5.5L13 15.5C13 15.7761 12.7761 16 12.5 16C12.2239 16 12 15.7761 12 15.5L12 5.5C12 5.22386 12.2239 5 12.5 5Z" fill="#CECECE"/>
<path fill-rule="evenodd" clip-rule="evenodd" d="M9.5 5C9.77614 5 10 5.22386 10 5.5L10 15.5C10 15.7761 9.77614 16 9.5 16C9.22386 16 9 15.7761 9 15.5L9 5.5C9 5.22386 9.22386 5 9.5 5Z" fill="#CECECE"/>
<path fill-rule="evenodd" clip-rule="evenodd" d="M4.5 13.5C4.5 13.2239 4.72386 13 5 13L15 13C15.2761 13 15.5 13.2239 15.5 13.5C15.5 13.7761 15.2761 14 15 14L5 14C4.72386 14 4.5 13.7761 4.5 13.5Z" fill="#CECECE"/>
<path fill-rule="evenodd" clip-rule="evenodd" d="M4.5 11.5C4.5 11.2239 4.72386 11 5 11L15 11C15.2761 11 15.5 11.2239 15.5 11.5C15.5 11.7761 15.2761 12 15 12L5 12C4.72386 12 4.5 11.7761 4.5 11.5Z" fill="#CECECE"/>
<path fill-rule="evenodd" clip-rule="evenodd" d="M4.5 9.5C4.5 9.22386 4.72386 9 5 9L15 9C15.2761 9 15.5 9.22386 15.5 9.5C15.5 9.77614 15.2761 10 15 10L5 10C4.72386 10 4.5 9.77614 4.5 9.5Z" fill="#CECECE"/>
<path d="M13 0H3C1.34315 0 0 1.34315 0 3V13C0 14.6569 1.34315 16 3 16H6.75736C7.55301 16 8.31607 15.6839 8.87868 15.1213L15.1213 8.87868C15.6839 8.31607 16 7.55301 16 6.75736V3C16 1.34315 14.6569 0 13 0Z" fill="#207245"/>
<path d="M8.9142 4L7.06959 6.44131L9 9H7.86559L6.50238 7.19249L5.13441 9H4L5.93518 6.44131L4.09056 4H5.22021L6.50238 5.69014L7.77979 4H8.9142Z" fill="white"/>
</svg>
