<svg width="16" height="16" viewBox="0 0 16 16" fill="none" xmlns="http://www.w3.org/2000/svg">
<rect width="16" height="16" rx="3" fill="#00B7B7"/>
<rect x="2" y="2" width="12" height="8" rx="1" fill="white"/>
<path d="M9.5 6L6.5 4.5V7.5L9.5 6Z" fill="#00B7B7"/>
<path d="M11.8903 14.9989V12.8839C11.8903 12.7706 11.8936 12.6372 11.9003 12.4839C11.9103 12.3272 11.917 12.1922 11.9203 12.0789H11.9003C11.8536 12.1789 11.8053 12.2806 11.7553 12.3839C11.7053 12.4839 11.6536 12.5856 11.6003 12.6889L11.1003 13.5039H13.0703V14.1289H10.3203V13.5639L11.6553 11.3789H12.6453V14.9989H11.8903Z" fill="white"/>
<path d="M7.27344 15.0002V11.2852H8.53344C8.80677 11.2852 9.05344 11.3218 9.27344 11.3952C9.49677 11.4685 9.67344 11.5918 9.80344 11.7652C9.93677 11.9385 10.0034 12.1752 10.0034 12.4752C10.0034 12.7618 9.93677 12.9985 9.80344 13.1852C9.67344 13.3685 9.49844 13.5052 9.27844 13.5952C9.05844 13.6818 8.81677 13.7252 8.55344 13.7252H8.08844V15.0002H7.27344ZM8.08844 13.0802H8.50844C8.74177 13.0802 8.91677 13.0285 9.03344 12.9252C9.1501 12.8218 9.20844 12.6718 9.20844 12.4752C9.20844 12.2752 9.14677 12.1352 9.02344 12.0552C8.9001 11.9752 8.7201 11.9352 8.48344 11.9352H8.08844V13.0802Z" fill="white"/>
<path d="M2.94531 15.0002V11.2852H3.83531L4.44531 12.9602C4.48198 13.0702 4.51865 13.1835 4.55531 13.3002C4.59198 13.4168 4.62698 13.5335 4.66031 13.6502H4.68531C4.72198 13.5335 4.75698 13.4168 4.79031 13.3002C4.82698 13.1835 4.86365 13.0702 4.90031 12.9602L5.49031 11.2852H6.38531V15.0002H5.64031V13.5902C5.64031 13.4702 5.64698 13.3368 5.66031 13.1902C5.67365 13.0402 5.68865 12.8902 5.70531 12.7402C5.72198 12.5902 5.73698 12.4552 5.75031 12.3352H5.72531L5.42031 13.2152L4.88531 14.6752H4.42531L3.89031 13.2152L3.59031 12.3352H3.57031C3.58698 12.4552 3.60198 12.5902 3.61531 12.7402C3.63198 12.8902 3.64531 13.0402 3.65531 13.1902C3.66865 13.3368 3.67531 13.4702 3.67531 13.5902V15.0002H2.94531Z" fill="white"/>
</svg>
