<svg width="24" height="24" viewBox="0 0 24 24" fill="none" xmlns="http://www.w3.org/2000/svg">
<rect width="24" height="24" rx="3" fill="#BCBCBC"/>
<circle cx="12" cy="7" r="5" fill="white"/>
<path fill-rule="evenodd" clip-rule="evenodd" d="M18.8743 12.2077C18.8743 11.6324 18.408 11.166 17.8327 11.166C17.2574 11.166 16.791 11.6324 16.791 12.2077L16.791 14.291H14.7077C14.1324 14.291 13.666 14.7574 13.666 15.3327C13.666 15.908 14.1324 16.3743 14.7077 16.3743H16.791L16.791 18.4577C16.791 19.033 17.2574 19.4993 17.8327 19.4993C18.408 19.4993 18.8743 19.033 18.8743 18.4577V16.3743H20.9577C21.533 16.3743 21.9993 15.908 21.9993 15.3327C21.9993 14.7574 21.533 14.291 20.9577 14.291H18.8743V12.2077Z" fill="white"/>
<path d="M12.5734 13.666H9.8125C5.49778 13.666 2 17.1638 2 21.4785C2 21.7662 2.23319 21.9993 2.52083 21.9993H17.8333V21.166C16.3376 21.166 15.125 19.9535 15.125 18.4577V18.041H14.7083C13.2126 18.041 12 16.8285 12 15.3327C12 14.7041 12.2141 14.1256 12.5734 13.666Z" fill="white"/>
</svg>
