<svg width="16" height="16" viewBox="0 0 16 16" fill="none" xmlns="http://www.w3.org/2000/svg">
<path d="M0 3C0 1.34315 1.34315 0 3 0H13C14.6569 0 16 1.34315 16 3V15C16 15.5523 15.5523 16 15 16H3C1.34315 16 0 14.6569 0 13V3Z" fill="white"/>
<path fill-rule="evenodd" clip-rule="evenodd" d="M13 1H3C1.89543 1 1 1.89543 1 3V13C1 14.1046 1.89543 15 3 15H15V3C15 1.89543 14.1046 1 13 1ZM3 0C1.34315 0 0 1.34315 0 3V13C0 14.6569 1.34315 16 3 16H15C15.5523 16 16 15.5523 16 15V3C16 1.34315 14.6569 0 13 0H3Z" fill="#CECECE"/>
<path fill-rule="evenodd" clip-rule="evenodd" d="M2.5 11C2.5 10.7239 2.72386 10.5 3 10.5L13 10.5C13.2761 10.5 13.5 10.7239 13.5 11C13.5 11.2761 13.2761 11.5 13 11.5L3 11.5C2.72386 11.5 2.5 11.2761 2.5 11Z" fill="#CECECE"/>
<path fill-rule="evenodd" clip-rule="evenodd" d="M2.5 13C2.5 12.7239 2.72386 12.5 3 12.5L13 12.5C13.2761 12.5 13.5 12.7239 13.5 13C13.5 13.2761 13.2761 13.5 13 13.5L3 13.5C2.72386 13.5 2.5 13.2761 2.5 13Z" fill="#CECECE"/>
<path d="M13 0H3C1.34315 0 0 1.34315 0 3V13C0 14.6569 1.34315 16 3 16H6.75736C7.55301 16 8.31607 15.6839 8.87868 15.1213L15.1213 8.87868C15.6839 8.31607 16 7.55301 16 6.75736V3C16 1.34315 14.6569 0 13 0Z" fill="#104396"/>
<path d="M4.52255 9L3 4H3.76127L4.94218 7.97838L6.11936 4H6.88064L8.05783 7.97838L9.23873 4H10L8.47745 9H7.64191L6.50186 5.25174L5.35809 9H4.52255Z" fill="white"/>
</svg>
