<svg width="16" height="16" viewBox="0 0 16 16" fill="none" xmlns="http://www.w3.org/2000/svg">
<rect width="16" height="16" rx="3" fill="#909090"/>
<circle cx="4.5" cy="3.5" r="1.5" fill="#B09162"/>
<path d="M5.86667 5.5L0 10H16V7L12.2667 4L8 7.5L5.86667 5.5Z" fill="#535A74"/>
<path d="M0 10H16V13C16 14.6569 14.6569 16 13 16H3C1.34315 16 0 14.6569 0 13V10Z" fill="#354376"/>
<path d="M9.26953 15.0002V11.2852H11.5945V11.9652H10.0845V12.8602H11.3795V13.5402H10.0845V15.0002H9.26953Z" fill="white"/>
<path d="M7.57031 15.0002V11.2852H8.38531V15.0002H7.57031Z" fill="white"/>
<path d="M5.57563 15.0688C5.23563 15.0688 4.92896 14.9971 4.65562 14.8538C4.38563 14.7071 4.16896 14.4921 4.00562 14.2088C3.84562 13.9254 3.76562 13.5754 3.76562 13.1588C3.76562 12.8521 3.81229 12.5788 3.90562 12.3388C4.00229 12.0988 4.13229 11.8954 4.29563 11.7287C4.46229 11.5621 4.65396 11.4354 4.87063 11.3488C5.08729 11.2621 5.32063 11.2188 5.57063 11.2188C5.84063 11.2188 6.07063 11.2687 6.26063 11.3688C6.45396 11.4654 6.61229 11.5754 6.73563 11.6988L6.30563 12.2188C6.21229 12.1321 6.11063 12.0604 6.00062 12.0038C5.89396 11.9471 5.75896 11.9187 5.59563 11.9187C5.40229 11.9187 5.23063 11.9671 5.08063 12.0638C4.93063 12.1604 4.81229 12.3004 4.72563 12.4838C4.64229 12.6638 4.60063 12.8804 4.60063 13.1337C4.60063 13.3904 4.63896 13.6121 4.71563 13.7988C4.79563 13.9821 4.91396 14.1221 5.07063 14.2188C5.23063 14.3154 5.42729 14.3637 5.66063 14.3637C5.74063 14.3637 5.81729 14.3538 5.89062 14.3338C5.96396 14.3138 6.02396 14.2854 6.07062 14.2488V13.5838H5.44563V12.9138H6.79562V14.6188C6.66896 14.7421 6.49729 14.8488 6.28063 14.9388C6.06729 15.0254 5.83229 15.0688 5.57563 15.0688Z" fill="white"/>
<path d="M9 6L7.5 5V7L9 6Z" fill="white"/>
<rect x="7.55859" y="2" width="0.888927" height="1.77785" rx="0.444464" fill="white"/>
<rect x="7.55859" y="8.22656" width="0.888927" height="1.77785" rx="0.444464" fill="white"/>
<rect x="12.0039" y="5.55469" width="0.888927" height="1.77785" rx="0.444464" transform="rotate(90 12.0039 5.55469)" fill="white"/>
<rect x="10.5898" y="2.89062" width="0.888927" height="1.77785" rx="0.444464" transform="rotate(45 10.5898 2.89062)" fill="white"/>
<rect x="6.14453" y="7.33203" width="0.888927" height="1.77785" rx="0.444464" transform="rotate(45 6.14453 7.33203)" fill="white"/>
<rect x="6.77734" y="4.14062" width="0.888927" height="1.77785" rx="0.444464" transform="rotate(135 6.77734 4.14062)" fill="white"/>
<rect x="11.2227" y="8.58594" width="0.888927" height="1.77785" rx="0.444464" transform="rotate(135 11.2227 8.58594)" fill="white"/>
<rect x="5.77734" y="5.55469" width="0.888927" height="1.77785" rx="0.444464" transform="rotate(90 5.77734 5.55469)" fill="white"/>
</svg>
