<svg width="16" height="16" viewBox="0 0 16 16" fill="none" xmlns="http://www.w3.org/2000/svg">
<path d="M0.5 3C0.5 1.61929 1.61929 0.5 3 0.5H13C14.3807 0.5 15.5 1.61929 15.5 3V15C15.5 15.2761 15.2761 15.5 15 15.5H3C1.61929 15.5 0.5 14.3807 0.5 13V3Z" fill="white" stroke="#CECECE"/>
<path fill-rule="evenodd" clip-rule="evenodd" d="M2.5 11C2.5 10.7239 2.72386 10.5 3 10.5L13 10.5C13.2761 10.5 13.5 10.7239 13.5 11C13.5 11.2761 13.2761 11.5 13 11.5L3 11.5C2.72386 11.5 2.5 11.2761 2.5 11Z" fill="#CECECE"/>
<path fill-rule="evenodd" clip-rule="evenodd" d="M2.5 13C2.5 12.7239 2.72386 12.5 3 12.5L13 12.5C13.2761 12.5 13.5 12.7239 13.5 13C13.5 13.2761 13.2761 13.5 13 13.5L3 13.5C2.72386 13.5 2.5 13.2761 2.5 13Z" fill="#CECECE"/>
<path d="M13 0H3C1.34315 0 0 1.34315 0 3V13C0 14.6569 1.34315 16 3 16H6.75736C7.55301 16 8.31607 15.6839 8.87868 15.1213L15.1213 8.87868C15.6839 8.31607 16 7.55301 16 6.75736V3C16 1.34315 14.6569 0 13 0Z" fill="#1891DF"/>
<path fill-rule="evenodd" clip-rule="evenodd" d="M4.47176 3.63098C4.56282 3.57028 4.89974 3.52171 5.51894 3.8131C6.13815 4.10449 6.62684 4.63253 6.79378 4.86012C6.67237 4.35929 6.24742 3.2939 5.51894 3.03893C5.00901 2.85681 4.60835 3.35775 4.47176 3.63098ZM3.06033 5.26973C3.0148 5.17867 2.95106 4.92371 3.06033 4.63232C3.19692 4.26808 3.74355 4.04043 4.10766 4.04043C4.47176 4.04043 5.97411 4.04043 6.79378 5.26973C7.0063 5.25456 7.48597 5.28795 7.70451 5.54291C7.92305 5.79788 8.0384 6.31692 8.06875 6.54457C7.93216 6.40798 7.59524 6.16212 7.34027 6.27139C7.3858 6.62045 7.39491 7.44606 7.06709 7.95599C6.65733 8.59341 5.97438 9.1853 4.92719 9.1853C3.88001 9.1853 3.24259 8.54788 3.24259 7.54622C3.24259 6.55337 3.86885 6.05259 4.10156 5.8665L4.10766 5.86162C4.3353 5.6795 5.06351 5.40632 5.51894 5.40632C5.3824 5.31526 4.90898 5.13314 4.10766 5.13314C3.30633 5.13314 3.07556 5.2242 3.06033 5.26973ZM6.15537 6.13393C5.83666 6.14911 5.08997 6.31605 4.65289 6.86241C4.10653 7.54535 4.56183 8.18277 5.10818 8.27383C5.65454 8.36489 6.42855 7.86406 6.42855 6.999C6.42855 6.72582 6.26161 6.30087 6.15537 6.13393Z" fill="white"/>
<circle cx="4.99766" cy="10.5992" r="0.4" fill="white"/>
</svg>
