<svg width="20" height="20" viewBox="0 0 20 20" fill="none" xmlns="http://www.w3.org/2000/svg">
<path d="M7 7.5C7.27614 7.5 7.5 7.72386 7.5 8V16C7.5 16.2761 7.27614 16.5 7 16.5C6.72386 16.5 6.5 16.2761 6.5 16V8C6.5 7.72386 6.72386 7.5 7 7.5Z" fill="#848484"/>
<path d="M10.5 8C10.5 7.72386 10.2761 7.5 10 7.5C9.72386 7.5 9.5 7.72386 9.5 8V16C9.5 16.2761 9.72386 16.5 10 16.5C10.2761 16.5 10.5 16.2761 10.5 16V8Z" fill="#848484"/>
<path d="M13 7.5C13.2761 7.5 13.5 7.72386 13.5 8V16C13.5 16.2761 13.2761 16.5 13 16.5C12.7239 16.5 12.5 16.2761 12.5 16V8C12.5 7.72386 12.7239 7.5 13 7.5Z" fill="#848484"/>
<path fill-rule="evenodd" clip-rule="evenodd" d="M7.5 4.00024V2.5C7.5 2.08666 7.61989 1.47777 7.99423 0.957848C8.38693 0.412433 9.03704 0 10 0C10.963 0 11.6131 0.412433 12.0058 0.957848C12.3801 1.47777 12.5 2.08666 12.5 2.5V4.00024H19.5C19.7761 4.00024 20 4.2241 20 4.50024C20 4.77639 19.7761 5.00024 19.5 5.00024H17V19.5002C17 19.7764 16.7761 20.0002 16.5 20.0002H3.5C3.22386 20.0002 3 19.7764 3 19.5002V5.00024H0.5C0.223858 5.00024 0 4.77639 0 4.50024C0 4.2241 0.223858 4.00024 0.5 4.00024H7.5ZM8.5 2.5C8.5 2.24668 8.58011 1.85557 8.80577 1.54215C9.01307 1.25423 9.36296 1 10 1C10.637 1 10.9869 1.25423 11.1942 1.54215C11.4199 1.85557 11.5 2.24668 11.5 2.5V4.00024H8.5V2.5ZM4 5.00024V19.0002H16V5.00024H4Z" fill="#848484"/>
</svg>
