<svg width="20" height="16" viewBox="0 0 20 16" fill="none" xmlns="http://www.w3.org/2000/svg">
<path fill-rule="evenodd" clip-rule="evenodd" d="M0.152002 8.53C-0.050667 8.20573 -0.0506674 7.79427 0.152002 7.47L4.527 0.470001C4.70974 0.17762 5.03021 0 5.375 0H18.8208C19.373 0 19.8208 0.447715 19.8208 1V15C19.8208 15.5523 19.373 16 18.8208 16H5.375C5.03021 16 4.70974 15.8224 4.527 15.53L0.152002 8.53Z" fill="white"/>
<path fill-rule="evenodd" clip-rule="evenodd" d="M5.375 1L1 8L5.375 15H18.8208V1H5.375ZM0.152001 7.47C-0.0506674 7.79427 -0.050667 8.20573 0.152002 8.53L4.527 15.53C4.70974 15.8224 5.03021 16 5.375 16H18.8208C19.373 16 19.8208 15.5523 19.8208 15V1C19.8208 0.447715 19.373 0 18.8208 0H5.375C5.03021 0 4.70974 0.17762 4.527 0.470001L0.152001 7.47Z" fill="#FF6969"/>
<path fill-rule="evenodd" clip-rule="evenodd" d="M8.28998 4.46967C8.58288 4.17678 9.05775 4.17678 9.35064 4.46967L15.3506 10.4697C15.6435 10.7626 15.6435 11.2374 15.3506 11.5303C15.0577 11.8232 14.5829 11.8232 14.29 11.5303L8.28998 5.53033C7.99709 5.23744 7.99709 4.76256 8.28998 4.46967Z" fill="#FF6969"/>
<path fill-rule="evenodd" clip-rule="evenodd" d="M15.3506 4.46967C15.6435 4.76256 15.6435 5.23744 15.3506 5.53033L9.35064 11.5303C9.05775 11.8232 8.58288 11.8232 8.28998 11.5303C7.99709 11.2374 7.99709 10.7626 8.28998 10.4697L14.29 4.46967C14.5829 4.17678 15.0577 4.17678 15.3506 4.46967Z" fill="#FF6969"/>
<path fill-rule="evenodd" clip-rule="evenodd" d="M0.152002 8.53C-0.050667 8.20573 -0.0506674 7.79427 0.152002 7.47L4.527 0.470001C4.70974 0.17762 5.03021 0 5.375 0H18.8208C19.373 0 19.8208 0.447715 19.8208 1V15C19.8208 15.5523 19.373 16 18.8208 16H5.375C5.03021 16 4.70974 15.8224 4.527 15.53L0.152002 8.53Z" fill="white"/>
<path fill-rule="evenodd" clip-rule="evenodd" d="M5.375 1L1 8L5.375 15H18.8208V1H5.375ZM0.152001 7.47C-0.0506674 7.79427 -0.050667 8.20573 0.152002 8.53L4.527 15.53C4.70974 15.8224 5.03021 16 5.375 16H18.8208C19.373 16 19.8208 15.5523 19.8208 15V1C19.8208 0.447715 19.373 0 18.8208 0H5.375C5.03021 0 4.70974 0.17762 4.527 0.470001L0.152001 7.47Z" fill="#FF6969"/>
<path fill-rule="evenodd" clip-rule="evenodd" d="M8.28998 4.46967C8.58288 4.17678 9.05775 4.17678 9.35064 4.46967L15.3506 10.4697C15.6435 10.7626 15.6435 11.2374 15.3506 11.5303C15.0577 11.8232 14.5829 11.8232 14.29 11.5303L8.28998 5.53033C7.99709 5.23744 7.99709 4.76256 8.28998 4.46967Z" fill="#FF6969"/>
<path fill-rule="evenodd" clip-rule="evenodd" d="M15.3506 4.46967C15.6435 4.76256 15.6435 5.23744 15.3506 5.53033L9.35064 11.5303C9.05775 11.8232 8.58288 11.8232 8.28998 11.5303C7.99709 11.2374 7.99709 10.7626 8.28998 10.4697L14.29 4.46967C14.5829 4.17678 15.0577 4.17678 15.3506 4.46967Z" fill="#FF6969"/>
</svg>
