<svg width="20" height="20" viewBox="0 0 20 20" fill="none" xmlns="http://www.w3.org/2000/svg">
<path fill-rule="evenodd" clip-rule="evenodd" d="M17.7433 3.67095C20.9617 7.59896 20.7377 13.4045 17.0711 17.0711C13.4045 20.7377 7.59896 20.9617 3.67095 17.7433L3.63604 17.7782L2.22183 16.364L2.25674 16.329C-0.961727 12.401 -0.737663 6.59553 2.92893 2.92893C6.59553 -0.737662 12.401 -0.961727 16.329 2.25674L16.364 2.22183L17.7782 3.63604L17.7433 3.67095ZM16.3202 5.09402C18.7627 8.23245 18.5416 12.7721 15.6569 15.6569C12.7721 18.5416 8.23245 18.7627 5.09402 16.3202L16.3202 5.09402ZM14.906 3.6798L3.6798 14.906C1.23731 11.7676 1.45842 7.22787 4.34315 4.34315C7.22787 1.45842 11.7676 1.23731 14.906 3.6798Z" fill="#FF6969"/>
</svg>
