<svg width="16" height="16" viewBox="0 0 16 16" fill="none" xmlns="http://www.w3.org/2000/svg">
<rect width="16" height="16" rx="3" fill="#F0E6E0"/>
<path d="M0 10H16V13C16 14.6569 14.6569 16 13 16H3C1.34315 16 0 14.6569 0 13V10Z" fill="#267D6E"/>
<path d="M11.3452 15.0688C11.0052 15.0688 10.6985 14.9971 10.4252 14.8538C10.1552 14.7071 9.93849 14.4921 9.77516 14.2088C9.61516 13.9254 9.53516 13.5754 9.53516 13.1588C9.53516 12.8521 9.58182 12.5788 9.67516 12.3388C9.77182 12.0988 9.90182 11.8954 10.0652 11.7287C10.2318 11.5621 10.4235 11.4354 10.6402 11.3488C10.8568 11.2621 11.0902 11.2188 11.3402 11.2188C11.6102 11.2188 11.8402 11.2687 12.0302 11.3688C12.2235 11.4654 12.3818 11.5754 12.5052 11.6988L12.0752 12.2188C11.9818 12.1321 11.8802 12.0604 11.7702 12.0038C11.6635 11.9471 11.5285 11.9187 11.3652 11.9187C11.1718 11.9187 11.0002 11.9671 10.8502 12.0638C10.7002 12.1604 10.5818 12.3004 10.4952 12.4838C10.4118 12.6638 10.3702 12.8804 10.3702 13.1337C10.3702 13.3904 10.4085 13.6121 10.4852 13.7988C10.5652 13.9821 10.6835 14.1221 10.8402 14.2188C11.0002 14.3154 11.1968 14.3637 11.4302 14.3637C11.5102 14.3637 11.5868 14.3538 11.6602 14.3338C11.7335 14.3138 11.7935 14.2854 11.8402 14.2488V13.5838H11.2152V12.9138H12.5652V14.6188C12.4385 14.7421 12.2668 14.8488 12.0502 14.9388C11.8368 15.0254 11.6018 15.0688 11.3452 15.0688Z" fill="white"/>
<path d="M6.32812 15.0002V11.2852H7.58812C7.86146 11.2852 8.10813 11.3218 8.32813 11.3952C8.55146 11.4685 8.72813 11.5918 8.85813 11.7652C8.99146 11.9385 9.05813 12.1752 9.05813 12.4752C9.05813 12.7618 8.99146 12.9985 8.85813 13.1852C8.72813 13.3685 8.55312 13.5052 8.33312 13.5952C8.11312 13.6818 7.87146 13.7252 7.60813 13.7252H7.14313V15.0002H6.32812ZM7.14313 13.0802H7.56313C7.79646 13.0802 7.97146 13.0285 8.08812 12.9252C8.20479 12.8218 8.26313 12.6718 8.26313 12.4752C8.26313 12.2752 8.20146 12.1352 8.07813 12.0552C7.95479 11.9752 7.77479 11.9352 7.53813 11.9352H7.14313V13.0802Z" fill="white"/>
<path d="M4.28375 15.0702C4.00375 15.0702 3.76708 15.0152 3.57375 14.9052C3.38375 14.7918 3.22375 14.6252 3.09375 14.4052L3.65375 13.9852C3.72042 14.1185 3.79875 14.2152 3.88875 14.2752C3.98208 14.3352 4.07708 14.3652 4.17375 14.3652C4.33042 14.3652 4.44875 14.3185 4.52875 14.2252C4.60875 14.1285 4.64875 13.9568 4.64875 13.7102V11.2852H5.46375V13.7752C5.46375 14.0118 5.42208 14.2285 5.33875 14.4252C5.25542 14.6218 5.12542 14.7785 4.94875 14.8952C4.77542 15.0118 4.55375 15.0702 4.28375 15.0702Z" fill="white"/>
<path d="M5.86667 5.5L0 10H16V7L12.2667 4L8 7.5L5.86667 5.5Z" fill="#4C9689"/>
<circle cx="4.5" cy="3.5" r="1.5" fill="#DEBA83"/>
</svg>
