<svg width="16" height="16" viewBox="0 0 16 16" fill="none" xmlns="http://www.w3.org/2000/svg">
<rect width="16" height="16" rx="3" fill="#977DFF"/>
<path d="M11.5909 15.0714C11.3943 15.0714 11.2176 15.0481 11.0609 15.0014C10.9076 14.9581 10.7693 14.8981 10.6459 14.8214C10.5259 14.7447 10.4226 14.6547 10.3359 14.5514L10.7159 14.0414C10.8259 14.1447 10.9476 14.2331 11.0809 14.3064C11.2143 14.3764 11.3576 14.4114 11.5109 14.4114C11.6343 14.4114 11.7409 14.3947 11.8309 14.3614C11.9209 14.3281 11.9909 14.2781 12.0409 14.2114C12.0909 14.1414 12.1159 14.0597 12.1159 13.9664C12.1159 13.8564 12.0876 13.7631 12.0309 13.6864C11.9776 13.6064 11.8793 13.5464 11.7359 13.5064C11.5959 13.4631 11.3943 13.4414 11.1309 13.4414V12.8614C11.3509 12.8614 11.5226 12.8397 11.6459 12.7964C11.7726 12.7531 11.8626 12.6947 11.9159 12.6214C11.9693 12.5447 11.9959 12.4581 11.9959 12.3614C11.9959 12.2314 11.9559 12.1314 11.8759 12.0614C11.7959 11.9881 11.6826 11.9514 11.5359 11.9514C11.4093 11.9514 11.2909 11.9797 11.1809 12.0364C11.0743 12.0931 10.9659 12.1731 10.8559 12.2764L10.4409 11.7764C10.6076 11.6364 10.7826 11.5247 10.9659 11.4414C11.1526 11.3581 11.3543 11.3164 11.5709 11.3164C11.8209 11.3164 12.0376 11.3547 12.2209 11.4314C12.4076 11.5081 12.5526 11.6197 12.6559 11.7664C12.7593 11.9131 12.8109 12.0914 12.8109 12.3014C12.8109 12.4914 12.7593 12.6531 12.6559 12.7864C12.5526 12.9197 12.4026 13.0281 12.2059 13.1114V13.1314C12.3426 13.1714 12.4659 13.2314 12.5759 13.3114C12.6859 13.3881 12.7726 13.4864 12.8359 13.6064C12.8993 13.7231 12.9309 13.8597 12.9309 14.0164C12.9309 14.2431 12.8693 14.4347 12.7459 14.5914C12.6226 14.7481 12.4593 14.8681 12.2559 14.9514C12.0559 15.0314 11.8343 15.0714 11.5909 15.0714Z" fill="white"/>
<path d="M7.27344 15.0002V11.2852H8.53344C8.80677 11.2852 9.05344 11.3218 9.27344 11.3952C9.49677 11.4685 9.67344 11.5918 9.80344 11.7652C9.93677 11.9385 10.0034 12.1752 10.0034 12.4752C10.0034 12.7618 9.93677 12.9985 9.80344 13.1852C9.67344 13.3685 9.49844 13.5052 9.27844 13.5952C9.05844 13.6818 8.81677 13.7252 8.55344 13.7252H8.08844V15.0002H7.27344ZM8.08844 13.0802H8.50844C8.74177 13.0802 8.91677 13.0285 9.03344 12.9252C9.1501 12.8218 9.20844 12.6718 9.20844 12.4752C9.20844 12.2752 9.14677 12.1352 9.02344 12.0552C8.9001 11.9752 8.7201 11.9352 8.48344 11.9352H8.08844V13.0802Z" fill="white"/>
<path d="M2.94531 15.0002V11.2852H3.83531L4.44531 12.9602C4.48198 13.0702 4.51865 13.1835 4.55531 13.3002C4.59198 13.4168 4.62698 13.5335 4.66031 13.6502H4.68531C4.72198 13.5335 4.75698 13.4168 4.79031 13.3002C4.82698 13.1835 4.86365 13.0702 4.90031 12.9602L5.49031 11.2852H6.38531V15.0002H5.64031V13.5902C5.64031 13.4702 5.64698 13.3368 5.66031 13.1902C5.67365 13.0402 5.68865 12.8902 5.70531 12.7402C5.72198 12.5902 5.73698 12.4552 5.75031 12.3352H5.72531L5.42031 13.2152L4.88531 14.6752H4.42531L3.89031 13.2152L3.59031 12.3352H3.57031C3.58698 12.4552 3.60198 12.5902 3.61531 12.7402C3.63198 12.8902 3.64531 13.0402 3.65531 13.1902C3.66865 13.3368 3.67531 13.4702 3.67531 13.5902V15.0002H2.94531Z" fill="white"/>
<path fill-rule="evenodd" clip-rule="evenodd" d="M8.3867 2C8.23705 2 8.11574 2.12131 8.11574 2.27096V7.69449C7.78529 7.44002 7.33072 7.28286 6.82896 7.28286C5.81885 7.28286 5 7.91975 5 8.70539C5 9.49103 5.81885 10.1279 6.82896 10.1279C7.78173 10.1279 8.56434 9.56128 8.65012 8.83764C8.65504 8.81721 8.65765 8.79587 8.65765 8.77392V8.72982C8.65783 8.7217 8.65792 8.71355 8.65792 8.70539C8.65792 8.69723 8.65783 8.68908 8.65765 8.68095V4.68017C10.1213 5.96054 10.5724 7.06003 10.9614 8.09745C11.0518 7.23942 11.0427 5.32015 10.2841 4.50728C9.6378 3.81486 8.97843 2.97498 8.65765 2.49007V2.27096C8.65765 2.12131 8.53634 2 8.3867 2Z" fill="white"/>
</svg>
