<svg width="16" height="16" viewBox="0 0 16 16" fill="none" xmlns="http://www.w3.org/2000/svg">
<rect width="16" height="16" rx="3" fill="#F0E6E0"/>
<path d="M0 10H16V13C16 14.6569 14.6569 16 13 16H3C1.34315 16 0 14.6569 0 13V10Z" fill="#7E6353"/>
<path d="M11.2944 15.0688C10.9544 15.0688 10.6477 14.9971 10.3744 14.8538C10.1044 14.7071 9.88771 14.4921 9.72438 14.2088C9.56438 13.9254 9.48438 13.5754 9.48438 13.1588C9.48438 12.8521 9.53104 12.5788 9.62438 12.3388C9.72104 12.0988 9.85104 11.8954 10.0144 11.7287C10.181 11.5621 10.3727 11.4354 10.5894 11.3488C10.806 11.2621 11.0394 11.2188 11.2894 11.2188C11.5594 11.2188 11.7894 11.2687 11.9794 11.3688C12.1727 11.4654 12.331 11.5754 12.4544 11.6988L12.0244 12.2188C11.931 12.1321 11.8294 12.0604 11.7194 12.0038C11.6127 11.9471 11.4777 11.9187 11.3144 11.9187C11.121 11.9187 10.9494 11.9671 10.7994 12.0638C10.6494 12.1604 10.531 12.3004 10.4444 12.4838C10.361 12.6638 10.3194 12.8804 10.3194 13.1337C10.3194 13.3904 10.3577 13.6121 10.4344 13.7988C10.5144 13.9821 10.6327 14.1221 10.7894 14.2188C10.9494 14.3154 11.146 14.3637 11.3794 14.3637C11.4594 14.3637 11.536 14.3538 11.6094 14.3338C11.6827 14.3138 11.7427 14.2854 11.7894 14.2488V13.5838H11.1644V12.9138H12.5144V14.6188C12.3877 14.7421 12.216 14.8488 11.9994 14.9388C11.786 15.0254 11.551 15.0688 11.2944 15.0688Z" fill="white"/>
<path d="M7.24219 15.0002L6.11719 11.2852H6.97719L7.43219 13.0352C7.49219 13.2385 7.54385 13.4368 7.58719 13.6302C7.63052 13.8235 7.68052 14.0235 7.73719 14.2302H7.76219C7.81885 14.0235 7.86885 13.8235 7.91219 13.6302C7.95552 13.4368 8.00552 13.2385 8.06219 13.0352L8.51219 11.2852H9.34219L8.21719 15.0002H7.24219Z" fill="white"/>
<path d="M4.57313 15.0688C4.32646 15.0688 4.08313 15.0238 3.84313 14.9338C3.60313 14.8404 3.38979 14.7071 3.20312 14.5338L3.66813 13.9688C3.79813 14.0888 3.94479 14.1854 4.10813 14.2588C4.27479 14.3288 4.43479 14.3637 4.58813 14.3637C4.76813 14.3637 4.90146 14.3304 4.98813 14.2638C5.07812 14.1938 5.12312 14.1021 5.12312 13.9887C5.12312 13.9054 5.09979 13.8388 5.05313 13.7888C5.00979 13.7388 4.94813 13.6937 4.86813 13.6537C4.78813 13.6137 4.69313 13.5721 4.58312 13.5288L4.09812 13.3238C3.97146 13.2704 3.84979 13.2004 3.73312 13.1137C3.61979 13.0237 3.52646 12.9138 3.45313 12.7838C3.38313 12.6504 3.34812 12.4954 3.34812 12.3188C3.34812 12.1121 3.40313 11.9254 3.51313 11.7588C3.62646 11.5921 3.78146 11.4604 3.97812 11.3637C4.17812 11.2671 4.40646 11.2188 4.66312 11.2188C4.87979 11.2188 5.09146 11.2604 5.29813 11.3438C5.50813 11.4238 5.69146 11.5438 5.84813 11.7038L5.43813 12.2137C5.31813 12.1204 5.19646 12.0488 5.07313 11.9988C4.94979 11.9454 4.81313 11.9187 4.66312 11.9187C4.51312 11.9187 4.39479 11.9504 4.30813 12.0138C4.22146 12.0737 4.17813 12.1571 4.17813 12.2638C4.17813 12.3438 4.20313 12.4104 4.25313 12.4638C4.30313 12.5138 4.36979 12.5588 4.45312 12.5988C4.53979 12.6354 4.63812 12.6754 4.74813 12.7188L5.22313 12.9138C5.37313 12.9738 5.50313 13.0504 5.61313 13.1438C5.72313 13.2338 5.80813 13.3421 5.86812 13.4688C5.92812 13.5954 5.95813 13.7471 5.95813 13.9238C5.95813 14.1304 5.90313 14.3204 5.79313 14.4938C5.68646 14.6671 5.52813 14.8071 5.31813 14.9138C5.11146 15.0171 4.86313 15.0688 4.57313 15.0688Z" fill="white"/>
<path fill-rule="evenodd" clip-rule="evenodd" d="M6.80959 2.81205C6.80959 2.64618 6.94405 2.51172 7.10992 2.51172H9.35447C9.52033 2.51172 9.6548 2.64618 9.6548 2.81205V3.74537H11.0961C11.1905 3.31188 11.5765 2.98726 12.0382 2.98726C12.5707 2.98726 13.0024 3.41895 13.0024 3.95146C13.0024 4.48398 12.5707 4.91567 12.0382 4.91567C11.5987 4.91567 11.2279 4.62164 11.1118 4.21957H10.3127C11.7631 4.97509 12.7535 6.4961 12.7535 8.24854C12.7535 8.37949 12.6474 8.48564 12.5164 8.48564C12.3855 8.48564 12.2793 8.37949 12.2793 8.24854C12.2793 6.50683 11.1878 5.02192 9.6548 4.44416V5.05659C9.6548 5.22246 9.52033 5.35692 9.35447 5.35692H7.10992C6.94405 5.35692 6.80959 5.22246 6.80959 5.05659V4.44464C5.27727 5.02276 4.18633 6.50731 4.18633 8.24854C4.18633 8.37949 4.08018 8.48564 3.94923 8.48564C3.81828 8.48564 3.71213 8.37949 3.71213 8.24854C3.71213 6.4961 4.70258 4.97509 6.15297 4.21957H5.22268C5.10653 4.62164 4.73572 4.91567 4.29624 4.91567C3.76372 4.91567 3.33203 4.48398 3.33203 3.95146C3.33203 3.41895 3.76372 2.98726 4.29624 2.98726C4.75802 2.98726 5.14398 3.31188 5.23837 3.74537H6.80959V2.81205ZM7.31967 2.97107C7.29127 2.97107 7.26825 2.9941 7.26825 3.0225V4.84806C7.26825 4.87646 7.29127 4.89949 7.31967 4.89949H9.14524C9.17364 4.89949 9.19666 4.87646 9.19666 4.84806V3.0225C9.19666 2.9941 9.17364 2.97107 9.14524 2.97107H7.31967ZM3.78735 3.94897C3.78735 4.22833 4.01381 4.45479 4.29316 4.45479C4.57252 4.45479 4.79898 4.22833 4.79898 3.94897C4.79898 3.66962 4.57252 3.44316 4.29316 3.44316C4.01381 3.44316 3.78735 3.66962 3.78735 3.94897ZM12.0418 4.45479C11.7625 4.45479 11.536 4.22833 11.536 3.94897C11.536 3.66962 11.7625 3.44316 12.0418 3.44316C12.3212 3.44316 12.5476 3.66962 12.5476 3.94897C12.5476 4.22833 12.3212 4.45479 12.0418 4.45479Z" fill="#7E6353"/>
</svg>
