<svg width="20" height="20" viewBox="0 0 20 20" fill="none" xmlns="http://www.w3.org/2000/svg">
<path d="M4.83657 11.6338L15.7441 0.730653C16.7187 -0.243551 18.2984 -0.243551 19.273 0.730654C20.2482 1.70541 20.2482 3.28622 19.273 4.26098L8.36689 15.1627L4.83657 11.6338Z" fill="#848484"/>
<path d="M3.24981 13.22L1.80053 14.6687L0.0337581 19.3187C-0.119413 19.7218 0.27544 20.1168 0.67862 19.9637L5.33085 18.1976L6.78014 16.7489L3.24981 13.22Z" fill="#848484"/>
<path d="M7 19.5C7 19.2239 7.22386 19 7.5 19H19.5C19.7761 19 20 19.2239 20 19.5C20 19.7761 19.7761 20 19.5 20H7.5C7.22386 20 7 19.7761 7 19.5Z" fill="#848484"/>
</svg>
