<svg width="18" height="18" viewBox="0 0 18 18" fill="none" xmlns="http://www.w3.org/2000/svg">
<path d="M8.71468 1.49615C8.80449 1.21976 9.19551 1.21975 9.28532 1.49615L10.8145 6.20254C10.9886 6.73817 11.4877 7.10081 12.0509 7.10081H16.9995C17.2901 7.10081 17.4109 7.4727 17.1758 7.64352L13.1723 10.5522C12.7167 10.8833 12.526 11.47 12.7001 12.0057L14.2293 16.7121C14.3191 16.9884 14.0027 17.2183 13.7676 17.0475L9.76412 14.1388C9.30849 13.8077 8.69151 13.8077 8.23588 14.1388L4.23239 17.0475C3.99728 17.2183 3.68093 16.9884 3.77074 16.7121L5.29993 12.0057C5.47397 11.47 5.28331 10.8833 4.82768 10.5522L0.824188 7.64352C0.589076 7.4727 0.709906 7.10081 1.00053 7.10081H5.94911C6.51231 7.10081 7.01145 6.73816 7.18548 6.20254L8.71468 1.49615Z" fill="#EBEBEB" stroke="#D1D1D1"/>
</svg>
