<svg width="27" height="26" viewBox="0 0 27 26" fill="none" xmlns="http://www.w3.org/2000/svg">
<mask id="path-1-inside-1_6365_18121" fill="white">
<path fill-rule="evenodd" clip-rule="evenodd" d="M13.408 23.8966C11.984 25.2035 10.0852 26.0013 8 26.0013C6.51388 26.0013 5.12241 25.5961 3.93005 24.8901C3.82873 24.8301 3.71035 24.8046 3.59378 24.8212L0.856097 25.2123C0.475328 25.2667 0.178298 24.8888 0.321148 24.5316L1.13383 22.4999C1.19332 22.3512 1.17705 22.1835 1.09596 22.0454C0.399392 20.8588 0 19.4767 0 18.0013C0 15.4737 1.17214 13.22 3.0025 11.7539C3.00084 11.8362 3 11.9186 3 12.0013C3 18.0889 7.53311 23.1179 13.408 23.8966Z"/>
</mask>
<path fill-rule="evenodd" clip-rule="evenodd" d="M13.408 23.8966C11.984 25.2035 10.0852 26.0013 8 26.0013C6.51388 26.0013 5.12241 25.5961 3.93005 24.8901C3.82873 24.8301 3.71035 24.8046 3.59378 24.8212L0.856097 25.2123C0.475328 25.2667 0.178298 24.8888 0.321148 24.5316L1.13383 22.4999C1.19332 22.3512 1.17705 22.1835 1.09596 22.0454C0.399392 20.8588 0 19.4767 0 18.0013C0 15.4737 1.17214 13.22 3.0025 11.7539C3.00084 11.8362 3 11.9186 3 12.0013C3 18.0889 7.53311 23.1179 13.408 23.8966Z" fill="#45C552"/>
<path d="M13.408 23.8966L14.0841 24.6333L15.6606 23.1864L13.5394 22.9053L13.408 23.8966ZM3.93005 24.8901L4.43952 24.0296L4.43952 24.0296L3.93005 24.8901ZM3.59378 24.8212L3.45237 23.8313L3.45236 23.8313L3.59378 24.8212ZM0.856097 25.2123L0.714676 24.2224L0.714676 24.2224L0.856097 25.2123ZM0.321148 24.5316L-0.607329 24.1602L-0.607329 24.1602L0.321148 24.5316ZM1.13383 22.4999L2.0623 22.8713L2.0623 22.8713L1.13383 22.4999ZM1.09596 22.0454L1.95835 21.5391L1.95835 21.5391L1.09596 22.0454ZM3.0025 11.7539L4.00229 11.7741L4.04551 9.63725L2.37734 10.9734L3.0025 11.7539ZM12.7318 23.1599C11.485 24.3041 9.82507 25.0013 8 25.0013V27.0013C10.3452 27.0013 12.483 26.1029 14.0841 24.6333L12.7318 23.1599ZM8 25.0013C6.69802 25.0013 5.48189 24.6468 4.43952 24.0296L3.42057 25.7506C4.76294 26.5454 6.32975 27.0013 8 27.0013V25.0013ZM4.43952 24.0296C4.15264 23.8597 3.80592 23.7808 3.45237 23.8313L3.7352 25.8112C3.61477 25.8284 3.50481 25.8004 3.42057 25.7506L4.43952 24.0296ZM3.45236 23.8313L0.714676 24.2224L0.997519 26.2023L3.7352 25.8112L3.45236 23.8313ZM0.714676 24.2224C1.09544 24.168 1.39248 24.5459 1.24962 24.903L-0.607329 24.1602C-1.03588 25.2316 -0.144784 26.3654 0.997519 26.2023L0.714676 24.2224ZM1.24962 24.903L2.0623 22.8713L0.20535 22.1286L-0.607329 24.1602L1.24962 24.903ZM2.0623 22.8713C2.24294 22.4197 2.1871 21.9288 1.95835 21.5391L0.233567 22.5516C0.166995 22.4382 0.143694 22.2827 0.205349 22.1286L2.0623 22.8713ZM1.95835 21.5391C1.34943 20.5018 1 19.2939 1 18.0013H-1C-1 19.6595 -0.550644 21.2157 0.233568 22.5516L1.95835 21.5391ZM1 18.0013C1 15.7901 2.02405 13.8189 3.62766 12.5344L2.37734 10.9734C0.320232 12.6211 -1 15.1573 -1 18.0013H1ZM2.0027 11.7337C2.0009 11.8227 2 11.9119 2 12.0013H4C4 11.9254 4.00077 11.8496 4.00229 11.7741L2.0027 11.7337ZM2 12.0013C2 18.5971 6.91115 24.0442 13.2765 24.8879L13.5394 22.9053C8.15508 22.1915 4 17.5808 4 12.0013H2Z" fill="#45C552" mask="url(#path-1-inside-1_6365_18121)"/>
<mask id="path-3-inside-2_6365_18121" fill="white">
<path fill-rule="evenodd" clip-rule="evenodd" d="M24.1182 17.2106C24.9971 15.6765 25.5 13.8992 25.5 12C25.5 6.20101 20.799 1.5 15 1.5C9.20101 1.5 4.5 6.20101 4.5 12C4.5 17.799 9.20101 22.5 15 22.5C16.9241 22.5 18.723 21.9839 20.2709 21.0835C20.7453 20.8075 21.32 20.6743 21.9104 20.7586L24.6437 21.1491L23.9536 19.4239C23.6519 18.6696 23.7486 17.8558 24.1182 17.2106ZM25.4198 17.9563C25.2605 18.2343 25.2274 18.5693 25.3464 18.8668L26.3576 21.395C26.6433 22.1092 26.0493 22.8651 25.2877 22.7563L21.6983 22.2435C21.4652 22.2102 21.2286 22.2617 21.0251 22.38C19.2544 23.4101 17.1961 24 15 24C8.37258 24 3 18.6274 3 12C3 5.37258 8.37258 0 15 0C21.6274 0 27 5.37258 27 12C27 14.1677 26.4252 16.2011 25.4198 17.9563Z"/>
</mask>
<path fill-rule="evenodd" clip-rule="evenodd" d="M24.1182 17.2106C24.9971 15.6765 25.5 13.8992 25.5 12C25.5 6.20101 20.799 1.5 15 1.5C9.20101 1.5 4.5 6.20101 4.5 12C4.5 17.799 9.20101 22.5 15 22.5C16.9241 22.5 18.723 21.9839 20.2709 21.0835C20.7453 20.8075 21.32 20.6743 21.9104 20.7586L24.6437 21.1491L23.9536 19.4239C23.6519 18.6696 23.7486 17.8558 24.1182 17.2106ZM25.4198 17.9563C25.2605 18.2343 25.2274 18.5693 25.3464 18.8668L26.3576 21.395C26.6433 22.1092 26.0493 22.8651 25.2877 22.7563L21.6983 22.2435C21.4652 22.2102 21.2286 22.2617 21.0251 22.38C19.2544 23.4101 17.1961 24 15 24C8.37258 24 3 18.6274 3 12C3 5.37258 8.37258 0 15 0C21.6274 0 27 5.37258 27 12C27 14.1677 26.4252 16.2011 25.4198 17.9563Z" fill="#45C552"/>
<path d="M24.1182 17.2106L25.4198 17.9563L25.4198 17.9563L24.1182 17.2106ZM20.2709 21.0835L19.5166 19.7869L19.5166 19.7869L20.2709 21.0835ZM21.9104 20.7586L22.1225 19.2737L22.1225 19.2737L21.9104 20.7586ZM24.6437 21.1491L24.4316 22.634L27 23.0009L26.0364 20.592L24.6437 21.1491ZM23.9536 19.4239L25.3464 18.8668L25.3464 18.8668L23.9536 19.4239ZM25.3464 18.8668L26.7391 18.3097L26.7391 18.3097L25.3464 18.8668ZM25.4198 17.9563L26.7213 18.7019L26.7213 18.7019L25.4198 17.9563ZM26.3576 21.395L24.9649 21.9521L24.9649 21.9521L26.3576 21.395ZM25.2877 22.7563L25.4999 21.2714L25.4999 21.2714L25.2877 22.7563ZM21.6983 22.2435L21.9104 20.7586L21.9104 20.7586L21.6983 22.2435ZM21.0251 22.38L20.2709 21.0835L20.2709 21.0835L21.0251 22.38ZM24 12C24 13.6308 23.5689 15.1518 22.8167 16.465L25.4198 17.9563C26.4252 16.2011 27 14.1677 27 12H24ZM15 3C19.9706 3 24 7.02944 24 12H27C27 5.37259 21.6274 4.82798e-06 15 4.82798e-06V3ZM6 12C6 7.02944 10.0294 3 15 3V4.82798e-06C8.37259 4.82798e-06 3 5.37259 3 12H6ZM15 21C10.0294 21 6 16.9706 6 12H3C3 18.6274 8.37259 24 15 24V21ZM19.5166 19.7869C18.1917 20.5576 16.6521 21 15 21V24C17.1961 24 19.2544 23.4101 21.0251 22.38L19.5166 19.7869ZM22.1225 19.2737C21.1743 19.1382 20.2614 19.3536 19.5166 19.7869L21.0251 22.38C21.2292 22.2613 21.4658 22.2103 21.6983 22.2435L22.1225 19.2737ZM24.8559 19.6642L22.1225 19.2737L21.6983 22.2435L24.4316 22.634L24.8559 19.6642ZM22.5609 19.981L23.251 21.7062L26.0364 20.592L25.3464 18.8668L22.5609 19.981ZM22.8167 16.465C22.2376 17.4759 22.0759 18.7684 22.5609 19.981L25.3464 18.8668C25.228 18.5708 25.2597 18.2357 25.4198 17.9563L22.8167 16.465ZM26.7391 18.3097C26.8028 18.4691 26.7724 18.6127 26.7213 18.7019L24.1182 17.2106C23.7486 17.8558 23.6519 18.6696 23.9536 19.4239L26.7391 18.3097ZM27.7504 20.8379L26.7391 18.3097L23.9536 19.4239L24.9649 21.9521L27.7504 20.8379ZM25.0756 24.2413C26.9794 24.5132 28.4646 22.6235 27.7504 20.8379L24.9649 21.9521C24.8221 21.5949 25.1191 21.217 25.4999 21.2714L25.0756 24.2413ZM21.4861 23.7285L25.0756 24.2413L25.4999 21.2714L21.9104 20.7586L21.4861 23.7285ZM21.7793 23.6766C21.712 23.7158 21.6103 23.7462 21.4861 23.7285L21.9104 20.7586C21.32 20.6743 20.7453 20.8075 20.2709 21.0835L21.7793 23.6766ZM15 25.5C17.4681 25.5 19.7858 24.8363 21.7793 23.6766L20.2709 21.0835C18.723 21.9839 16.9241 22.5 15 22.5V25.5ZM1.5 12C1.5 19.4558 7.54416 25.5 15 25.5V22.5C9.20101 22.5 4.5 17.799 4.5 12H1.5ZM15 -1.5C7.54416 -1.5 1.5 4.54416 1.5 12H4.5C4.5 6.20101 9.20101 1.5 15 1.5V-1.5ZM28.5 12C28.5 4.54416 22.4558 -1.5 15 -1.5V1.5C20.799 1.5 25.5 6.20101 25.5 12H28.5ZM26.7213 18.7019C27.8534 16.7258 28.5 14.4361 28.5 12H25.5C25.5 13.8992 24.9971 15.6765 24.1182 17.2106L26.7213 18.7019Z" fill="#45C552" mask="url(#path-3-inside-2_6365_18121)"/>
<path d="M10 8H20" stroke="#45C552" stroke-width="1.5" stroke-linecap="round"/>
<path d="M10 11H20" stroke="#45C552" stroke-width="1.5" stroke-linecap="round"/>
<path d="M10 14H16" stroke="#45C552" stroke-width="1.5" stroke-linecap="round"/>
</svg>
