<svg width="200" height="49" viewBox="0 0 200 49" fill="none" xmlns="http://www.w3.org/2000/svg">
<path fill-rule="evenodd" clip-rule="evenodd" d="M200 13C200 5.8203 194.18 0 187 0H142.572C137.372 0 132.672 3.09916 130.623 7.87905L122.377 27.121C120.328 31.9008 115.628 35 110.428 35H13C5.8203 35 0 40.8203 0 48V49H200V35V13ZM154.232 16.7678L162.232 24.7678C163.209 25.7441 164.791 25.7441 165.768 24.7678L173.768 16.7678C174.744 15.7915 174.744 14.2085 173.768 13.2322C172.791 12.2559 171.209 12.2559 170.232 13.2322L164 19.4645L157.768 13.2322C156.791 12.2559 155.209 12.2559 154.232 13.2322C153.256 14.2085 153.256 15.7915 154.232 16.7678Z" fill="#45C552"/>
</svg>
