<svg width="17" height="21" viewBox="0 0 17 21" fill="none" xmlns="http://www.w3.org/2000/svg">
<path d="M2 20H15C15.5523 20 16 19.5523 16 19V6.65431C16 6.3802 15.8875 6.11811 15.6887 5.92931L10.7895 1.275C10.6036 1.09844 10.3571 1 10.1007 1H2C1.44772 1 1 1.44771 1 2V19C1 19.5523 1.44772 20 2 20Z" stroke="#746E58" stroke-width="2"/>
<path fill-rule="evenodd" clip-rule="evenodd" d="M8.5 17C8.04813 17 7.68182 16.6418 7.68182 16.2L7.68182 9.64098L5.37644 11.7448C5.0461 12.0463 4.52837 12.0289 4.22005 11.7059C3.91173 11.3829 3.92958 10.8766 4.25992 10.5752L7.94174 7.21516C8.25609 6.92828 8.74391 6.92828 9.05826 7.21516L12.7401 10.5752C13.0704 10.8766 13.0883 11.3829 12.78 11.7059C12.4716 12.0289 11.9539 12.0463 11.6236 11.7448L9.31818 9.64098L9.31818 16.2C9.31818 16.6418 8.95187 17 8.5 17Z" fill="#746E58"/>
</svg>
