<svg width="498" height="50" viewBox="0 0 498 50" fill="none" xmlns="http://www.w3.org/2000/svg">
<path d="M472.705 27.4237C472.207 27.4652 471.687 27.5066 471.147 27.5481C470.649 27.5895 470.151 27.6103 469.652 27.6103V41.4162C469.652 42.3698 469.735 43.1783 469.901 43.8416C470.068 44.4635 470.338 44.9817 470.711 45.3963C471.127 45.7695 471.687 46.0389 472.394 46.2048C473.1 46.3706 473.993 46.4535 475.073 46.4535V48.3192C474.159 48.2363 473.328 48.1741 472.58 48.1326C471.833 48.0497 471.106 48.0083 470.4 48.0083C469.694 47.9668 468.967 47.9461 468.219 47.9461C467.513 47.9046 466.745 47.8839 465.914 47.8839C464.169 47.8839 462.446 47.9254 460.743 48.0083C459.081 48.0497 457.337 48.1534 455.509 48.3192V46.4535C456.714 46.4535 457.69 46.3706 458.438 46.2048C459.227 46.0389 459.85 45.7695 460.307 45.3963C460.764 44.9817 461.075 44.4635 461.241 43.8416C461.407 43.1783 461.49 42.3491 461.49 41.354V8.58041C461.49 7.58538 461.407 6.77693 461.241 6.15504C461.117 5.49169 460.826 4.97345 460.369 4.60031C459.954 4.22718 459.372 3.95769 458.624 3.79185C457.877 3.62602 456.901 3.5431 455.696 3.5431V1.67743C457.524 1.88472 459.185 2.05056 460.68 2.17494C462.217 2.29932 463.837 2.32004 465.54 2.23712L476.194 1.61523C478.063 1.73961 479.828 2.05056 481.49 2.54807C483.193 3.00413 484.667 3.68821 485.913 4.60031C487.201 5.47096 488.198 6.59036 488.904 7.95852C489.652 9.32668 490.025 10.9643 490.025 12.8715C490.025 14.6127 489.776 16.1675 489.278 17.5356C488.821 18.8623 488.156 20.0647 487.284 21.1426C486.453 22.1791 485.457 23.0912 484.294 23.8789C483.131 24.6252 481.864 25.2471 480.493 25.7446L488.966 39.6127C489.465 40.4419 490.025 41.2711 490.648 42.1003C491.272 42.888 491.957 43.6136 492.704 44.2769C493.452 44.8988 494.262 45.4171 495.134 45.8317C496.007 46.2462 496.962 46.4535 498 46.4535V48.3192C496.547 48.1534 494.947 48.0497 493.203 48.0083C491.458 47.9254 489.922 47.8839 488.592 47.8839C487.222 47.8839 485.872 47.9254 484.543 48.0083C483.214 48.0497 481.635 48.1534 479.808 48.3192V46.4535C481.054 46.4535 481.822 46.3084 482.113 46.0182C482.445 45.728 482.611 45.3549 482.611 44.8988C482.611 44.3184 482.424 43.7172 482.051 43.0953C481.718 42.432 481.386 41.8101 481.054 41.2297L472.705 27.4237ZM469.652 5.09782V24.5008C473.806 24.2935 476.755 23.2985 478.499 21.5157C480.285 19.733 481.178 16.9137 481.178 13.058C481.178 10.8192 480.784 8.995 479.995 7.58538C479.205 6.17577 478.084 5.05636 476.63 4.22717L469.652 5.09782Z" fill="#746E58"/>
<path d="M431.686 22.4502H436.546C438.498 22.4502 439.931 22.0357 440.845 21.2065C441.759 20.3773 442.278 18.7604 442.403 16.3557H444.085C444.002 17.102 443.919 17.7653 443.836 18.3458C443.794 18.8847 443.732 19.4444 443.649 20.0249C443.607 20.5638 443.566 21.1443 443.524 21.7662C443.524 22.3881 443.524 23.1343 443.524 24.005C443.524 24.8342 443.524 25.6012 443.524 26.306C443.566 27.0108 443.607 27.6949 443.649 28.3582C443.732 29.0216 443.794 29.6849 443.836 30.3483C443.919 30.9701 444.002 31.6542 444.085 32.4005H442.403C442.278 29.8715 441.759 28.1095 440.845 27.1144C439.973 26.1194 438.561 25.6219 436.608 25.6219H431.686V44.5274H440.035C445.476 44.5274 448.903 40.8997 450.315 33.6443H452.122C451.623 35.5929 451.208 37.7695 450.876 40.1741C450.585 42.5373 450.481 44.7139 450.564 46.704C450.564 47.9478 450.668 49.0464 450.876 50H449.131C448.965 49.4196 448.446 48.9013 447.574 48.4453C446.743 47.9892 445.58 47.7612 444.085 47.7612H427.761C426.058 47.7612 424.376 47.8234 422.715 47.9478C421.095 48.0307 419.371 48.1551 417.543 48.3209V46.4552C419.703 46.4138 421.24 46.0406 422.154 45.3358C423.068 44.631 423.525 43.3043 423.525 41.3557V8.58209C423.525 6.6335 423.088 5.32753 422.216 4.66418C421.386 3.95937 419.89 3.58624 417.73 3.54478V1.67911C419.558 1.8864 421.219 2.03151 422.715 2.11443C424.251 2.19734 425.871 2.2388 427.574 2.2388H442.776C444.396 2.2388 445.559 2.05224 446.265 1.67911C447.013 1.26451 447.491 0.704808 447.698 0H449.381C449.256 0.704808 449.131 1.45108 449.007 2.2388C448.924 2.98507 448.882 3.79353 448.882 4.66418C448.841 6.0738 448.903 7.56633 449.069 9.14179C449.235 10.6758 449.526 12.2305 449.941 13.806H448.197C447.781 12.0232 447.283 10.5929 446.702 9.51493C446.12 8.39552 445.414 7.5456 444.583 6.96517C443.794 6.38474 442.859 5.99088 441.78 5.78358C440.7 5.57628 439.474 5.47264 438.104 5.47264H431.686V22.4502Z" fill="#746E58"/>
<path d="M375.657 8.58267C375.657 7.58764 375.574 6.77919 375.407 6.1573C375.241 5.49395 374.93 4.97571 374.473 4.60257C374.016 4.22944 373.351 3.95995 372.479 3.79411C371.649 3.62828 370.548 3.54536 369.177 3.54536V1.67969C372.791 2.05282 376.3 2.23939 379.706 2.23939C383.154 2.23939 386.684 2.05282 390.298 1.67969V3.54536C388.844 3.54536 387.702 3.62828 386.871 3.79411C386.041 3.95995 385.397 4.22944 384.94 4.60257C384.483 4.97571 384.192 5.49395 384.068 6.1573C383.943 6.77919 383.881 7.56692 383.881 8.52048V23.4459L401.263 8.3961C401.845 7.89859 402.26 7.44253 402.51 7.02794C402.759 6.61335 402.883 6.1573 402.883 5.65978C402.883 4.99644 402.426 4.47819 401.513 4.10506C400.599 3.73192 399.415 3.54536 397.961 3.54536V1.67969C398.667 1.76261 399.436 1.84552 400.267 1.92844C401.097 2.01136 401.928 2.07355 402.759 2.11501C403.589 2.15647 404.379 2.19793 405.126 2.23939C405.874 2.23939 406.518 2.23939 407.058 2.23939C408.138 2.23939 409.28 2.21866 410.484 2.1772C411.73 2.09428 413.101 1.92844 414.596 1.67969V3.54536C413.475 3.7112 412.54 3.93922 411.793 4.22944C411.087 4.47819 410.381 4.85133 409.674 5.34884C409.01 5.80489 408.283 6.38532 407.494 7.09013C406.746 7.75348 405.812 8.6034 404.69 9.63988L391.108 21.7667L405.562 39.615C406.185 40.3613 406.871 41.149 407.618 41.9782C408.408 42.7659 409.238 43.4915 410.111 44.1548C410.983 44.8182 411.897 45.3779 412.852 45.8339C413.849 46.2485 414.887 46.4558 415.967 46.4558V48.3215C414.513 48.1556 412.914 48.052 411.17 48.0105C409.425 47.9276 407.888 47.8862 406.559 47.8862C405.189 47.8862 403.548 47.9276 401.637 48.0105C399.727 48.052 397.878 48.1556 396.092 48.3215V46.4558C397.338 46.4558 398.148 46.3314 398.522 46.0827C398.937 45.7925 399.145 45.4193 399.145 44.9633C399.145 44.5487 398.875 44.0097 398.335 43.3463C397.837 42.683 397.359 42.0818 396.902 41.5429L383.881 25.5603V41.4185C383.881 42.3721 383.964 43.1805 384.13 43.8439C384.296 44.4658 384.608 44.984 385.065 45.3986C385.521 45.7717 386.186 46.0412 387.058 46.207C387.93 46.3729 389.073 46.4558 390.485 46.4558V48.3215C388.699 48.1556 386.892 48.052 385.065 48.0105C383.237 47.9276 381.451 47.8862 379.706 47.8862C378.003 47.8862 376.238 47.9276 374.411 48.0105C372.625 48.052 370.818 48.1556 368.99 48.3215V46.4558C370.361 46.4558 371.482 46.3729 372.355 46.207C373.227 46.0412 373.891 45.7717 374.348 45.3986C374.847 44.984 375.179 44.4658 375.345 43.8439C375.553 43.1805 375.657 42.3513 375.657 41.3563V8.58267Z" fill="#746E58"/>
<path d="M326.915 13.5578V41.4185C326.915 43.3671 327.455 44.6938 328.535 45.3986C329.656 46.0619 331.484 46.4143 334.018 46.4558V48.3215C332.19 48.1556 330.508 48.052 328.971 48.0105C327.434 47.9276 325.981 47.8862 324.61 47.8862C323.281 47.8862 321.848 47.9276 320.311 48.0105C318.816 48.052 317.154 48.1556 315.327 48.3215V46.4558C317.736 46.4143 319.501 46.0619 320.622 45.3986C321.785 44.6938 322.367 43.3463 322.367 41.3563V8.58267C322.367 7.58764 322.263 6.77919 322.055 6.1573C321.889 5.49395 321.557 4.97571 321.059 4.60257C320.602 4.22944 319.979 3.95995 319.189 3.79411C318.4 3.62828 317.403 3.54536 316.199 3.54536V1.67969C317.736 1.84552 319.314 1.99063 320.934 2.11501C322.554 2.19793 324.195 2.23939 325.856 2.23939H327.787L354.64 33.2095V8.52048C354.64 6.57189 354.079 5.26592 352.958 4.60257C351.878 3.93922 350.092 3.58682 347.6 3.54536V1.67969C351.13 2.05282 354.246 2.23939 356.945 2.23939C358.316 2.23939 359.749 2.19793 361.244 2.11501C362.781 2.03209 364.443 1.88698 366.229 1.67969V3.54536C363.82 3.58682 362.034 3.95995 360.871 4.66476C359.749 5.32811 359.188 6.63408 359.188 8.58267V48.7568H357.132L326.915 13.5578Z" fill="#746E58"/>
<path d="M297.777 8.58267C297.777 7.58764 297.694 6.77919 297.528 6.1573C297.362 5.49395 297.05 4.97571 296.594 4.60257C296.137 4.22944 295.472 3.95995 294.6 3.79411C293.769 3.62828 292.668 3.54536 291.298 3.54536V1.67969C294.911 2.05282 298.421 2.23939 301.827 2.23939C305.274 2.23939 308.805 2.05282 312.419 1.67969V3.54536C310.965 3.54536 309.823 3.62828 308.992 3.79411C308.161 3.95995 307.517 4.22944 307.061 4.60257C306.604 4.97571 306.313 5.49395 306.188 6.1573C306.064 6.77919 306.001 7.56692 306.001 8.52048V41.4185C306.001 42.3721 306.084 43.1805 306.251 43.8439C306.417 44.4658 306.728 44.984 307.185 45.3986C307.642 45.7717 308.307 46.0412 309.179 46.207C310.051 46.3729 311.193 46.4558 312.606 46.4558V48.3215C310.82 48.1556 309.013 48.052 307.185 48.0105C305.358 47.9276 303.572 47.8862 301.827 47.8862C300.124 47.8862 298.359 47.9276 296.531 48.0105C294.745 48.052 292.938 48.1556 291.111 48.3215V46.4558C292.482 46.4558 293.603 46.3729 294.475 46.207C295.347 46.0412 296.012 45.7717 296.469 45.3986C296.967 44.984 297.3 44.4658 297.466 43.8439C297.673 43.1805 297.777 42.3513 297.777 41.3563V8.58267Z" fill="#746E58"/>
<path d="M268.626 44.2792H276.726C279.758 44.2792 282.063 43.3049 283.641 41.3563C285.261 39.4077 286.424 36.4226 287.13 32.4011H288.875C288.418 34.3497 288.003 36.4226 287.629 38.62C287.297 40.7759 287.151 42.8488 287.193 44.8389C287.193 45.4608 287.234 46.2485 287.317 47.2021C287.442 48.1142 287.608 49.047 287.816 50.0006H286.071C285.905 49.2543 285.427 48.6946 284.638 48.3215C283.849 47.9483 282.603 47.7618 280.9 47.7618H264.701C262.998 47.7618 261.316 47.824 259.655 47.9483C258.035 48.0313 256.311 48.1556 254.483 48.3215V46.4558C256.643 46.4143 258.18 46.0412 259.094 45.3364C260.008 44.6316 260.465 43.3049 260.465 41.3563V8.58267C260.465 6.63408 260.028 5.32811 259.156 4.66476C258.325 3.95995 256.83 3.58682 254.67 3.54536V1.67969C256.498 1.88698 258.159 2.03209 259.655 2.11501C261.191 2.19793 262.791 2.23939 264.452 2.23939C267.899 2.23939 271.43 2.05282 275.044 1.67969V3.54536C273.631 3.54536 272.489 3.62828 271.617 3.79411C270.786 3.95995 270.142 4.22944 269.685 4.60257C269.27 4.97571 268.979 5.49395 268.813 6.1573C268.689 6.77919 268.626 7.56692 268.626 8.52048V44.2792Z" fill="#746E58"/>
<path d="M228.309 22.5742H249.741V28.9175H228.309V22.5742Z" fill="#746E58"/>
<path d="M184.176 13.5578V41.4185C184.176 43.3671 184.716 44.6938 185.796 45.3986C186.918 46.0619 188.745 46.4143 191.279 46.4558V48.3215C189.451 48.1556 187.769 48.052 186.232 48.0105C184.696 47.9276 183.242 47.8862 181.871 47.8862C180.542 47.8862 179.109 47.9276 177.572 48.0105C176.077 48.052 174.415 48.1556 172.588 48.3215V46.4558C174.997 46.4143 176.762 46.0619 177.884 45.3986C179.047 44.6938 179.628 43.3463 179.628 41.3563V8.58267C179.628 7.58764 179.524 6.77919 179.317 6.1573C179.151 5.49395 178.818 4.97571 178.32 4.60257C177.863 4.22944 177.24 3.95995 176.451 3.79411C175.662 3.62828 174.665 3.54536 173.46 3.54536V1.67969C174.997 1.84552 176.575 1.99063 178.195 2.11501C179.815 2.19793 181.456 2.23939 183.117 2.23939H185.049L211.901 33.2095V8.52048C211.901 6.57189 211.341 5.26592 210.219 4.60257C209.139 3.93922 207.353 3.58682 204.861 3.54536V1.67969C208.392 2.05282 211.507 2.23939 214.207 2.23939C215.577 2.23939 217.01 2.19793 218.506 2.11501C220.042 2.03209 221.704 1.88698 223.49 1.67969V3.54536C221.081 3.58682 219.295 3.95995 218.132 4.66476C217.01 5.32811 216.45 6.63408 216.45 8.58267V48.7568H214.394L184.176 13.5578Z" fill="#746E58"/>
<path d="M155.039 8.58267C155.039 7.58764 154.956 6.77919 154.79 6.1573C154.624 5.49395 154.312 4.97571 153.855 4.60257C153.398 4.22944 152.734 3.95995 151.862 3.79411C151.031 3.62828 149.93 3.54536 148.559 3.54536V1.67969C152.173 2.05282 155.683 2.23939 159.089 2.23939C162.536 2.23939 166.067 2.05282 169.68 1.67969V3.54536C168.227 3.54536 167.084 3.62828 166.254 3.79411C165.423 3.95995 164.779 4.22944 164.322 4.60257C163.865 4.97571 163.575 5.49395 163.45 6.1573C163.325 6.77919 163.263 7.56692 163.263 8.52048V41.4185C163.263 42.3721 163.346 43.1805 163.512 43.8439C163.678 44.4658 163.99 44.984 164.447 45.3986C164.904 45.7717 165.568 46.0412 166.441 46.207C167.313 46.3729 168.455 46.4558 169.867 46.4558V48.3215C168.081 48.1556 166.274 48.052 164.447 48.0105C162.619 47.9276 160.833 47.8862 159.089 47.8862C157.386 47.8862 155.621 47.9276 153.793 48.0105C152.007 48.052 150.2 48.1556 148.373 48.3215V46.4558C149.743 46.4558 150.865 46.3729 151.737 46.207C152.609 46.0412 153.274 45.7717 153.731 45.3986C154.229 44.984 154.561 44.4658 154.728 43.8439C154.935 43.1805 155.039 42.3513 155.039 41.3563V8.58267Z" fill="#746E58"/>
<path d="M121.219 0.62207L138.975 41.3559C139.764 43.1801 140.886 44.4861 142.339 45.2738C143.793 46.0615 145.579 46.4554 147.698 46.4554V48.3211C145.87 48.1552 144.042 48.0516 142.215 48.0101C140.387 47.9272 138.622 47.8857 136.919 47.8857C135.175 47.8857 133.409 47.9272 131.623 48.0101C129.879 48.0516 128.114 48.1552 126.327 48.3211V46.4554C128.114 46.4139 129.339 46.2481 130.003 45.9579C130.709 45.6677 131.063 45.1909 131.063 44.5275C131.063 44.0715 130.959 43.6154 130.751 43.1594C130.585 42.6619 130.398 42.0814 130.19 41.4181L127.137 33.7688H111.686L108.82 41.3559C108.488 42.268 108.322 43.035 108.322 43.6569C108.322 44.6105 108.82 45.3153 109.817 45.7713C110.814 46.2274 112.496 46.4554 114.864 46.4554V48.3211C113.078 48.1552 111.437 48.0516 109.942 48.0101C108.446 47.9272 107.013 47.8857 105.643 47.8857C104.314 47.8857 102.922 47.9272 101.468 48.0101C100.015 48.0516 98.374 48.1552 96.5464 48.3211V46.4554C97.7509 46.4554 98.7685 46.3725 99.5993 46.2066C100.472 45.9993 101.219 45.6884 101.842 45.2738C102.465 44.8592 103.005 44.341 103.462 43.7191C103.919 43.0557 104.334 42.268 104.708 41.3559L121.219 0.62207ZM112.995 30.2862H125.767L119.225 13.8062L112.995 30.2862Z" fill="#746E58"/>
<path d="M81.0127 25.8712H59.8295V41.4185C59.8295 42.3721 59.9126 43.1805 60.0787 43.8439C60.2449 44.4658 60.5564 44.984 61.0133 45.3986C61.4702 45.7717 62.1347 46.0412 63.007 46.207C63.8792 46.3729 65.0215 46.4558 66.4337 46.4558V48.3215C64.6477 48.1556 62.8409 48.052 61.0133 48.0105C59.1857 47.9276 57.3997 47.8862 55.6552 47.8862C53.9522 47.8862 52.1869 47.9276 50.3594 48.0105C48.5733 48.052 46.7665 48.1556 44.939 48.3215V46.4558C46.3096 46.4558 47.4311 46.3729 48.3034 46.207C49.1756 46.0412 49.8402 45.7717 50.2971 45.3986C50.7955 44.984 51.1278 44.4658 51.2939 43.8439C51.5016 43.1805 51.6054 42.3513 51.6054 41.3563V8.58267C51.6054 7.58764 51.5224 6.77919 51.3562 6.1573C51.1901 5.49395 50.8786 4.97571 50.4217 4.60257C49.9648 4.22944 49.3002 3.95995 48.428 3.79411C47.5972 3.62828 46.4966 3.54536 45.1259 3.54536V1.67969C48.7395 2.05282 52.2493 2.23939 55.6552 2.23939C59.1026 2.23939 62.6332 2.05282 66.2468 1.67969V3.54536C64.793 3.54536 63.6508 3.62828 62.8201 3.79411C61.9894 3.95995 61.3456 4.22944 60.8887 4.60257C60.4318 4.97571 60.141 5.49395 60.0164 6.1573C59.8918 6.77919 59.8295 7.56692 59.8295 8.52048V22.0777H81.0127V8.58267C81.0127 7.58764 80.9296 6.77919 80.7635 6.1573C80.5974 5.49395 80.2858 4.97571 79.8289 4.60257C79.3721 4.22944 78.7075 3.95995 77.8352 3.79411C77.0045 3.62828 75.9038 3.54536 74.5331 3.54536V1.67969C78.1468 2.05282 81.6565 2.23939 85.0624 2.23939C88.5099 2.23939 92.0404 2.05282 95.6541 1.67969V3.54536C94.2003 3.54536 93.0373 3.62828 92.1651 3.79411C91.3343 3.95995 90.6905 4.22944 90.2336 4.60257C89.8183 4.97571 89.5275 5.49395 89.3614 6.1573C89.2368 6.77919 89.1745 7.56692 89.1745 8.52048V41.4185C89.1745 42.3721 89.2576 43.1805 89.4237 43.8439C89.5898 44.4658 89.9014 44.984 90.3582 45.3986C90.8567 45.7717 91.542 46.0412 92.4143 46.207C93.2865 46.3729 94.4287 46.4558 95.841 46.4558V48.3215C94.0549 48.1556 92.2274 48.052 90.3582 48.0105C88.5307 47.9276 86.7654 47.8862 85.0624 47.8862C83.3179 47.8862 81.5527 47.9276 79.7666 48.0105C77.9806 48.052 76.1738 48.1556 74.3462 48.3215V46.4558C75.7169 46.4558 76.8384 46.3729 77.7106 46.207C78.5829 46.0412 79.2474 45.7717 79.7043 45.3986C80.2028 44.984 80.5351 44.4658 80.7012 43.8439C80.9089 43.1805 81.0127 42.3513 81.0127 41.3563V25.8712Z" fill="#746E58"/>
<path d="M24.4853 44.7134C25.8975 44.7134 27.289 44.5476 28.6596 44.2159C30.0303 43.8428 31.3595 43.2416 32.6471 42.4124C33.9762 41.5833 35.2638 40.4639 36.5099 39.0542C37.7975 37.6446 39.0436 35.8826 40.2481 33.7682L42.0549 34.701C41.4319 35.5717 40.8919 36.5459 40.435 37.6239C39.9781 38.6604 39.5628 39.759 39.1889 40.9199C38.8566 42.0393 38.5867 43.2002 38.379 44.4025C38.1713 45.5634 38.0052 46.6828 37.8806 47.7607C37.0914 47.1803 36.3645 46.7864 35.6999 46.5791C35.0354 46.3304 34.2877 46.206 33.457 46.206C32.4186 46.206 31.4218 46.3511 30.4664 46.6413C29.5111 46.8901 28.535 47.1803 27.5382 47.5119C26.5413 47.8022 25.5237 48.0924 24.4853 48.3826C23.4469 48.6314 22.3254 48.7557 21.1209 48.7557C18.4211 48.7557 15.8043 48.3204 13.2707 47.4498C10.737 46.5377 8.49405 45.1695 6.54187 43.3453C4.58969 41.4796 3.01134 39.1579 1.8068 36.3801C0.602268 33.6023 0 30.3478 0 26.6164C0 23.3826 0.415357 20.5426 1.24607 18.0965C2.11832 15.6504 3.19825 13.5567 4.48586 11.8154C5.815 10.0741 7.26875 8.64379 8.8471 7.52439C10.4255 6.40499 11.9623 5.53434 13.4576 4.91245L16.9466 3.4821C18.1926 2.94313 19.4387 2.46635 20.6848 2.05175C21.9724 1.5957 23.2808 1.36767 24.6099 1.36767C26.8528 1.36767 28.8258 1.57497 30.5287 1.98957C32.2317 2.3627 33.5816 2.77729 34.5785 3.23335C35.0769 3.10897 35.5338 2.81875 35.9492 2.3627C36.3645 1.86519 36.6345 1.30548 36.7591 0.683594H38.6282C38.4205 1.51278 38.2751 2.38343 38.1921 3.29553C38.1505 4.20764 38.1298 5.05756 38.1298 5.84529C38.1298 8.62306 38.6282 11.774 39.6251 15.298H37.6936C36.1153 11.774 33.9554 9.22423 31.2141 7.64877C28.5143 6.07331 25.3368 5.28558 21.6816 5.28558C20.6848 5.28558 19.5633 5.40996 18.3172 5.65872C17.1127 5.90748 15.8459 6.32207 14.5167 6.9025C12.6892 8.76817 11.2562 11.0899 10.2178 13.8677C9.17939 16.604 8.66019 20.1073 8.66019 24.3776C8.66019 27.3627 9.03401 30.099 9.78166 32.5866C10.5708 35.0741 11.6508 37.23 13.0214 39.0542C14.3921 40.837 16.0535 42.2259 18.0057 43.2209C19.9579 44.2159 22.1178 44.7134 24.4853 44.7134Z" fill="#746E58"/>
</svg>
