<svg width="429" height="98" viewBox="0 0 429 98" fill="none" xmlns="http://www.w3.org/2000/svg">
<path d="M42.4972 97.68C33.5372 97.68 25.8839 95.6267 19.5372 91.52C13.2839 87.32 8.47719 81.58 5.11719 74.3C1.85053 67.02 0.217194 58.62 0.217194 49.1C0.217194 39.3933 1.99053 30.9467 5.53719 23.76C9.17719 16.48 14.2639 10.8333 20.7972 6.82C27.3305 2.80666 34.9839 0.799999 43.7572 0.799999C51.5972 0.799999 58.6439 2.62 64.8972 6.26C71.2439 9.89999 76.0505 15.1267 79.3172 21.94L67.6972 26.14C65.6439 21.94 62.5172 18.5333 58.3172 15.92C54.2105 13.2133 49.1239 11.86 43.0572 11.86C37.5505 11.86 32.5572 13.26 28.0772 16.06C23.6905 18.86 20.1905 23.06 17.5772 28.66C14.9639 34.1667 13.6572 40.98 13.6572 49.1C13.6572 56.94 14.8705 63.66 17.2972 69.26C19.8172 74.86 23.2705 79.1533 27.6572 82.14C32.1372 85.1267 37.2705 86.62 43.0572 86.62C46.1372 86.62 49.3105 86.2467 52.5772 85.5C55.8439 84.7533 58.8305 83.4933 61.5372 81.72C64.2439 79.8533 66.4372 77.3333 68.1172 74.16C69.7972 70.9867 70.6372 66.9733 70.6372 62.12V59.04H43.3372V47.7H83.0972V96H75.5372L72.0372 84.24C69.0505 89 64.9439 92.4533 59.7172 94.6C54.5839 96.6533 48.8439 97.68 42.4972 97.68ZM129.992 96C125.605 96 122.198 95.58 119.772 94.74C117.438 93.8067 115.805 92.08 114.872 89.56C114.032 87.04 113.612 83.4 113.612 78.64V2.61999H125.372V76.68C125.372 80.2267 125.745 82.6067 126.492 83.82C127.238 85.0333 129.245 85.64 132.512 85.64H135.172V96H129.992ZM187.848 97.68C180.568 97.68 174.408 96.0933 169.368 92.92C164.328 89.6533 160.454 85.3133 157.748 79.9C155.134 74.3933 153.828 68.2333 153.828 61.42C153.828 54.0467 155.321 47.7 158.308 42.38C161.294 36.9667 165.308 32.8133 170.348 29.92C175.481 26.9333 181.221 25.44 187.568 25.44C193.074 25.44 197.928 26.56 202.128 28.8C206.328 30.9467 209.781 33.8867 212.488 37.62C215.288 41.26 217.294 45.4133 218.508 50.08C219.814 54.7467 220.281 59.5533 219.908 64.5H166.428C166.614 70.2867 167.874 74.86 170.208 78.22C172.634 81.58 175.481 83.96 178.748 85.36C182.014 86.6667 185.048 87.32 187.848 87.32C191.768 87.32 195.034 86.7133 197.648 85.5C200.354 84.1933 202.501 82.5133 204.088 80.46L215.428 83.82C212.908 87.8333 209.314 91.1467 204.648 93.76C199.981 96.3733 194.381 97.68 187.848 97.68ZM166.568 55.12H207.448C207.448 51.8533 206.608 48.7267 204.928 45.74C203.341 42.7533 201.054 40.3267 198.068 38.46C195.174 36.5 191.674 35.52 187.568 35.52C184.114 35.52 180.848 36.1733 177.768 37.48C174.688 38.7867 172.121 40.8867 170.068 43.78C168.108 46.6733 166.941 50.4533 166.568 55.12ZM264.437 97.68C260.05 97.68 256.037 96.8867 252.397 95.3C248.757 93.7133 245.863 91.4267 243.717 88.44C241.57 85.4533 240.497 81.86 240.497 77.66C240.497 72.1533 242.41 67.8133 246.237 64.64C250.157 61.4667 255.617 59.04 262.617 57.36C269.71 55.5867 277.97 54.1867 287.397 53.16C287.583 47.28 286.417 42.7533 283.897 39.58C281.377 36.4067 277.317 34.82 271.717 34.82C267.517 34.82 264.063 35.8 261.357 37.76C258.743 39.6267 257.063 42.24 256.317 45.6L244.977 42.24C246.843 36.92 250.157 32.8133 254.917 29.92C259.77 26.9333 265.323 25.44 271.577 25.44C281.19 25.44 288.19 27.7267 292.577 32.3C297.057 36.78 299.297 43.8733 299.297 53.58V69.82C299.297 75.6067 299.53 80.6 299.997 84.8C300.463 89 301.023 92.7333 301.677 96H290.897L288.097 86.48C286.043 89.9333 283.103 92.6867 279.277 94.74C275.45 96.7 270.503 97.68 264.437 97.68ZM266.957 88.3C270.597 88.3 274.05 87.6467 277.317 86.34C280.583 85.0333 283.243 82.84 285.297 79.76C287.35 76.5867 288.377 72.2933 288.377 66.88V62.54C281.283 63.2867 275.123 64.22 269.897 65.34C264.67 66.3667 260.61 67.86 257.717 69.82C254.917 71.6867 253.517 74.2067 253.517 77.38C253.517 80.6467 254.683 83.3067 257.017 85.36C259.443 87.32 262.757 88.3 266.957 88.3ZM329.868 96V26.56H338.548L341.628 37.06C343.588 33.7933 346.248 31.04 349.608 28.8C353.061 26.56 357.355 25.44 362.488 25.44C367.808 25.44 372.101 26.5133 375.368 28.66C378.635 30.8067 381.015 33.7933 382.508 37.62C385.308 33.3267 388.668 30.2467 392.588 28.38C396.601 26.42 401.035 25.44 405.888 25.44C413.915 25.44 419.655 27.9133 423.108 32.86C426.561 37.7133 428.288 44.1067 428.288 52.04V96H416.528V55.54C416.528 51.9933 416.155 48.7267 415.408 45.74C414.755 42.66 413.355 40.1867 411.208 38.32C409.155 36.4533 405.981 35.52 401.688 35.52C396.648 35.52 392.588 37.48 389.508 41.4C386.521 45.2267 385.028 50.8733 385.028 58.34V96H373.268V55.54C373.268 51.9933 372.895 48.7267 372.148 45.74C371.495 42.66 370.095 40.1867 367.948 38.32C365.895 36.4533 362.721 35.52 358.428 35.52C353.388 35.52 349.328 37.48 346.248 41.4C343.168 45.2267 341.628 50.8733 341.628 58.34V96H329.868Z" fill="#45C552"/>
</svg>
