<svg width="488" height="52" viewBox="0 0 488 52" fill="none" xmlns="http://www.w3.org/2000/svg">
<path d="M39.1228 6.72C39.1228 7.41333 38.8828 8.05333 38.4028 8.64C37.9762 9.17333 37.4695 9.57333 36.8828 9.84C35.5495 8.88 33.9228 7.97333 32.0028 7.12C30.1362 6.26666 27.7095 5.84 24.7228 5.84C21.4695 5.84 18.5362 6.58666 15.9228 8.08C13.3628 9.57333 11.3095 11.8133 9.76282 14.8C8.26949 17.7333 7.52282 21.3867 7.52282 25.76C7.52282 32.32 9.12282 37.2533 12.3228 40.56C15.5762 43.8667 19.7895 45.52 24.9628 45.52C27.7362 45.52 30.1628 45.12 32.2428 44.32C34.3228 43.52 36.0295 42.6133 37.3628 41.6C37.8962 41.8133 38.4028 42.2133 38.8828 42.8C39.3628 43.3333 39.6028 43.9733 39.6028 44.72C39.6028 45.2533 39.4428 45.7867 39.1228 46.32C38.8562 46.8 38.3762 47.28 37.6828 47.76C36.4562 48.6133 34.7762 49.36 32.6428 50C30.5095 50.6933 27.7895 51.04 24.4828 51.04C20.0562 51.04 16.0295 50.1067 12.4028 48.24C8.82949 46.32 6.00282 43.4933 3.92282 39.76C1.84282 36.0267 0.802819 31.36 0.802819 25.76C0.802819 20.16 1.86949 15.4667 4.00282 11.68C6.18949 7.89333 9.04282 5.06667 12.5628 3.2C16.1362 1.28 20.0295 0.319996 24.2428 0.319996C27.1762 0.319996 29.7628 0.639997 32.0028 1.28C34.2428 1.92 35.9762 2.74667 37.2028 3.76C38.4828 4.72 39.1228 5.70667 39.1228 6.72ZM51.4341 21.04H57.9941V49.84C57.6741 49.9467 57.2474 50.0533 56.7141 50.16C56.1807 50.32 55.5941 50.4 54.9541 50.4C53.7807 50.4 52.9007 50.16 52.3141 49.68C51.7274 49.2 51.4341 48.4533 51.4341 47.44V21.04ZM57.9941 26.4H51.4341V1.52C51.7007 1.41333 52.1007 1.30666 52.6341 1.2C53.2207 1.04 53.8341 0.959997 54.4741 0.959997C55.6474 0.959997 56.5274 1.2 57.1141 1.68C57.7007 2.10666 57.9941 2.85333 57.9941 3.92V26.4ZM82.9541 21.04H89.5141V49.84C89.1941 49.9467 88.7674 50.0533 88.2341 50.16C87.7007 50.32 87.1141 50.4 86.4741 50.4C85.3007 50.4 84.4207 50.16 83.8341 49.68C83.2474 49.2 82.9541 48.4533 82.9541 47.44V21.04ZM89.5141 26.4H82.9541V1.52C83.2207 1.41333 83.6207 1.30666 84.1541 1.2C84.7407 1.04 85.3541 0.959997 85.9941 0.959997C87.1674 0.959997 88.0474 1.2 88.6341 1.68C89.2207 2.10666 89.5141 2.85333 89.5141 3.92V26.4ZM86.3941 28.08H55.3541V22.64H86.3941V28.08ZM121.298 6.4H120.978C120.178 8.64 119.218 11.3067 118.098 14.4C117.031 17.4933 115.911 20.6933 114.738 24C113.618 27.2533 112.551 30.2933 111.538 33.12L111.138 34.32C110.818 35.28 110.418 36.48 109.938 37.92C109.458 39.36 108.951 40.88 108.418 42.48C107.884 44.0267 107.378 45.4933 106.898 46.88C106.418 48.2133 106.044 49.3067 105.778 50.16C105.404 50.32 105.004 50.4267 104.578 50.48C104.204 50.5867 103.724 50.64 103.138 50.64C102.284 50.64 101.511 50.4267 100.818 50C100.178 49.52 99.8578 48.7733 99.8578 47.76C99.8578 47.28 99.9378 46.8 100.098 46.32C100.258 45.7867 100.444 45.2267 100.658 44.64C101.298 42.8267 102.071 40.6133 102.978 38C103.938 35.3867 104.978 32.5333 106.098 29.44C107.218 26.3467 108.391 23.1733 109.618 19.92C110.844 16.6667 112.044 13.4933 113.218 10.4C114.391 7.30666 115.484 4.48 116.498 1.92C116.924 1.70667 117.564 1.49333 118.418 1.28C119.271 1.06666 120.151 0.959997 121.058 0.959997C122.124 0.959997 123.138 1.12 124.098 1.44C125.111 1.76 125.751 2.29333 126.018 3.04C127.298 6.13333 128.658 9.65333 130.098 13.6C131.591 17.4933 133.084 21.5733 134.578 25.84C136.071 30.0533 137.484 34.16 138.818 38.16C140.204 42.16 141.431 45.7867 142.498 49.04C142.124 49.52 141.618 49.8933 140.978 50.16C140.391 50.48 139.724 50.64 138.978 50.64C137.964 50.64 137.191 50.4267 136.658 50C136.124 49.52 135.671 48.7467 135.298 47.68L130.898 34.64L130.258 32.4C129.191 29.1467 128.071 25.8667 126.898 22.56C125.778 19.2533 124.711 16.1867 123.698 13.36C122.738 10.5333 121.938 8.21333 121.298 6.4ZM108.018 37.04L110.098 31.68H132.418L133.698 37.04H108.018ZM152.802 20.96H159.282V49.84C159.015 49.9467 158.615 50.0533 158.082 50.16C157.548 50.32 156.962 50.4 156.322 50.4C155.148 50.4 154.268 50.16 153.682 49.68C153.095 49.2 152.802 48.4533 152.802 47.44V20.96ZM159.282 26.32H152.802V1.52C153.068 1.41333 153.468 1.30666 154.002 1.2C154.588 1.04 155.202 0.959997 155.842 0.959997C157.015 0.959997 157.868 1.2 158.402 1.68C158.988 2.10666 159.282 2.85333 159.282 3.92V26.32ZM174.459 6.88L179.899 6.4C180.112 8.05333 180.299 10 180.459 12.24C180.619 14.48 180.726 16.8 180.779 19.2C180.886 21.5467 180.939 23.7867 180.939 25.92V49.84C180.672 49.9467 180.246 50.0533 179.659 50.16C179.126 50.32 178.566 50.4 177.979 50.4C176.806 50.4 175.926 50.1867 175.339 49.76C174.752 49.28 174.459 48.5333 174.459 47.52V6.88ZM213.019 44.48L207.499 44.96C206.966 40.48 206.646 35.92 206.539 31.28C206.486 26.5867 206.459 22.0533 206.459 17.68V1.52C206.779 1.41333 207.206 1.30666 207.739 1.2C208.272 1.04 208.859 0.959997 209.499 0.959997C210.672 0.959997 211.552 1.2 212.139 1.68C212.726 2.10666 213.019 2.82667 213.019 3.84V44.48ZM213.019 42.08V41.76V49.12C212.539 49.4933 211.926 49.8133 211.179 50.08C210.432 50.3467 209.606 50.48 208.699 50.48C207.419 50.48 206.326 50.24 205.419 49.76C204.512 49.2267 203.686 48.2933 202.939 46.96L187.739 21.36C186.939 19.92 186.059 18.3467 185.099 16.64C184.139 14.88 183.232 13.2267 182.379 11.68C181.526 10.08 180.859 8.77333 180.379 7.76L174.459 9.28V2.32C174.886 1.89333 175.472 1.54666 176.219 1.28C177.019 1.01333 177.872 0.879998 178.779 0.879998C180.059 0.879998 181.152 1.14666 182.059 1.68C182.966 2.16 183.792 3.06666 184.539 4.4L199.819 30C200.672 31.44 201.552 33.04 202.459 34.8C203.419 36.5067 204.299 38.16 205.099 39.76C205.899 41.3067 206.539 42.5867 207.019 43.6L213.019 42.08ZM244.887 21.6H251.447V49.36L248.407 50C247.394 50 246.541 49.68 245.847 49.04C245.207 48.3467 244.887 47.4933 244.887 46.48V21.6ZM248.407 50V44.4H274.407C274.674 44.6133 274.887 44.96 275.047 45.44C275.207 45.92 275.287 46.4533 275.287 47.04C275.287 47.9467 275.047 48.6667 274.567 49.2C274.087 49.7333 273.447 50 272.647 50H248.407ZM251.447 26.4H244.887V1.52C245.154 1.41333 245.554 1.30666 246.087 1.2C246.674 1.04 247.287 0.959997 247.927 0.959997C249.101 0.959997 249.981 1.2 250.567 1.68C251.154 2.10666 251.447 2.85333 251.447 3.92V26.4ZM285.845 20.96H292.325V49.84C292.059 49.9467 291.659 50.0533 291.125 50.16C290.592 50.32 290.005 50.4 289.365 50.4C288.192 50.4 287.312 50.16 286.725 49.68C286.139 49.2 285.845 48.4533 285.845 47.44V20.96ZM292.325 26.32H285.845V1.52C286.112 1.41333 286.512 1.30666 287.045 1.2C287.632 1.04 288.245 0.959997 288.885 0.959997C290.059 0.959997 290.912 1.2 291.445 1.68C292.032 2.10666 292.325 2.85333 292.325 3.92V26.32ZM307.503 6.88L312.943 6.4C313.156 8.05333 313.343 10 313.503 12.24C313.663 14.48 313.769 16.8 313.823 19.2C313.929 21.5467 313.983 23.7867 313.983 25.92V49.84C313.716 49.9467 313.289 50.0533 312.703 50.16C312.169 50.32 311.609 50.4 311.023 50.4C309.849 50.4 308.969 50.1867 308.383 49.76C307.796 49.28 307.503 48.5333 307.503 47.52V6.88ZM346.063 44.48L340.543 44.96C340.009 40.48 339.689 35.92 339.583 31.28C339.529 26.5867 339.503 22.0533 339.503 17.68V1.52C339.823 1.41333 340.249 1.30666 340.783 1.2C341.316 1.04 341.903 0.959997 342.543 0.959997C343.716 0.959997 344.596 1.2 345.183 1.68C345.769 2.10666 346.063 2.82667 346.063 3.84V44.48ZM346.063 42.08V41.76V49.12C345.583 49.4933 344.969 49.8133 344.223 50.08C343.476 50.3467 342.649 50.48 341.743 50.48C340.463 50.48 339.369 50.24 338.463 49.76C337.556 49.2267 336.729 48.2933 335.983 46.96L320.783 21.36C319.983 19.92 319.103 18.3467 318.143 16.64C317.183 14.88 316.276 13.2267 315.423 11.68C314.569 10.08 313.903 8.77333 313.423 7.76L307.503 9.28V2.32C307.929 1.89333 308.516 1.54666 309.263 1.28C310.063 1.01333 310.916 0.879998 311.823 0.879998C313.103 0.879998 314.196 1.14666 315.103 1.68C316.009 2.16 316.836 3.06666 317.583 4.4L332.863 30C333.716 31.44 334.596 33.04 335.503 34.8C336.463 36.5067 337.343 38.16 338.143 39.76C338.943 41.3067 339.583 42.5867 340.063 43.6L346.063 42.08ZM366.155 25.2L371.195 22C376.849 27.44 381.702 32.2933 385.755 36.56C389.862 40.8267 393.329 44.24 396.155 46.8C396.102 47.9733 395.755 48.9067 395.115 49.6C394.475 50.24 393.675 50.56 392.715 50.56C391.809 50.56 390.982 50.2933 390.235 49.76C389.542 49.2267 388.822 48.6133 388.075 47.92L366.155 25.2ZM372.075 27.44L365.595 26L389.675 1.04C391.062 1.09333 392.102 1.44 392.795 2.08C393.489 2.72 393.835 3.46666 393.835 4.32C393.835 5.01333 393.649 5.68 393.275 6.32C392.955 6.90667 392.422 7.52 391.675 8.16L372.075 27.44ZM361.115 20.64H367.675V49.92C367.355 50.0267 366.929 50.1333 366.395 50.24C365.862 50.4 365.275 50.48 364.635 50.48C363.462 50.48 362.582 50.24 361.995 49.76C361.409 49.28 361.115 48.5333 361.115 47.52V20.64ZM367.675 26H361.115V1.52C361.382 1.41333 361.782 1.30666 362.315 1.2C362.902 1.04 363.515 0.959997 364.155 0.959997C365.329 0.959997 366.209 1.2 366.795 1.68C367.382 2.10666 367.675 2.85333 367.675 3.92V26ZM407.228 20.72H413.708V49.36C413.494 49.4133 413.094 49.5467 412.508 49.76C411.921 49.92 411.334 50 410.748 50C409.681 50 408.828 49.68 408.188 49.04C407.548 48.3467 407.228 47.4933 407.228 46.48V20.72ZM413.708 30.16L407.228 30.08V4.88C407.228 3.81333 407.548 2.96 408.188 2.32C408.828 1.68 409.681 1.36 410.748 1.36C411.334 1.36 411.921 1.44 412.508 1.6C413.094 1.76 413.494 1.89333 413.708 2V30.16ZM410.748 27.76V22.32H434.828C434.988 22.5333 435.148 22.88 435.308 23.36C435.468 23.84 435.548 24.3467 435.548 24.88C435.548 25.7333 435.334 26.4267 434.908 26.96C434.481 27.4933 433.868 27.76 433.068 27.76H410.748ZM410.748 50V44.56H437.708C437.868 44.7733 438.028 45.12 438.188 45.6C438.348 46.0267 438.428 46.5333 438.428 47.12C438.428 47.9733 438.214 48.6667 437.788 49.2C437.361 49.7333 436.748 50 435.948 50H410.748ZM410.748 6.88V1.36H437.308C437.468 1.57333 437.628 1.92 437.788 2.4C437.948 2.88 438.028 3.38666 438.028 3.92C438.028 4.77333 437.814 5.49333 437.388 6.08C436.961 6.61333 436.348 6.88 435.548 6.88H410.748ZM457.008 26.16H466.208C470.154 26.16 473.248 25.3067 475.488 23.6C477.728 21.8933 478.848 19.36 478.848 16C478.848 12.6933 477.674 10.1867 475.328 8.48C472.981 6.77333 469.621 5.92 465.248 5.92C463.808 5.92 462.341 6 460.848 6.16C459.408 6.26667 458.128 6.42666 457.008 6.64V26.16ZM466.208 31.6H450.528V4.88C450.528 4.02666 450.741 3.38666 451.168 2.96C451.648 2.48 452.314 2.10666 453.168 1.84C454.714 1.36 456.608 1.01333 458.848 0.799999C461.141 0.586665 463.354 0.479999 465.488 0.479999C472.154 0.479999 477.141 1.84 480.448 4.56C483.754 7.28 485.408 11.0933 485.408 16C485.408 19.1467 484.688 21.8933 483.248 24.24C481.808 26.5867 479.674 28.4 476.848 29.68C474.021 30.96 470.474 31.6 466.208 31.6ZM466.368 29.52L471.168 27.12C472.661 28.9867 474.208 30.9333 475.808 32.96C477.408 34.9867 478.954 36.96 480.448 38.88C481.941 40.8 483.274 42.5333 484.448 44.08C485.621 45.5733 486.528 46.7467 487.168 47.6C486.954 48.5067 486.474 49.2267 485.728 49.76C485.034 50.2933 484.314 50.56 483.568 50.56C482.661 50.56 481.914 50.3467 481.328 49.92C480.741 49.44 480.128 48.7733 479.488 47.92L466.368 29.52ZM450.528 29.84H457.088V49.84C456.768 49.9467 456.341 50.0533 455.808 50.16C455.274 50.32 454.688 50.4 454.048 50.4C452.874 50.4 451.994 50.16 451.408 49.68C450.821 49.2 450.528 48.4533 450.528 47.44V29.84Z" fill="#45C552"/>
</svg>
