<svg width="31" height="16" viewBox="0 0 31 16" fill="none" xmlns="http://www.w3.org/2000/svg">
<rect width="31" height="16" rx="3" fill="#D56D6D"/>
<path d="M19.7041 12.9992L18.1641 6.74023H20.1001L20.6611 9.53423C20.7601 10.1612 20.8261 10.7772 20.9251 11.4152H20.9801C21.0901 10.7772 21.1891 10.1502 21.3431 9.53423L21.9921 6.74023H23.6751L24.3461 9.53423C24.4891 10.1612 24.5991 10.7772 24.7311 11.4152H24.7861C24.8851 10.7772 24.9511 10.1612 25.0611 9.53423L25.6001 6.74023H27.4151L25.9411 12.9992H23.6531L23.1251 10.6122C23.0041 10.0292 22.9051 9.45723 22.7951 8.77523H22.7401C22.6411 9.45723 22.5531 10.0292 22.4431 10.6122L21.9371 12.9992H19.7041Z" fill="white"/>
<path d="M15.0303 13.1539C13.2263 13.1539 11.8403 11.9439 11.8403 9.86491C11.8403 7.84091 13.3033 6.58691 14.8103 6.58691C16.6143 6.58691 17.4943 7.89591 17.4943 9.60091C17.4943 9.95291 17.4503 10.2939 17.4063 10.4479H13.7323C13.9083 11.3059 14.5023 11.6579 15.2943 11.6579C15.7453 11.6579 16.1633 11.5259 16.6143 11.2619L17.2633 12.4389C16.6143 12.9009 15.7563 13.1539 15.0303 13.1539ZM13.6993 9.16091H15.8333C15.8333 8.54491 15.5583 8.08291 14.8433 8.08291C14.3043 8.08291 13.8313 8.42391 13.6993 9.16091Z" fill="white"/>
<path d="M3.9458 12.9997V4.80469H5.9478L7.9828 8.73169L8.7858 10.5467H8.8408C8.7418 9.67769 8.5768 8.50069 8.5768 7.52169V4.80469H10.4468V12.9997H8.4448L6.4208 9.05069L5.6178 7.25769H5.5628C5.6508 8.17069 5.8158 9.29269 5.8158 10.2827V12.9997H3.9458Z" fill="white"/>
</svg>
