<svg width="18" height="18" viewBox="0 0 18 18" fill="none" xmlns="http://www.w3.org/2000/svg">
<path d="M8.23915 1.34164C8.47864 0.604591 9.52136 0.604592 9.76085 1.34164L11.29 6.04803C11.3971 6.37765 11.7043 6.60081 12.0509 6.60081H16.9995C17.7745 6.60081 18.0967 7.59251 17.4697 8.04803L13.4662 10.9567C13.1858 11.1604 13.0685 11.5215 13.1756 11.8512L14.7048 16.5575C14.9443 17.2946 14.1007 17.9075 13.4737 17.452L9.47023 14.5433C9.18984 14.3396 8.81016 14.3396 8.52977 14.5433L4.52628 17.452C3.89931 17.9075 3.05573 17.2946 3.29521 16.5575L4.8244 11.8512C4.9315 11.5215 4.81418 11.1604 4.53379 10.9567L0.530296 8.04803C-0.0966752 7.5925 0.225547 6.60081 1.00053 6.60081H5.94911C6.29569 6.60081 6.60286 6.37764 6.70996 6.04803L8.23915 1.34164Z" fill="#45C552"/>
</svg>
