<svg width="16" height="19" viewBox="0 0 16 19" fill="none" xmlns="http://www.w3.org/2000/svg">
<mask id="path-1-inside-1_5777_14287" fill="white">
<path fill-rule="evenodd" clip-rule="evenodd" d="M9.64913 0.55798C10.0185 1.19781 9.9153 2.07559 9.36214 2.9982C9.26183 3.1655 9.14821 3.3318 9.02255 3.49591L11.5763 7.17527C11.9557 7.1462 12.3297 7.15012 12.6923 7.18842C14.1056 7.33764 15.2316 7.9966 15.8227 9.02034L10.9977 11.8061L14.3612 17.6318L14.4152 18.8396L13.3962 18.1889L10.0327 12.3632L5.2077 15.1489C4.61665 14.1252 4.60898 12.8205 5.18639 11.522C5.33467 11.1885 5.51841 10.8625 5.73345 10.5483L3.82452 6.49823C3.6186 6.52523 3.41684 6.5406 3.22092 6.54384C2.14533 6.56158 1.33354 6.2121 0.96413 5.57227L5.30663 3.06512L9.64913 0.55798Z"/>
</mask>
<path d="M9.36214 2.9982L8.50448 2.48398L8.50448 2.48398L9.36214 2.9982ZM9.64913 0.55798L10.5152 0.0579801L10.0152 -0.808045L9.14913 -0.308045L9.64913 0.55798ZM9.02255 3.49591L8.22858 2.88795L7.7852 3.46699L8.20104 4.0661L9.02255 3.49591ZM11.5763 7.17527L10.7548 7.74546L11.0815 8.21611L11.6527 8.17234L11.5763 7.17527ZM12.6923 7.18842L12.7973 6.19394L12.7973 6.19394L12.6923 7.18842ZM15.8227 9.02034L16.3227 9.88636L17.1887 9.38636L16.6887 8.52034L15.8227 9.02034ZM10.9977 11.8061L10.4977 10.94L9.63167 11.44L10.1317 12.3061L10.9977 11.8061ZM14.3612 17.6318L15.3602 17.5871L15.3493 17.3432L15.2272 17.1318L14.3612 17.6318ZM14.4152 18.8396L13.877 19.6824L15.5002 20.719L15.4142 18.7949L14.4152 18.8396ZM13.3962 18.1889L12.5302 18.6889L12.6522 18.9004L12.858 19.0318L13.3962 18.1889ZM10.0327 12.3632L10.8987 11.8632L10.3987 10.9972L9.5327 11.4972L10.0327 12.3632ZM5.2077 15.1489L4.34168 15.6489L4.84168 16.5149L5.7077 16.0149L5.2077 15.1489ZM5.18639 11.522L4.27265 11.1157L4.27265 11.1157L5.18639 11.522ZM5.73345 10.5483L6.55869 11.113L6.88231 10.6402L6.63801 10.1219L5.73345 10.5483ZM3.82452 6.49823L4.72908 6.07188L4.41799 5.41187L3.69453 5.50672L3.82452 6.49823ZM3.22092 6.54384L3.23742 7.5437L3.23742 7.5437L3.22092 6.54384ZM0.96413 5.57227L0.46413 4.70624L-0.401896 5.20624L0.0981046 6.07227L0.96413 5.57227ZM10.2198 3.51242C10.8653 2.43577 11.1424 1.14436 10.5152 0.0579801L8.7831 1.05798C8.8947 1.25127 8.96529 1.7154 8.50448 2.48398L10.2198 3.51242ZM9.81652 4.10387C9.96342 3.91202 10.0986 3.71452 10.2198 3.51242L8.50448 2.48398C8.42504 2.61648 8.33301 2.75157 8.22858 2.88795L9.81652 4.10387ZM12.3978 6.60507L9.84406 2.92572L8.20104 4.0661L10.7548 7.74546L12.3978 6.60507ZM12.7973 6.19394C12.3706 6.14888 11.9358 6.1448 11.4999 6.17819L11.6527 8.17234C11.9756 8.1476 12.2887 8.15136 12.5873 8.18289L12.7973 6.19394ZM16.6887 8.52034C15.9044 7.16178 14.4561 6.36909 12.7973 6.19394L12.5873 8.18289C13.7551 8.30619 14.5589 8.83142 14.9567 9.52034L16.6887 8.52034ZM11.4977 12.6721L16.3227 9.88636L15.3227 8.15431L10.4977 10.94L11.4977 12.6721ZM10.1317 12.3061L13.4952 18.1318L15.2272 17.1318L11.8637 11.3061L10.1317 12.3061ZM13.3622 17.6765L13.4162 18.8843L15.4142 18.7949L15.3602 17.5871L13.3622 17.6765ZM14.9534 17.9968L13.9344 17.3461L12.858 19.0318L13.877 19.6824L14.9534 17.9968ZM14.2622 17.6889L10.8987 11.8632L9.16668 12.8632L12.5302 18.6889L14.2622 17.6889ZM5.7077 16.0149L10.5327 13.2292L9.5327 11.4972L4.7077 14.2829L5.7077 16.0149ZM4.27265 11.1157C3.59495 12.6398 3.55731 14.2904 4.34168 15.6489L6.07373 14.6489C5.67598 13.96 5.62302 13.0013 6.10013 11.9283L4.27265 11.1157ZM4.90822 9.98346C4.66117 10.3444 4.44713 10.7233 4.27265 11.1157L6.10013 11.9283C6.22221 11.6537 6.37565 11.3805 6.55869 11.113L4.90822 9.98346ZM2.91996 6.92459L4.8289 10.9746L6.63801 10.1219L4.72908 6.07188L2.91996 6.92459ZM3.23742 7.5437C3.47409 7.53979 3.71382 7.52131 3.95451 7.48975L3.69453 5.50672C3.52337 5.52916 3.35959 5.54141 3.20442 5.54397L3.23742 7.5437ZM0.0981046 6.07227C0.725329 7.15865 1.98225 7.56441 3.23742 7.5437L3.20442 5.54397C2.30841 5.55876 1.94175 5.26555 1.83016 5.07227L0.0981046 6.07227ZM4.80663 2.1991L0.46413 4.70624L1.46413 6.43829L5.80663 3.93115L4.80663 2.1991ZM9.14913 -0.308045L4.80663 2.1991L5.80663 3.93115L10.1491 1.42401L9.14913 -0.308045Z" fill="#C5C5C5" mask="url(#path-1-inside-1_5777_14287)"/>
</svg>
