<?xml version="1.0" encoding="UTF-8"?>
<svg version="1.1" xmlns="http://www.w3.org/2000/svg" width="817" height="783">
<path d="M0 0 C14.80960336 12.54878912 18.92734942 31.30996853 24.65234375 49.1171875 C25.45355974 51.58866241 26.25541003 54.05993176 27.05786133 56.53100586 C32.39423618 72.98807503 37.65697859 89.46887209 42.90811157 105.95330811 C49.27090735 125.92061764 55.7931441 145.83460843 62.33984375 165.7421875 C62.58813808 166.497383 62.83643242 167.25257851 63.09225082 168.03065872 C65.87365586 176.49002259 68.65967856 184.94783466 71.45446587 193.40278721 C72.78108311 197.41863222 74.09706689 201.43782304 75.4074707 205.45898438 C76.02810072 207.35158114 76.64878306 209.24416075 77.26953125 211.13671875 C77.53584854 211.96202591 77.80216583 212.78733307 78.07655334 213.63764954 C80.04144251 219.60085922 82.48852556 224.88134326 86.27734375 229.9296875 C86.71304688 230.55488281 87.14875 231.18007812 87.59765625 231.82421875 C94.55822213 240.95250372 106.25293808 246.54415014 117.38858509 248.46689129 C121.69379537 248.97924888 125.87115965 249.07036852 130.2006073 249.06098938 C131.07608524 249.06310509 131.95156318 249.06522081 132.85357076 249.06740063 C135.77503321 249.07337222 138.69645212 249.07240251 141.61791992 249.0715332 C143.71768263 249.07456661 145.81744467 249.07808856 147.91720581 249.08206177 C152.43406942 249.08993754 156.95092517 249.09509071 161.46779442 249.09835243 C168.61692583 249.10427522 175.76600779 249.12082784 182.91511536 249.13969421 C185.36535546 249.14603126 187.8155956 249.15235689 190.26583576 249.15867138 C192.10623824 249.1634201 192.10623824 249.1634201 193.98382056 249.16826475 C210.62209886 249.21029597 227.26035377 249.24331226 243.89868164 249.25561523 C255.12947882 249.26400488 266.3601531 249.2865279 277.5908888 249.3249709 C283.52911427 249.34469835 289.46715616 249.357147 295.40541649 249.35213661 C300.99434857 249.34747819 306.58293287 249.36136109 312.17179489 249.38914871 C314.21630906 249.39603993 316.26085935 249.39620949 318.30537224 249.38894844 C335.13745754 249.33523323 348.73468857 251.4845327 361.75390625 263.1484375 C372.42604529 274.1418115 376.70869013 287.64905183 376.64086914 302.65625 C376.36873854 315.21537966 371.70274901 326.05599815 363.09375 335.265625 C356.97039171 340.99684704 350.12287578 345.75336966 343.25927734 350.5390625 C339.67821967 353.05171396 336.13507395 355.61685197 332.58984375 358.1796875 C331.83509766 358.72463867 331.08035156 359.26958984 330.30273438 359.83105469 C323.96768101 364.41289404 317.67472597 369.05062273 311.38623047 373.69604492 C302.32628354 380.38208925 293.18698263 386.95704769 284.04785156 393.53417969 C275.59141339 399.622075 267.15845466 405.73837491 258.77734375 411.9296875 C250.39785917 418.11979869 241.96627012 424.23443059 233.51123047 430.32080078 C231.26664591 431.93739228 229.02363761 433.55614394 226.78125 435.17578125 C226.0375415 435.71291748 225.29383301 436.25005371 224.52758789 436.8034668 C223.03281946 437.88371552 221.53851243 438.96460299 220.04467773 440.04614258 C216.20774022 442.82236104 212.36115156 445.5833488 208.49609375 448.3203125 C191.83243859 460.15203808 177.68366455 470.88295478 173.6875 492.0546875 C172.01753861 503.76032166 175.57105985 514.40778094 179.1796875 525.4296875 C179.76367058 527.23563385 179.76367058 527.23563385 180.35945129 529.07806396 C181.41733943 532.3487434 182.48222547 535.61710462 183.54850769 538.88505554 C184.44764628 541.644035 185.34243032 544.40441817 186.23713875 547.16483688 C192.84472629 567.55096976 199.52006365 587.91507151 206.20837402 608.27484131 C212.51886005 627.48469355 218.73062516 646.72433389 224.85253906 665.99511719 C225.45621165 667.89263176 226.06004984 669.79009365 226.6640625 671.6875 C226.95464539 672.60190353 227.24522827 673.51630707 227.5446167 674.4584198 C229.13778667 679.44780163 230.77219967 684.42055072 232.453125 689.38110352 C232.81654495 690.45597015 233.1799649 691.53083679 233.55439758 692.63827515 C234.25165001 694.69310542 234.95393678 696.74623731 235.66227722 698.79727173 C240.81782527 713.98491319 242.11350901 728.24494868 235.21484375 743.1171875 C227.53649868 757.40876559 216.49580743 765.77471532 201.27734375 770.9296875 C188.08183649 773.6550341 174.62048099 772.11824433 163.02734375 764.9921875 C161.09316831 763.66314882 159.17881132 762.30511455 157.27734375 760.9296875 C155.93909472 759.9787547 154.60052851 759.02826818 153.26171875 758.078125 C144.56604084 751.87092394 135.98044552 745.51153123 127.38696289 739.1640625 C119.06376366 733.02105282 110.67362571 726.97221543 102.27734375 720.9296875 C92.27183977 713.72905542 82.30045897 706.48717964 72.38525391 699.16259766 C64.80065535 693.56536576 57.16146045 688.04560123 49.51123047 682.53857422 C45.76374591 679.83956622 42.0207853 677.13429866 38.27734375 674.4296875 C36.77736521 673.34632446 35.27736521 672.26299112 33.77734375 671.1796875 C24.77734375 664.6796875 24.77734375 664.6796875 22.52563477 663.05273438 C21.03224129 661.97464991 19.53794351 660.89781695 18.04272461 659.82226562 C14.18310549 657.04344091 10.34376786 654.2416182 6.53125 651.3984375 C-7.62873008 640.88608 -20.3864575 633.29512363 -38.71875 635.3984375 C-60.05608111 639.17200971 -77.63720812 656.1563282 -94.61303711 668.6953125 C-102.19792814 674.29340738 -109.83793451 679.81333823 -117.48876953 685.32080078 C-121.23625394 688.01980868 -124.97926826 690.72500244 -128.72265625 693.4296875 C-133.20876004 696.67100203 -137.69570456 699.91110704 -142.1875 703.14453125 C-149.89728598 708.69773374 -157.58023256 714.28405955 -165.22265625 719.9296875 C-173.60214083 726.11979869 -182.03372988 732.23443059 -190.48876953 738.32080078 C-193.48528992 740.47895043 -196.47898196 742.64099662 -199.47167969 744.80444336 C-200.9669835 745.88407866 -202.46372065 746.96173166 -203.96191406 748.03735352 C-207.80829248 750.80230463 -211.62301105 753.59969405 -215.3984375 756.4609375 C-229.42283405 767.00603826 -241.74217569 773.02186517 -259.72265625 771.9296875 C-273.74087298 769.86458191 -285.670866 762.71030375 -294.5390625 751.66796875 C-296.06576454 749.47548688 -297.42136358 747.26219323 -298.72265625 744.9296875 C-299.11195313 744.25679687 -299.50125 743.58390625 -299.90234375 742.890625 C-307.96395317 727.17931321 -303.93046898 710.98754536 -298.86993408 695.17367554 C-297.88977941 692.15270946 -296.90012743 689.13494966 -295.91015625 686.1171875 C-295.20235406 683.93449464 -294.49534465 681.75154457 -293.7890625 679.56835938 C-291.44928327 672.35031187 -289.0874769 665.13956319 -286.72265625 657.9296875 C-286.30044553 656.64163192 -285.87826561 655.35356624 -285.45611572 654.06549072 C-281.70977583 642.63544752 -277.95928547 631.20676472 -274.19988346 619.78101063 C-267.75644989 600.19637768 -261.40370745 580.58445578 -255.15014648 560.93823242 C-254.52460577 558.97313532 -253.89903668 557.00804724 -253.2734375 555.04296875 C-252.97342331 554.10037704 -252.67340912 553.15778534 -252.36430359 552.18663025 C-250.37933036 545.96047284 -248.36394716 539.74485933 -246.328125 533.53515625 C-245.93364166 532.32907715 -245.93364166 532.32907715 -245.53118896 531.09863281 C-244.3294988 527.42495125 -243.1230359 523.75301992 -241.90576172 520.08447266 C-241.29112061 518.20767822 -241.29112061 518.20767822 -240.6640625 516.29296875 C-240.13341187 514.68869019 -240.13341187 514.68869019 -239.59204102 513.05200195 C-236.09033405 500.47594737 -237.62062069 487.43492072 -243.265625 475.73046875 C-249.74788574 465.0948144 -258.6424066 458.31615459 -268.70849609 451.33642578 C-272.30480041 448.82467966 -275.85598258 446.25053721 -279.41015625 443.6796875 C-280.54203369 442.86238159 -280.54203369 442.86238159 -281.69677734 442.02856445 C-288.03211769 437.44681536 -294.32513023 432.8088585 -300.61376953 428.16333008 C-308.19867773 422.56583235 -315.83820933 417.04583894 -323.48876953 411.53857422 C-327.98788794 408.29822555 -332.48089744 405.04941048 -336.97509766 401.80224609 C-340.71060125 399.10370728 -344.44747105 396.40710797 -348.1875 393.71484375 C-356.70186306 387.58212071 -365.17481827 381.39735961 -373.61474609 375.16259766 C-378.98339773 371.20067562 -384.37381891 367.27059224 -389.78515625 363.3671875 C-390.8844043 362.57405151 -390.8844043 362.57405151 -392.00585938 361.76489258 C-395.83274152 359.00622215 -399.66449191 356.25447588 -403.5 353.5078125 C-436.06647489 330.15631019 -436.06647489 330.15631019 -440.72265625 309.9296875 C-442.46379219 292.87976928 -438.68542146 278.58569743 -428.13671875 264.8671875 C-420.1436774 256.13332768 -408.23040014 250.20917508 -396.40707397 249.64886284 C-390.94186174 249.49530056 -385.47661533 249.51558239 -380.00976562 249.52905273 C-377.90631216 249.52330463 -375.80286199 249.51621958 -373.69941711 249.50790405 C-369.18420861 249.49283277 -364.66911804 249.48701309 -360.15388489 249.48843193 C-353.00922111 249.49047134 -345.8647151 249.47086044 -338.72009277 249.44825745 C-324.84318917 249.40733718 -310.96629816 249.38869105 -297.08934784 249.37208557 C-279.42584082 249.3497106 -261.76237046 249.31612595 -244.09892321 249.26488644 C-237.00158633 249.24500538 -229.90433232 249.23538752 -222.80696869 249.23393428 C-218.38699411 249.23117733 -213.96706505 249.22033284 -209.5471096 249.20742416 C-207.50335806 249.20315715 -205.4595961 249.2022759 -203.41584206 249.20509911 C-200.61717087 249.20852064 -197.81878474 249.19967006 -195.0201416 249.18797302 C-193.81923519 249.19394466 -193.81923519 249.19394466 -192.59406805 249.20003694 C-177.92705077 249.09204695 -164.25977044 244.33874649 -153.72265625 233.9296875 C-145.45898023 224.35867211 -141.68532075 212.33632444 -137.859375 200.484375 C-137.33665512 198.8847567 -137.33665512 198.8847567 -136.80337524 197.25282288 C-135.66740162 193.77168575 -134.53865637 190.2882538 -133.41015625 186.8046875 C-132.60405721 184.32876056 -131.79765559 181.85293212 -130.9909668 179.37719727 C-125.6312457 162.90719809 -120.34904676 146.4127506 -115.09317017 129.90936279 C-108.71020771 109.87810494 -102.16573839 89.90081814 -95.59765625 69.9296875 C-95.34732761 69.16838909 -95.09699898 68.40709068 -94.83908463 67.62272263 C-92.26519234 59.79545074 -89.68805261 51.96927381 -87.1027832 44.14575195 C-85.66829691 39.80406647 -84.24251784 35.45988312 -82.83276367 31.11010742 C-82.56009674 30.27491577 -82.28742981 29.43972412 -82.00650024 28.57922363 C-81.53443876 27.13277167 -81.06633497 25.68501639 -80.60385132 24.23547363 C-76.41162465 11.45856973 -69.08208667 1.92776889 -57.40625 -4.71875 C-38.35167361 -14.31537799 -17.13912146 -12.9446201 0 0 Z " fill="#736D57" transform="translate(440.72265625,11.0703125)"/>
</svg>
