<svg width="16" height="19" viewBox="0 0 16 19" fill="none" xmlns="http://www.w3.org/2000/svg">
<path fill-rule="evenodd" clip-rule="evenodd" d="M9.64913 0.55798C10.0185 1.19781 9.9153 2.07559 9.36214 2.9982C9.26183 3.1655 9.14821 3.3318 9.02255 3.49591L11.5763 7.17527C11.9557 7.1462 12.3297 7.15012 12.6923 7.18842C14.1056 7.33764 15.2316 7.9966 15.8227 9.02034L10.9977 11.8061L14.3612 17.6318L14.4152 18.8396L13.3962 18.1889L10.0327 12.3632L5.2077 15.1489C4.61665 14.1252 4.60898 12.8205 5.18639 11.522C5.33467 11.1885 5.51841 10.8625 5.73345 10.5483L3.82452 6.49823C3.6186 6.52523 3.41684 6.5406 3.22092 6.54384C2.14533 6.56158 1.33354 6.2121 0.96413 5.57227L5.30663 3.06512L9.64913 0.55798Z" fill="#45C552"/>
</svg>
