<svg width="250" height="250" viewBox="0 0 250 250" fill="none" xmlns="http://www.w3.org/2000/svg">
<rect width="250" height="250" rx="1" fill="#59C965"/>
<path d="M118.613 203.125C103.41 203.125 90.4244 199.813 79.6558 193.19C69.0456 186.416 60.89 177.159 55.189 165.417C49.6463 153.676 46.875 140.128 46.875 124.774C46.875 109.119 49.8839 95.4961 55.9016 83.9053C62.0777 72.164 70.7084 63.057 81.7937 56.5842C92.879 50.1114 105.865 46.875 120.751 46.875C134.053 46.875 146.009 49.8103 156.62 55.681C167.388 61.5517 175.544 69.9813 181.086 80.97L161.37 87.7439C157.886 80.97 152.581 75.4757 145.455 71.2608C138.487 66.8955 129.856 64.7128 119.563 64.7128C110.22 64.7128 101.747 66.9707 94.1459 71.4866C86.7029 76.0025 80.7644 82.7764 76.3302 91.8082C71.8961 100.689 69.6791 111.678 69.6791 124.774C69.6791 137.419 71.7378 148.257 75.8552 157.289C80.1309 166.32 85.9903 173.245 93.4333 178.062C101.035 182.879 109.745 185.287 119.563 185.287C124.789 185.287 130.173 184.685 135.716 183.481C141.258 182.277 146.326 180.244 150.919 177.384C155.511 174.374 159.232 170.309 162.083 165.191C164.933 160.073 166.359 153.601 166.359 145.773V140.806H120.038V122.516H187.5V200.415H174.673L168.734 181.449C163.667 189.126 156.699 194.695 147.83 198.158C139.121 201.469 129.381 203.125 118.613 203.125Z" fill="white"/>
</svg>
