<svg width="319" height="208" viewBox="0 0 319 208" fill="none" xmlns="http://www.w3.org/2000/svg">
<g clip-path="url(#clip0_50_94)">
<path d="M272.822 46.2265C243.064 16.4116 203.741 0 162.115 0C120.49 0 81.1665 16.4116 51.3829 46.2265C21.6122 76.0285 5.21777 115.393 5.21777 157.075V159.674H319V157.075C319 115.393 302.606 76.0285 272.822 46.2265ZM242.169 87.7164L221.593 51.6159L236.824 24.9247C247.335 30.9158 257.042 38.0847 265.802 46.3033L242.169 87.7036V87.7164ZM232.258 22.4412L218.601 46.3673L218.549 46.2649L162.103 141.688L106.244 47.3274L106.193 47.4042L91.9597 22.4668C112.945 11.4446 136.82 5.21024 162.115 5.21024C187.41 5.21024 211.273 11.4446 232.258 22.454V22.4412ZM57.6235 47.0714C66.5752 38.5327 76.5755 31.0822 87.3943 24.9119L103.213 52.6273L82.0361 89.8415L57.6235 47.0714ZM53.7871 50.8351L79.0437 95.0773L45.2318 154.464H10.4353C11.1259 114.19 27.5331 77.68 53.7871 50.8351ZM87.2664 109.492L112.945 154.464H61.6774L87.2792 109.492H87.2664ZM118.917 154.464L90.2589 104.256L106.487 75.7469L153.087 154.464H118.917ZM218.306 74.6844L233.934 102.118L204.048 154.464H171.105L218.306 74.6844ZM210.033 154.464L236.926 107.354L263.755 154.464H210.033ZM280.188 154.464L245.149 92.9522L269.638 50.0414C296.365 76.9503 313.105 113.78 313.783 154.451H280.201L280.188 154.464Z" fill="#D1BD64"/>
<path d="M267.617 46.2265C237.846 16.4116 198.523 0 156.898 0C115.272 0 75.9487 16.4116 46.1779 46.2265C16.3944 76.0285 0 115.393 0 157.075V159.674H313.782V157.075C313.782 115.393 297.388 76.0285 267.604 46.2265H267.617ZM236.964 87.7164L216.388 51.6159L231.619 24.9247C242.13 30.9158 251.837 38.0847 260.597 46.3161L236.964 87.7164ZM227.053 22.4412L213.396 46.3673L213.344 46.2649L156.898 141.688L101.039 47.3274L100.988 47.4042L86.7547 22.4668C107.74 11.4446 131.615 5.21024 156.91 5.21024C182.205 5.21024 206.068 11.4446 227.053 22.454V22.4412ZM52.4058 47.0714C61.3575 38.5327 71.3578 31.0822 82.1765 24.9119L97.9955 52.6273L76.8183 89.8415L52.4058 47.0714ZM48.5693 50.8351L73.8259 95.0773L40.0141 154.464H5.21756C5.90812 114.19 22.3153 77.68 48.5693 50.8351ZM82.0487 109.492L107.727 154.464H56.4596L82.0614 109.492H82.0487ZM113.699 154.464L85.0411 104.256L101.269 75.7469L147.869 154.464H113.699ZM213.089 74.6844L228.716 102.118L198.83 154.464H165.888L213.089 74.6844ZM204.815 154.464L231.708 107.354L258.538 154.464H204.815ZM274.97 154.464L239.931 92.9522L264.42 50.0414C291.147 76.9503 307.887 113.78 308.565 154.451H274.983L274.97 154.464Z" fill="#E8D483"/>
<path d="M10.384 190.205H14.3483C17.0211 190.205 18.1464 189.104 18.2743 185.814H19.3997C19.195 187.798 19.0672 188.989 19.0672 191.268C19.0672 193.546 19.195 195.236 19.3997 197.22H18.2743C18.1464 193.802 17.0211 192.356 14.4379 192.356H10.3968V202.495C10.3968 205.119 11.2792 205.874 15.1156 205.913V207.18C12.6987 206.962 10.1538 206.885 7.90313 206.885C5.65241 206.885 3.35055 206.975 0.933594 207.18V205.913C4.14342 205.874 4.93628 205.106 4.93628 202.443V180.181C4.93628 177.519 4.2713 176.802 1.06148 176.763V175.496C3.47843 175.752 5.39665 175.88 7.64736 175.88H18.0313C20.1542 175.88 21.0365 175.33 21.2795 174.357H22.4049C22.2386 175.291 22.1107 176.341 22.1107 177.531C22.0724 179.439 22.6095 182.05 23.1594 184.201H22.034C20.9087 179.349 18.7347 178.069 15.0261 178.069H10.3968V190.192L10.384 190.205Z" fill="#FCF5D7"/>
<path d="M45.3471 206.565C43.7614 207.205 42.0094 207.5 40.5516 207.5C32.9554 207.5 25.9092 202.302 25.9092 192.458C25.9092 183.497 31.7917 178.556 35.334 177.122L37.6231 176.238C39.2472 175.56 40.9608 175.304 42.4187 175.304C50.0148 175.304 57.0611 180.463 57.0611 190.256C57.0611 199.256 51.1785 204.197 47.6362 205.631L45.3471 206.565ZM51.2681 191.946C51.2681 183.241 46.1784 177.877 39.9633 177.915C38.7101 177.915 37.4569 178.133 36.0885 178.556C33.2879 181.129 31.7022 185.443 31.7022 190.768C31.7022 199.473 36.7535 204.837 42.9685 204.748C44.2602 204.748 45.5134 204.62 46.8945 204.197C49.6951 201.624 51.2808 197.31 51.2808 191.946H51.2681Z" fill="#FCF5D7"/>
<path d="M88.814 195.198C88.814 203.02 84.5555 207.795 76.921 207.795C68.4936 207.795 63.4423 204.082 63.4423 195.377V180.207C63.4423 177.544 62.8157 176.827 59.1455 176.789V175.522C61.5625 175.778 63.9027 175.906 66.1918 175.906C68.4808 175.906 70.8594 175.778 73.2892 175.522V176.789C69.4527 176.827 68.954 177.544 68.954 180.169V194.199C68.954 201.803 72.4963 204.978 77.343 204.978C83.5581 204.978 85.7704 200.792 85.7704 195.223V180.182C85.7704 177.557 84.4788 176.84 81.1027 176.802V175.535C83.5197 175.791 85.4891 175.919 87.3178 175.919C89.1465 175.919 91.0263 175.791 93.4561 175.535V176.802C90.2079 176.84 88.8268 177.557 88.8268 180.22V195.223L88.814 195.198Z" fill="#FCF5D7"/>
<path d="M104.275 193.124V202.507C104.275 205.132 105.029 205.887 107.907 205.925V207.193C105.49 206.975 104.032 206.898 101.768 206.898C99.5049 206.898 97.2158 206.988 94.7988 207.193V205.925C98.0087 205.887 98.8015 205.119 98.8015 202.456V180.194C98.8015 177.531 98.1365 176.815 94.9267 176.776V175.509C97.3437 175.765 99.2619 176.021 101.513 175.893L108.648 175.47C113.7 175.803 117.907 177.916 117.907 183.113C117.907 187.798 115.196 190.461 111.526 191.856L117.204 201.278C118.585 203.519 120.452 205.887 123.252 205.925V207.193C121.296 206.975 118.751 206.898 116.948 206.898C115.145 206.898 113.482 206.988 111.065 207.193V205.925C112.728 205.925 112.945 205.465 112.945 204.863C112.945 204.056 112.357 203.135 111.897 202.367L106.308 192.983C105.643 193.021 104.927 193.111 104.262 193.111L104.275 193.124ZM104.275 177.826V191.012C109.863 190.717 111.999 188.477 111.999 183.241C111.999 180.194 110.874 178.376 108.955 177.237L104.288 177.826H104.275Z" fill="#FCF5D7"/>
<path d="M125.554 189.706H139.902V194.02H125.554V189.706Z" fill="#FCF5D7"/>
<path d="M170.722 197.31L171.937 197.95C170.274 200.318 169.482 203.864 169.136 206.822C168.088 206.066 167.295 205.772 166.169 205.772C163.42 205.772 161.118 207.5 157.908 207.5C150.734 207.5 143.765 202.648 143.765 192.458C143.765 183.664 148.816 179.362 152.78 177.711L155.121 176.738C156.796 176.021 158.458 175.304 160.249 175.304C163.215 175.304 165.594 175.944 166.924 176.571C167.589 176.405 168.216 175.688 168.382 174.843H169.635C169.379 175.944 169.303 177.288 169.303 178.351C169.303 180.207 169.635 182.371 170.3 184.777H169.008C166.886 180.002 163.164 177.98 158.292 177.98C156.962 177.98 155.287 178.274 153.496 179.081C151.079 181.577 149.57 185.213 149.57 190.948C149.57 199.013 153.829 204.761 160.172 204.761C163.97 204.761 167.512 203.071 170.722 197.323V197.31Z" fill="#FCF5D7"/>
<path d="M197.998 191.946H183.816V202.507C183.816 205.132 184.443 205.887 188.241 205.925V207.193C185.863 206.975 183.318 206.898 181.029 206.898C178.74 206.898 176.271 206.988 173.854 207.193V205.925C177.525 205.887 178.318 205.119 178.318 202.456V180.194C178.318 177.531 177.653 176.815 173.982 176.776V175.509C176.399 175.765 178.778 175.893 181.029 175.893C183.279 175.893 185.696 175.765 188.126 175.509V176.776C184.29 176.815 183.829 177.531 183.829 180.156V189.36H198.011V180.194C198.011 177.531 197.346 176.815 193.676 176.776V175.509C196.093 175.765 198.433 175.893 200.722 175.893C203.011 175.893 205.39 175.765 207.82 175.509V176.776C203.983 176.815 203.485 177.531 203.485 180.156V202.507C203.485 205.132 204.15 205.887 207.948 205.925V207.193C205.569 206.975 202.986 206.898 200.735 206.898C198.484 206.898 195.978 206.988 193.561 207.193V205.925C197.231 205.887 198.024 205.119 198.024 202.456V191.933L197.998 191.946Z" fill="#FCF5D7"/>
<path d="M224.905 174.792L236.798 202.469C237.847 204.927 239.803 205.938 242.642 205.938V207.206C240.225 206.988 237.68 206.911 235.43 206.911C233.179 206.911 230.711 207.001 228.332 207.206V205.938C230.711 205.9 231.504 205.516 231.504 204.632C231.504 203.992 231.21 203.404 230.915 202.52L228.869 197.323H218.524L216.605 202.482C216.401 203.071 216.273 203.621 216.273 204.044C216.273 205.349 217.526 205.951 220.659 205.951V207.218C218.281 207.001 216.324 206.924 214.483 206.924C212.641 206.924 210.812 207.014 208.396 207.218V205.951C211.605 205.913 212.859 204.978 213.856 202.482L224.905 174.805V174.792ZM219.393 194.942H227.949L223.562 183.74L219.393 194.942Z" fill="#FCF5D7"/>
<path d="M247.553 180.194C247.553 177.531 246.888 176.815 243.218 176.776V175.509C245.635 175.765 248.013 175.893 250.264 175.893C252.515 175.893 254.932 175.765 257.361 175.509V176.776C253.525 176.815 253.064 177.531 253.064 180.156V202.507C253.064 205.132 253.691 205.887 257.489 205.925V207.193C255.111 206.975 252.566 206.898 250.277 206.898C247.988 206.898 245.519 206.988 243.103 207.193V205.925C246.773 205.887 247.566 205.119 247.566 202.456V180.194H247.553Z" fill="#FCF5D7"/>
<path d="M267.068 183.574V202.507C267.068 205.132 268.449 205.887 271.825 205.925V207.193C269.408 206.975 267.362 206.898 265.52 206.898C263.679 206.898 261.722 206.988 259.305 207.193V205.925C262.515 205.887 264.024 205.119 264.024 202.456V180.194C264.024 177.531 263.103 176.815 259.893 176.776V175.509C261.94 175.726 264.152 175.893 266.364 175.893H267.656L285.636 196.939V180.169C285.636 177.544 284.255 176.827 280.917 176.789V175.522C283.296 175.778 285.342 175.906 287.171 175.906C288.999 175.906 291.007 175.778 293.386 175.522V176.789C290.176 176.827 288.667 177.544 288.667 180.207V207.5H287.286L267.055 183.587L267.068 183.574Z" fill="#FCF5D7"/>
<path d="M301.608 181.423C301.608 184.892 303.859 185.737 308.45 188.016C314.626 191.063 317.465 192.752 317.465 198.244C317.465 202.136 315.048 204.159 313.795 205.004L312.043 206.143C310.713 207.026 308.833 207.5 306.992 207.5C303.526 207.5 300.777 205.938 299.728 205.426C298.897 205.516 298.347 206.655 298.015 207.999H296.761C297.132 206.604 297.298 205.004 297.298 203.224C297.298 200.523 296.838 198.116 296.007 195.159H297.298C300.048 202.802 304.562 204.837 307.849 204.837C309.23 204.837 310.521 204.709 311.557 204.248C312.44 203.186 312.772 201.752 312.772 200.28C312.772 197.361 311.557 196.055 306.519 193.649C300.764 190.819 297.298 189.386 297.298 183.548C297.298 180.885 298.846 178.389 300.342 177.416L301.928 176.405C303.219 175.56 304.971 175.304 306.851 175.304C309.767 175.304 311.442 175.854 312.606 176.405C313.271 176.277 313.936 175.342 314.102 174.459H315.394C315.1 175.56 315.023 176.994 315.023 178.056C315.023 179.964 315.227 182.242 315.892 184.687H314.601C312.849 179.874 309.549 177.839 305.636 177.839C304.588 177.839 303.424 177.877 302.26 178.299C301.761 179.362 301.595 180.079 301.595 181.423H301.608Z" fill="#FCF5D7"/>
</g>
<defs>
<clipPath id="clip0_50_94">
<rect width="319" height="208" fill="white"/>
</clipPath>
</defs>
</svg>
