<svg width="189" height="20" viewBox="0 0 189 20" fill="none" xmlns="http://www.w3.org/2000/svg">
<path d="M5.63105 9.42164H7.9932C9.58574 9.42164 10.2563 8.76714 10.3325 6.81128H11.003C10.8811 7.99088 10.8049 8.69866 10.8049 10.0533C10.8049 11.4079 10.8811 12.4125 11.003 13.5921H10.3325C10.2563 11.5601 9.58574 10.7002 8.04654 10.7002H5.63867V16.7276C5.63867 18.2877 6.16444 18.7367 8.45039 18.7596V19.513C7.01024 19.3836 5.4939 19.3379 4.15281 19.3379C2.81172 19.3379 1.44015 19.3912 0 19.513V18.7596C1.91258 18.7367 2.38501 18.2801 2.38501 16.6971V3.46272C2.38501 1.87976 1.98878 1.45358 0.0761983 1.43075V0.677322C1.51635 0.82953 2.65932 0.905636 4.00041 0.905636H10.1877C11.4526 0.905636 11.9784 0.578388 12.1231 0H12.7937C12.6946 0.555557 12.6184 1.1796 12.6184 1.88737C12.5956 3.02131 12.9156 4.57383 13.2433 5.85237H12.5727C11.9022 2.96805 10.6068 2.20701 8.39705 2.20701H5.63867V9.41403L5.63105 9.42164Z" fill="white"/>
<path d="M26.464 19.147C25.5191 19.5275 24.4752 19.7026 23.6065 19.7026C19.0804 19.7026 14.8818 16.6128 14.8818 10.7604C14.8818 5.43313 18.387 2.49553 20.4976 1.64317L21.8616 1.11805C22.8293 0.714704 23.8504 0.5625 24.719 0.5625C29.2452 0.5625 33.4437 3.62947 33.4437 9.4514C33.4437 14.8015 29.9386 17.7391 27.8279 18.5915L26.464 19.147ZM29.992 10.456C29.992 5.28093 26.9593 2.09218 23.256 2.11501C22.5093 2.11501 21.7625 2.24439 20.9472 2.49553C19.2785 4.02521 18.3336 6.58991 18.3336 9.75582C18.3336 14.9309 21.3434 18.1196 25.0467 18.0663C25.8163 18.0663 26.563 17.9902 27.386 17.7391C29.0547 16.2094 29.9996 13.6447 29.9996 10.456H29.992Z" fill="white"/>
<path d="M52.3635 12.3885C52.3635 17.0385 49.8261 19.8771 45.2771 19.8771C40.2556 19.8771 37.2458 17.6701 37.2458 12.4951V3.4768C37.2458 1.89385 36.8724 1.46767 34.6855 1.44484V0.691406C36.1257 0.843614 37.5201 0.91972 38.8841 0.91972C40.248 0.91972 41.6653 0.843614 43.1131 0.691406V1.44484C40.8271 1.46767 40.53 1.89385 40.53 3.45397V11.7949C40.53 16.3155 42.6406 18.2029 45.5286 18.2029C49.2318 18.2029 50.55 15.7143 50.55 12.4038V3.46158C50.55 1.90145 49.7804 1.47527 47.7688 1.45244V0.699012C49.2089 0.85122 50.3824 0.927326 51.472 0.927326C52.5617 0.927326 53.6818 0.85122 55.1295 0.699012V1.45244C53.1941 1.47527 52.3712 1.90145 52.3712 3.48441V12.4038L52.3635 12.3885Z" fill="white"/>
<path d="M61.576 11.1568V16.7352C61.576 18.2953 62.0255 18.7443 63.74 18.7672V19.5206C62.2999 19.3912 61.4312 19.3456 60.0825 19.3456C58.7338 19.3456 57.3698 19.3988 55.9297 19.5206V18.7672C57.8423 18.7443 58.3147 18.2877 58.3147 16.7048V3.47032C58.3147 1.88737 57.9185 1.46119 56.0059 1.43836V0.68494C57.446 0.837147 58.589 0.989345 59.9301 0.913241L64.182 0.662109C67.1918 0.859979 69.6987 2.11568 69.6987 5.20549C69.6987 7.99088 68.0833 9.57384 65.8964 10.4034L69.2796 16.0046C70.1026 17.3364 71.2151 18.7443 72.8838 18.7672V19.5206C71.718 19.3912 70.2016 19.3456 69.1272 19.3456C68.0528 19.3456 67.0623 19.3988 65.6221 19.5206V18.7672C66.6127 18.7672 66.7422 18.4932 66.7422 18.1355C66.7422 17.6561 66.3917 17.1081 66.1174 16.6515L62.7875 11.0731C62.3913 11.0959 61.9646 11.1492 61.5684 11.1492L61.576 11.1568ZM61.576 2.06241V9.90109C64.9058 9.72606 66.1784 8.39424 66.1784 5.2816C66.1784 3.47033 65.5078 2.38965 64.3648 1.71233L61.5836 2.06241H61.576Z" fill="white"/>
<path d="M74.2559 9.12402H82.8053V11.6887H74.2559V9.12402Z" fill="white"/>
<path d="M101.169 13.6453L101.893 14.0258C100.902 15.4337 100.43 17.5418 100.224 19.2998C99.5994 18.8507 99.1269 18.6757 98.4564 18.6757C96.8181 18.6757 95.4466 19.7031 93.534 19.7031C89.2593 19.7031 85.1064 16.8188 85.1064 10.7609C85.1064 5.5326 88.1163 2.97553 90.4784 1.99379L91.8729 1.41539C92.8711 0.989213 93.8616 0.563036 94.9284 0.563036C96.6962 0.563036 98.1135 0.943547 98.906 1.31646C99.3022 1.21752 99.6756 0.791347 99.7746 0.289062H100.521C100.369 0.943554 100.323 1.74265 100.323 2.37431C100.323 3.47781 100.521 4.76395 100.918 6.1947H100.148C98.8831 3.35604 96.6657 2.1536 93.7626 2.1536C92.9701 2.1536 91.9719 2.32864 90.9051 2.80809C89.465 4.29211 88.5658 6.45346 88.5658 9.86291C88.5658 14.6574 91.1033 18.0745 94.8827 18.0745C97.1458 18.0745 99.2565 17.0699 101.169 13.6529V13.6453Z" fill="white"/>
<path d="M117.422 10.4573H108.972V16.7358C108.972 18.2959 109.345 18.7449 111.608 18.7678V19.5212C110.191 19.3918 108.675 19.3462 107.311 19.3462C105.947 19.3462 104.476 19.3994 103.036 19.5212V18.7678C105.223 18.7449 105.695 18.2883 105.695 16.7054V3.47093C105.695 1.88798 105.299 1.4618 103.112 1.43897V0.685547C104.552 0.837754 105.97 0.913849 107.311 0.913849C108.652 0.913849 110.092 0.837754 111.54 0.685547V1.43897C109.254 1.4618 108.98 1.88798 108.98 3.4481V8.91996H117.43V3.47093C117.43 1.88798 117.034 1.4618 114.847 1.43897V0.685547C116.287 0.837754 117.681 0.913849 119.045 0.913849C120.409 0.913849 121.827 0.837754 123.274 0.685547V1.43897C120.988 1.4618 120.691 1.88798 120.691 3.4481V16.7358C120.691 18.2959 121.088 18.7449 123.351 18.7678V19.5212C121.933 19.3918 120.394 19.3462 119.053 19.3462C117.712 19.3462 116.218 19.3994 114.778 19.5212V18.7678C116.965 18.7449 117.438 18.2883 117.438 16.7054V10.4496L117.422 10.4573Z" fill="white"/>
<path d="M133.453 0.258789L140.54 16.7124C141.165 18.1736 142.331 18.7748 144.022 18.7748V19.5282C142.582 19.3989 141.066 19.3532 139.725 19.3532C138.383 19.3532 136.913 19.4065 135.496 19.5282V18.7748C136.913 18.752 137.385 18.5237 137.385 17.9986C137.385 17.618 137.21 17.268 137.035 16.7428L135.816 13.653H129.651L128.508 16.72C128.386 17.0701 128.31 17.3973 128.31 17.6485C128.31 18.4247 129.057 18.7824 130.924 18.7824V19.5358C129.506 19.4065 128.341 19.3608 127.243 19.3608C126.146 19.3608 125.056 19.4141 123.616 19.5358V18.7824C125.529 18.7596 126.276 18.204 126.87 16.72L133.453 0.266407V0.258789ZM130.169 12.2375H135.267L132.653 5.57844L130.169 12.2375Z" fill="white"/>
<path d="M146.948 3.47093C146.948 1.88798 146.551 1.4618 144.364 1.43897V0.685547C145.805 0.837754 147.222 0.913849 148.563 0.913849C149.904 0.913849 151.344 0.837754 152.792 0.685547V1.43897C150.506 1.4618 150.232 1.88798 150.232 3.4481V16.7358C150.232 18.2959 150.605 18.7449 152.868 18.7678V19.5212C151.451 19.3918 149.935 19.3462 148.571 19.3462C147.207 19.3462 145.736 19.3994 144.296 19.5212V18.7678C146.483 18.7449 146.955 18.2883 146.955 16.7054V3.47093H146.948Z" fill="white"/>
<path d="M158.576 5.48007V16.7358C158.576 18.2959 159.399 18.7449 161.411 18.7678V19.5212C159.971 19.3918 158.752 19.3462 157.654 19.3462C156.557 19.3462 155.391 19.3994 153.951 19.5212V18.7678C155.864 18.7449 156.763 18.2883 156.763 16.7054V3.47093C156.763 1.88798 156.214 1.4618 154.302 1.43897V0.685547C155.521 0.814923 156.839 0.913849 158.157 0.913849H158.927L169.64 13.4253V3.45572C169.64 1.89559 168.817 1.46941 166.829 1.44658V0.693153C168.246 0.84536 169.465 0.921466 170.555 0.921466C171.644 0.921466 172.841 0.84536 174.258 0.693153V1.44658C172.345 1.46941 171.446 1.89559 171.446 3.47855V19.7038H170.623L158.569 5.48769L158.576 5.48007Z" fill="white"/>
<path d="M179.158 4.20156C179.158 6.26397 180.499 6.76625 183.234 8.1209C186.915 9.93217 188.606 10.9367 188.606 14.2016C188.606 16.5151 187.166 17.7176 186.419 18.2199L185.376 18.8972C184.583 19.4223 183.463 19.7039 182.366 19.7039C180.301 19.7039 178.663 18.7754 178.038 18.471C177.542 18.5243 177.215 19.2016 177.017 20.0007H176.27C176.491 19.1712 176.59 18.2199 176.59 17.162C176.59 15.5562 176.316 14.1255 175.82 12.3675H176.59C178.228 16.9109 180.918 18.1209 182.876 18.1209C183.699 18.1209 184.469 18.0448 185.086 17.7709C185.612 17.1392 185.81 16.2868 185.81 15.4116C185.81 13.6765 185.086 12.9002 182.084 11.4695C178.655 9.78758 176.59 8.93522 176.59 5.46489C176.59 3.88193 177.512 2.3979 178.403 1.81952L179.348 1.2183C180.118 0.716018 181.162 0.56381 182.282 0.56381C184.019 0.56381 185.017 0.891057 185.711 1.2183C186.107 1.1422 186.503 0.586639 186.602 0.0615234H187.372C187.197 0.716015 187.151 1.56837 187.151 2.20003C187.151 3.33398 187.273 4.68863 187.669 6.14221H186.9C185.856 3.28071 183.89 2.07066 181.558 2.07066C180.933 2.07066 180.24 2.09349 179.546 2.34463C179.249 2.97629 179.15 3.40248 179.15 4.20156H179.158Z" fill="white"/>
</svg>
