<svg width="111" height="25" viewBox="0 0 111 25" fill="none" xmlns="http://www.w3.org/2000/svg">
<path d="M11.3493 24.42C9.1093 24.42 7.19596 23.9067 5.6093 22.88C4.04596 21.83 2.8443 20.395 2.0043 18.575C1.18763 16.755 0.779297 14.655 0.779297 12.275C0.779297 9.84833 1.22263 7.73667 2.1093 5.94C3.0193 4.12 4.29096 2.70833 5.9243 1.705C7.55763 0.701666 9.47096 0.2 11.6643 0.2C13.6243 0.2 15.386 0.654999 16.9493 1.565C18.536 2.475 19.7376 3.78166 20.5543 5.485L17.6493 6.535C17.136 5.485 16.3543 4.63333 15.3043 3.98C14.2776 3.30333 13.006 2.965 11.4893 2.965C10.1126 2.965 8.8643 3.315 7.7443 4.015C6.64763 4.715 5.77263 5.765 5.1193 7.165C4.46596 8.54167 4.1393 10.245 4.1393 12.275C4.1393 14.235 4.44263 15.915 5.0493 17.315C5.6793 18.715 6.54263 19.7883 7.6393 20.535C8.7593 21.2817 10.0426 21.655 11.4893 21.655C12.2593 21.655 13.0526 21.5617 13.8693 21.375C14.686 21.1883 15.4326 20.8733 16.1093 20.43C16.786 19.9633 17.3343 19.3333 17.7543 18.54C18.1743 17.7467 18.3843 16.7433 18.3843 15.53V14.76H11.5593V11.925H21.4993V24H19.6093L18.7343 21.06C17.9876 22.25 16.961 23.1133 15.6543 23.65C14.371 24.1633 12.936 24.42 11.3493 24.42ZM33.9229 24C32.8263 24 31.9746 23.895 31.3679 23.685C30.7846 23.4517 30.3763 23.02 30.1429 22.39C29.9329 21.76 29.8279 20.85 29.8279 19.66V0.654998H32.7679V19.17C32.7679 20.0567 32.8613 20.6517 33.0479 20.955C33.2346 21.2583 33.7363 21.41 34.5529 21.41H35.2179V24H33.9229ZM49.087 24.42C47.267 24.42 45.727 24.0233 44.467 23.23C43.207 22.4133 42.2386 21.3283 41.562 19.975C40.9086 18.5983 40.582 17.0583 40.582 15.355C40.582 13.5117 40.9553 11.925 41.702 10.595C42.4486 9.24167 43.452 8.20333 44.712 7.48C45.9953 6.73333 47.4303 6.36 49.017 6.36C50.3936 6.36 51.607 6.64 52.657 7.2C53.707 7.73667 54.5703 8.47167 55.247 9.405C55.947 10.315 56.4486 11.3533 56.752 12.52C57.0786 13.6867 57.1953 14.8883 57.102 16.125H43.732C43.7786 17.5717 44.0936 18.715 44.677 19.555C45.2836 20.395 45.9953 20.99 46.812 21.34C47.6286 21.6667 48.387 21.83 49.087 21.83C50.067 21.83 50.8836 21.6783 51.537 21.375C52.2136 21.0483 52.7503 20.6283 53.147 20.115L55.982 20.955C55.352 21.9583 54.4536 22.7867 53.287 23.44C52.1203 24.0933 50.7203 24.42 49.087 24.42ZM43.767 13.78H53.987C53.987 12.9633 53.777 12.1817 53.357 11.435C52.9603 10.6883 52.3886 10.0817 51.642 9.615C50.9186 9.125 50.0436 8.88 49.017 8.88C48.1536 8.88 47.337 9.04333 46.567 9.37C45.797 9.69667 45.1553 10.2217 44.642 10.945C44.152 11.6683 43.8603 12.6133 43.767 13.78ZM68.9341 24.42C67.8375 24.42 66.8341 24.2217 65.9241 23.825C65.0141 23.4283 64.2908 22.8567 63.7541 22.11C63.2175 21.3633 62.9491 20.465 62.9491 19.415C62.9491 18.0383 63.4275 16.9533 64.3841 16.16C65.3641 15.3667 66.7291 14.76 68.4791 14.34C70.2525 13.8967 72.3175 13.5467 74.6741 13.29C74.7208 11.82 74.4291 10.6883 73.7991 9.895C73.1691 9.10167 72.1541 8.705 70.7541 8.705C69.7041 8.705 68.8408 8.95 68.1641 9.44C67.5108 9.90667 67.0908 10.56 66.9041 11.4L64.0691 10.56C64.5358 9.23 65.3641 8.20333 66.5541 7.48C67.7675 6.73333 69.1558 6.36 70.7191 6.36C73.1225 6.36 74.8725 6.93167 75.9691 8.075C77.0891 9.195 77.6491 10.9683 77.6491 13.395V17.455C77.6491 18.9017 77.7075 20.15 77.8241 21.2C77.9408 22.25 78.0808 23.1833 78.2441 24H75.5491L74.8491 21.62C74.3358 22.4833 73.6008 23.1717 72.6441 23.685C71.6875 24.175 70.4508 24.42 68.9341 24.42ZM69.5641 22.075C70.4741 22.075 71.3375 21.9117 72.1541 21.585C72.9708 21.2583 73.6358 20.71 74.1491 19.94C74.6625 19.1467 74.9191 18.0733 74.9191 16.72V15.635C73.1458 15.8217 71.6058 16.055 70.2991 16.335C68.9925 16.5917 67.9775 16.965 67.2541 17.455C66.5541 17.9217 66.2041 18.5517 66.2041 19.345C66.2041 20.1617 66.4958 20.8267 67.0791 21.34C67.6858 21.83 68.5141 22.075 69.5641 22.075ZM85.992 24V6.64H88.162L88.932 9.265C89.422 8.44833 90.087 7.76 90.927 7.2C91.7903 6.64 92.8637 6.36 94.147 6.36C95.477 6.36 96.5503 6.62833 97.367 7.165C98.1837 7.70167 98.7787 8.44833 99.152 9.405C99.852 8.33167 100.692 7.56167 101.672 7.095C102.675 6.605 103.784 6.36 104.997 6.36C107.004 6.36 108.439 6.97833 109.302 8.215C110.165 9.42833 110.597 11.0267 110.597 13.01V24H107.657V13.885C107.657 12.9983 107.564 12.1817 107.377 11.435C107.214 10.665 106.864 10.0467 106.327 9.58C105.814 9.11333 105.02 8.88 103.947 8.88C102.687 8.88 101.672 9.37 100.902 10.35C100.155 11.3067 99.782 12.7183 99.782 14.585V24H96.842V13.885C96.842 12.9983 96.7487 12.1817 96.562 11.435C96.3987 10.665 96.0487 10.0467 95.512 9.58C94.9987 9.11333 94.2053 8.88 93.132 8.88C91.872 8.88 90.857 9.37 90.087 10.35C89.317 11.3067 88.932 12.7183 88.932 14.585V24H85.992Z" fill="#45C552"/>
</svg>
