<svg width="199" height="20" viewBox="0 0 199 20" fill="none" xmlns="http://www.w3.org/2000/svg">
<path d="M188.735 10.9699C188.536 10.9865 188.329 11.003 188.113 11.0196C187.914 11.0362 187.715 11.0445 187.516 11.0445V16.5669C187.516 16.9483 187.549 17.2717 187.615 17.537C187.682 17.7858 187.79 17.9931 187.939 18.1589C188.105 18.3082 188.329 18.416 188.61 18.4823C188.892 18.5486 189.249 18.5818 189.68 18.5818V19.3281C189.315 19.2949 188.984 19.27 188.685 19.2534C188.387 19.2203 188.096 19.2037 187.814 19.2037C187.532 19.1871 187.242 19.1788 186.944 19.1788C186.662 19.1622 186.355 19.1539 186.023 19.1539C185.327 19.1539 184.639 19.1705 183.959 19.2037C183.295 19.2203 182.599 19.2617 181.869 19.3281V18.5818C182.35 18.5818 182.74 18.5486 183.038 18.4823C183.353 18.416 183.602 18.3082 183.785 18.1589C183.967 17.9931 184.091 17.7858 184.158 17.537C184.224 17.2717 184.257 16.94 184.257 16.542V3.43255C184.257 3.03454 184.224 2.71116 184.158 2.4624C184.108 2.19707 183.992 1.98977 183.809 1.84052C183.644 1.69126 183.411 1.58347 183.113 1.51713C182.814 1.4508 182.425 1.41763 181.944 1.41763V0.671361C182.673 0.75428 183.337 0.820615 183.934 0.870365C184.547 0.920117 185.194 0.928408 185.874 0.89524L190.128 0.646484C190.874 0.696236 191.579 0.820615 192.242 1.01962C192.922 1.20204 193.511 1.47567 194.008 1.84052C194.523 2.18877 194.921 2.63653 195.202 3.1838C195.501 3.73106 195.65 4.38612 195.65 5.14897C195.65 5.84549 195.551 6.46738 195.352 7.01464C195.169 7.54532 194.904 8.02625 194.556 8.45743C194.224 8.87202 193.826 9.23687 193.362 9.55196C192.897 9.85046 192.392 10.0992 191.844 10.2982L195.227 15.8455C195.426 16.1772 195.65 16.5088 195.899 16.8405C196.148 17.1556 196.421 17.4458 196.72 17.7112C197.018 17.9599 197.342 18.1672 197.69 18.3331C198.038 18.4989 198.42 18.5818 198.834 18.5818V19.3281C198.254 19.2617 197.615 19.2203 196.919 19.2037C196.222 19.1705 195.609 19.1539 195.078 19.1539C194.531 19.1539 193.992 19.1705 193.461 19.2037C192.93 19.2203 192.3 19.2617 191.571 19.3281V18.5818C192.068 18.5818 192.375 18.5238 192.491 18.4077C192.624 18.2916 192.69 18.1423 192.69 17.9599C192.69 17.7277 192.615 17.4873 192.466 17.2385C192.333 16.9732 192.201 16.7244 192.068 16.4923L188.735 10.9699ZM187.516 2.03952V9.80071C189.174 9.71779 190.352 9.31978 191.048 8.60668C191.761 7.89358 192.118 6.76589 192.118 5.2236C192.118 4.32808 191.96 3.59839 191.645 3.03454C191.33 2.4707 190.882 2.02294 190.302 1.69126L187.516 2.03952Z" fill="#FCF5D7"/>
<path d="M172.357 8.9801H174.297C175.076 8.9801 175.649 8.81426 176.013 8.48259C176.378 8.15091 176.586 7.50415 176.635 6.54229H177.307C177.274 6.8408 177.241 7.10614 177.207 7.33831C177.191 7.5539 177.166 7.77778 177.133 8.00995C177.116 8.22554 177.1 8.45771 177.083 8.70647C177.083 8.95522 177.083 9.25373 177.083 9.60199C177.083 9.93366 177.083 10.2405 177.083 10.5224C177.1 10.8043 177.116 11.0779 177.133 11.3433C177.166 11.6086 177.191 11.874 177.207 12.1393C177.241 12.3881 177.274 12.6617 177.307 12.9602H176.635C176.586 11.9486 176.378 11.2438 176.013 10.8458C175.665 10.4478 175.101 10.2488 174.322 10.2488H172.357V17.8109H175.69C177.863 17.8109 179.231 16.3599 179.795 13.4577H180.516C180.317 14.2371 180.151 15.1078 180.018 16.0697C179.902 17.0149 179.861 17.8856 179.894 18.6816C179.894 19.1791 179.935 19.6186 180.018 20H179.322C179.256 19.7678 179.048 19.5605 178.7 19.3781C178.368 19.1957 177.904 19.1045 177.307 19.1045H170.79C170.11 19.1045 169.438 19.1294 168.775 19.1791C168.128 19.2123 167.44 19.262 166.71 19.3284V18.5821C167.572 18.5655 168.186 18.4163 168.551 18.1343C168.916 17.8524 169.098 17.3217 169.098 16.5423V3.43284C169.098 2.6534 168.924 2.13101 168.576 1.86567C168.244 1.58375 167.647 1.43449 166.785 1.41791V0.671642C167.514 0.754561 168.178 0.812604 168.775 0.845771C169.388 0.878938 170.035 0.895521 170.715 0.895521H176.785C177.431 0.895521 177.896 0.820895 178.178 0.671642C178.476 0.505804 178.667 0.281923 178.75 0H179.421C179.372 0.281923 179.322 0.58043 179.272 0.895521C179.239 1.19403 179.222 1.51741 179.222 1.86567C179.206 2.42952 179.231 3.02653 179.297 3.65672C179.363 4.27032 179.479 4.89221 179.645 5.52239H178.949C178.783 4.80929 178.584 4.23715 178.352 3.80597C178.12 3.35821 177.838 3.01824 177.506 2.78607C177.191 2.5539 176.818 2.39635 176.387 2.31343C175.955 2.23051 175.466 2.18905 174.919 2.18905H172.357V8.9801Z" fill="#FCF5D7"/>
<path d="M149.987 3.43307C149.987 3.03506 149.954 2.71167 149.887 2.46292C149.821 2.19758 149.697 1.99028 149.514 1.84103C149.332 1.69178 149.066 1.58398 148.718 1.51765C148.387 1.45131 147.947 1.41814 147.4 1.41814V0.671875C148.843 0.821128 150.244 0.895754 151.604 0.895754C152.98 0.895754 154.39 0.821128 155.833 0.671875V1.41814C155.252 1.41814 154.796 1.45131 154.464 1.51765C154.133 1.58398 153.876 1.69178 153.693 1.84103C153.511 1.99028 153.395 2.19758 153.345 2.46292C153.295 2.71167 153.27 3.02677 153.27 3.40819V9.37834L160.211 3.35844C160.443 3.15944 160.609 2.97701 160.708 2.81118C160.808 2.64534 160.858 2.46292 160.858 2.26391C160.858 1.99857 160.675 1.79128 160.31 1.64202C159.945 1.49277 159.473 1.41814 158.892 1.41814V0.671875C159.174 0.705042 159.481 0.738209 159.813 0.771376C160.144 0.804544 160.476 0.82942 160.808 0.846004C161.139 0.862587 161.455 0.879171 161.753 0.895754C162.052 0.895754 162.309 0.895754 162.524 0.895754C162.955 0.895754 163.411 0.887463 163.892 0.870879C164.39 0.837712 164.937 0.771377 165.534 0.671875V1.41814C165.086 1.48448 164.713 1.57569 164.415 1.69177C164.133 1.79128 163.851 1.94053 163.569 2.13953C163.304 2.32196 163.013 2.55413 162.698 2.83605C162.4 3.10139 162.027 3.44136 161.579 3.85595L156.156 8.7067L161.927 15.846C162.176 16.1445 162.45 16.4596 162.748 16.7913C163.063 17.1064 163.395 17.3966 163.743 17.6619C164.091 17.9273 164.456 18.1511 164.838 18.3336C165.236 18.4994 165.65 18.5823 166.081 18.5823V19.3286C165.501 19.2623 164.862 19.2208 164.166 19.2042C163.469 19.171 162.856 19.1545 162.325 19.1545C161.778 19.1545 161.123 19.171 160.36 19.2042C159.597 19.2208 158.859 19.2623 158.146 19.3286V18.5823C158.644 18.5823 158.967 18.5326 159.116 18.4331C159.282 18.317 159.365 18.1677 159.365 17.9853C159.365 17.8195 159.257 17.6039 159.042 17.3385C158.843 17.0732 158.652 16.8327 158.469 16.6171L153.27 10.2241V16.5674C153.27 16.9488 153.304 17.2722 153.37 17.5375C153.436 17.7863 153.561 17.9936 153.743 18.1594C153.926 18.3087 154.191 18.4165 154.539 18.4828C154.887 18.5492 155.343 18.5823 155.907 18.5823V19.3286C155.194 19.2623 154.473 19.2208 153.743 19.2042C153.013 19.171 152.3 19.1545 151.604 19.1545C150.924 19.1545 150.219 19.171 149.489 19.2042C148.776 19.2208 148.055 19.2623 147.325 19.3286V18.5823C147.872 18.5823 148.32 18.5492 148.668 18.4828C149.017 18.4165 149.282 18.3087 149.465 18.1594C149.664 17.9936 149.796 17.7863 149.863 17.5375C149.945 17.2722 149.987 16.9405 149.987 16.5425V3.43307Z" fill="#FCF5D7"/>
<path d="M130.525 5.42312V16.5674C130.525 17.3468 130.741 17.8775 131.172 18.1594C131.62 18.4248 132.35 18.5657 133.361 18.5823V19.3286C132.631 19.2623 131.96 19.2208 131.346 19.2042C130.733 19.171 130.152 19.1545 129.605 19.1545C129.074 19.1545 128.502 19.171 127.888 19.2042C127.291 19.2208 126.628 19.2623 125.898 19.3286V18.5823C126.86 18.5657 127.565 18.4248 128.013 18.1594C128.477 17.8775 128.709 17.3385 128.709 16.5425V3.43307C128.709 3.03506 128.668 2.71167 128.585 2.46292C128.519 2.19758 128.386 1.99028 128.187 1.84103C128.005 1.69178 127.756 1.58398 127.441 1.51765C127.126 1.45131 126.728 1.41814 126.247 1.41814V0.671875C126.86 0.738209 127.49 0.796252 128.137 0.846004C128.784 0.879171 129.439 0.895754 130.102 0.895754H130.874L141.595 13.2838V3.40819C141.595 2.62876 141.371 2.10637 140.923 1.84103C140.492 1.57569 139.779 1.43473 138.784 1.41814V0.671875C140.194 0.821128 141.437 0.895754 142.515 0.895754C143.063 0.895754 143.635 0.879171 144.232 0.846004C144.845 0.812837 145.509 0.754794 146.222 0.671875V1.41814C145.26 1.43473 144.547 1.58398 144.083 1.8659C143.635 2.13124 143.411 2.65363 143.411 3.43307V19.5027H142.59L130.525 5.42312Z" fill="#FCF5D7"/>
<path d="M118.892 3.43307C118.892 3.03506 118.859 2.71167 118.793 2.46292C118.726 2.19758 118.602 1.99028 118.42 1.84103C118.237 1.69178 117.972 1.58398 117.623 1.51765C117.292 1.45131 116.852 1.41814 116.305 1.41814V0.671875C117.748 0.821128 119.149 0.895754 120.509 0.895754C121.886 0.895754 123.295 0.821128 124.738 0.671875V1.41814C124.157 1.41814 123.701 1.45131 123.37 1.51765C123.038 1.58398 122.781 1.69178 122.599 1.84103C122.416 1.99028 122.3 2.19758 122.25 2.46292C122.201 2.71167 122.176 3.02677 122.176 3.40819V16.5674C122.176 16.9488 122.209 17.2722 122.275 17.5375C122.342 17.7863 122.466 17.9936 122.648 18.1594C122.831 18.3087 123.096 18.4165 123.444 18.4828C123.793 18.5492 124.249 18.5823 124.813 18.5823V19.3286C124.099 19.2623 123.378 19.2208 122.648 19.2042C121.919 19.171 121.206 19.1545 120.509 19.1545C119.829 19.1545 119.124 19.171 118.395 19.2042C117.682 19.2208 116.96 19.2623 116.23 19.3286V18.5823C116.778 18.5823 117.225 18.5492 117.574 18.4828C117.922 18.4165 118.187 18.3087 118.37 18.1594C118.569 17.9936 118.701 17.7863 118.768 17.5375C118.851 17.2722 118.892 16.9405 118.892 16.5425V3.43307Z" fill="#FCF5D7"/>
<path d="M107.253 17.7117H110.487C111.698 17.7117 112.618 17.322 113.248 16.5425C113.895 15.7631 114.359 14.5691 114.641 12.9604H115.338C115.155 13.7399 114.99 14.5691 114.84 15.448C114.708 16.3103 114.65 17.1395 114.666 17.9356C114.666 18.1843 114.683 18.4994 114.716 18.8808C114.766 19.2457 114.832 19.6188 114.915 20.0002H114.218C114.152 19.7017 113.961 19.4778 113.646 19.3286C113.331 19.1793 112.834 19.1047 112.154 19.1047H105.686C105.006 19.1047 104.334 19.1296 103.671 19.1793C103.024 19.2125 102.336 19.2623 101.606 19.3286V18.5823C102.469 18.5657 103.082 18.4165 103.447 18.1346C103.812 17.8526 103.995 17.322 103.995 16.5425V3.43307C103.995 2.65363 103.82 2.13124 103.472 1.8659C103.14 1.58398 102.543 1.43473 101.681 1.41814V0.671875C102.411 0.754794 103.074 0.812837 103.671 0.846004C104.285 0.879171 104.923 0.895754 105.587 0.895754C106.963 0.895754 108.373 0.821128 109.815 0.671875V1.41814C109.252 1.41814 108.795 1.45131 108.447 1.51765C108.116 1.58398 107.859 1.69178 107.676 1.84103C107.51 1.99028 107.394 2.19758 107.328 2.46292C107.278 2.71167 107.253 3.02677 107.253 3.40819V17.7117Z" fill="#FCF5D7"/>
<path d="M91.1553 9.0293H99.7125V11.5666H91.1553V9.0293Z" fill="#FCF5D7"/>
<path d="M73.5351 5.42312V16.5674C73.5351 17.3468 73.7507 17.8775 74.1818 18.1594C74.6296 18.4248 75.3593 18.5657 76.3709 18.5823V19.3286C75.6412 19.2623 74.9696 19.2208 74.356 19.2042C73.7424 19.171 73.1619 19.1545 72.6147 19.1545C72.084 19.1545 71.5119 19.171 70.8983 19.2042C70.3012 19.2208 69.6379 19.2623 68.9082 19.3286V18.5823C69.8701 18.5657 70.5749 18.4248 71.0226 18.1594C71.487 17.8775 71.7192 17.3385 71.7192 16.5425V3.43307C71.7192 3.03506 71.6777 2.71167 71.5948 2.46292C71.5284 2.19758 71.3958 1.99028 71.1968 1.84103C71.0143 1.69178 70.7656 1.58398 70.4505 1.51765C70.1354 1.45131 69.7374 1.41814 69.2565 1.41814V0.671875C69.8701 0.738209 70.5002 0.796252 71.147 0.846004C71.7938 0.879171 72.4488 0.895754 73.1122 0.895754H73.8833L84.6047 13.2838V3.40819C84.6047 2.62876 84.3808 2.10637 83.9331 1.84103C83.5019 1.57569 82.7888 1.43473 81.7938 1.41814V0.671875C83.2034 0.821128 84.4472 0.895754 85.5251 0.895754C86.0724 0.895754 86.6445 0.879171 87.2415 0.846004C87.8551 0.812837 88.5185 0.754794 89.2316 0.671875V1.41814C88.2697 1.43473 87.5566 1.58398 87.0923 1.8659C86.6445 2.13124 86.4206 2.65363 86.4206 3.43307V19.5027H85.5997L73.5351 5.42312Z" fill="#FCF5D7"/>
<path d="M61.9019 3.43307C61.9019 3.03506 61.8688 2.71167 61.8024 2.46292C61.7361 2.19758 61.6117 1.99028 61.4293 1.84103C61.2469 1.69178 60.9815 1.58398 60.6333 1.51765C60.3016 1.45131 59.8621 1.41814 59.3149 1.41814V0.671875C60.7576 0.821128 62.159 0.895754 63.5188 0.895754C64.8953 0.895754 66.3049 0.821128 67.7477 0.671875V1.41814C67.1673 1.41814 66.7112 1.45131 66.3795 1.51765C66.0479 1.58398 65.7908 1.69178 65.6084 1.84103C65.426 1.99028 65.3099 2.19758 65.2601 2.46292C65.2104 2.71167 65.1855 3.02677 65.1855 3.40819V16.5674C65.1855 16.9488 65.2187 17.2722 65.285 17.5375C65.3513 17.7863 65.4757 17.9936 65.6581 18.1594C65.8406 18.3087 66.1059 18.4165 66.4542 18.4828C66.8024 18.5492 67.2585 18.5823 67.8223 18.5823V19.3286C67.1092 19.2623 66.3878 19.2208 65.6581 19.2042C64.9285 19.171 64.2154 19.1545 63.5188 19.1545C62.8389 19.1545 62.1341 19.171 61.4044 19.2042C60.6913 19.2208 59.9699 19.2623 59.2402 19.3286V18.5823C59.7875 18.5823 60.2353 18.5492 60.5835 18.4828C60.9318 18.4165 61.1971 18.3087 61.3795 18.1594C61.5785 17.9936 61.7112 17.7863 61.7775 17.5375C61.8605 17.2722 61.9019 16.9405 61.9019 16.5425V3.43307Z" fill="#FCF5D7"/>
<path d="M48.3986 0.249023L55.4881 16.5426C55.8032 17.2722 56.251 17.7946 56.8314 18.1097C57.4119 18.4248 58.125 18.5824 58.9707 18.5824V19.3286C58.2411 19.2623 57.5114 19.2208 56.7817 19.2042C56.052 19.1711 55.3472 19.1545 54.6673 19.1545C53.9707 19.1545 53.2659 19.1711 52.5528 19.2042C51.8563 19.2208 51.1515 19.2623 50.4384 19.3286V18.5824C51.1515 18.5658 51.6407 18.4994 51.9061 18.3834C52.188 18.2673 52.3289 18.0766 52.3289 17.8112C52.3289 17.6288 52.2875 17.4464 52.2046 17.2639C52.1382 17.0649 52.0636 16.8328 51.9807 16.5674L50.7618 13.5077H44.5926L43.4483 16.5426C43.3157 16.9074 43.2493 17.2142 43.2493 17.463C43.2493 17.8444 43.4483 18.1263 43.8464 18.3087C44.2444 18.4911 44.916 18.5824 45.8613 18.5824V19.3286C45.1482 19.2623 44.4931 19.2208 43.8961 19.2042C43.2991 19.1711 42.727 19.1545 42.1797 19.1545C41.649 19.1545 41.0935 19.1711 40.513 19.2042C39.9326 19.2208 39.2775 19.2623 38.5479 19.3286V18.5824C39.0288 18.5824 39.4351 18.5492 39.7668 18.4829C40.115 18.3999 40.4135 18.2756 40.6623 18.1097C40.911 17.9439 41.1266 17.7366 41.309 17.4878C41.4915 17.2225 41.6573 16.9074 41.8066 16.5426L48.3986 0.249023ZM45.115 12.1147H50.2145L47.6026 5.52266L45.115 12.1147Z" fill="#FCF5D7"/>
<path d="M32.3454 10.3485H23.8877V16.5674C23.8877 16.9488 23.9208 17.2722 23.9872 17.5375C24.0535 17.7863 24.1779 17.9936 24.3603 18.1594C24.5427 18.3087 24.8081 18.4165 25.1563 18.4828C25.5046 18.5492 25.9606 18.5823 26.5245 18.5823V19.3286C25.8114 19.2623 25.09 19.2208 24.3603 19.2042C23.6306 19.171 22.9175 19.1545 22.221 19.1545C21.5411 19.1545 20.8362 19.171 20.1066 19.2042C19.3935 19.2208 18.6721 19.2623 17.9424 19.3286V18.5823C18.4896 18.5823 18.9374 18.5492 19.2857 18.4828C19.6339 18.4165 19.8993 18.3087 20.0817 18.1594C20.2807 17.9936 20.4134 17.7863 20.4797 17.5375C20.5626 17.2722 20.6041 16.9405 20.6041 16.5425V3.43307C20.6041 3.03506 20.5709 2.71167 20.5046 2.46292C20.4382 2.19758 20.3139 1.99028 20.1314 1.84103C19.949 1.69178 19.6837 1.58398 19.3354 1.51765C19.0037 1.45131 18.5643 1.41814 18.017 1.41814V0.671875C19.4598 0.821128 20.8611 0.895754 22.221 0.895754C23.5974 0.895754 25.0071 0.821128 26.4498 0.671875V1.41814C25.8694 1.41814 25.4134 1.45131 25.0817 1.51765C24.75 1.58398 24.493 1.69178 24.3105 1.84103C24.1281 1.99028 24.012 2.19758 23.9623 2.46292C23.9125 2.71167 23.8877 3.02677 23.8877 3.40819V8.83108H32.3454V3.43307C32.3454 3.03506 32.3122 2.71167 32.2459 2.46292C32.1795 2.19758 32.0552 1.99028 31.8727 1.84103C31.6903 1.69178 31.425 1.58398 31.0767 1.51765C30.745 1.45131 30.3056 1.41814 29.7583 1.41814V0.671875C31.2011 0.821128 32.6024 0.895754 33.9623 0.895754C35.3387 0.895754 36.7484 0.821128 38.1911 0.671875V1.41814C37.6107 1.41814 37.1464 1.45131 36.7981 1.51765C36.4664 1.58398 36.2094 1.69178 36.027 1.84103C35.8611 1.99028 35.745 2.19758 35.6787 2.46292C35.629 2.71167 35.6041 3.02677 35.6041 3.40819V16.5674C35.6041 16.9488 35.6372 17.2722 35.7036 17.5375C35.7699 17.7863 35.8943 17.9936 36.0767 18.1594C36.2757 18.3087 36.5493 18.4165 36.8976 18.4828C37.2459 18.5492 37.7019 18.5823 38.2658 18.5823V19.3286C37.5527 19.2623 36.823 19.2208 36.0767 19.2042C35.347 19.171 34.6422 19.1545 33.9623 19.1545C33.2658 19.1545 32.561 19.171 31.8479 19.2042C31.1348 19.2208 30.4134 19.2623 29.6837 19.3286V18.5823C30.2309 18.5823 30.6787 18.5492 31.027 18.4828C31.3752 18.4165 31.6406 18.3087 31.823 18.1594C32.022 17.9936 32.1547 17.7863 32.221 17.5375C32.3039 17.2722 32.3454 16.9405 32.3454 16.5425V10.3485Z" fill="#FCF5D7"/>
<path d="M9.77612 17.8854C10.34 17.8854 10.8955 17.819 11.4428 17.6864C11.99 17.5371 12.5207 17.2967 13.0348 16.965C13.5655 16.6333 14.0796 16.1855 14.5771 15.6217C15.0912 15.0578 15.5887 14.353 16.0697 13.5073L16.791 13.8804C16.5423 14.2287 16.3267 14.6184 16.1443 15.0496C15.9619 15.4641 15.796 15.9036 15.6468 16.368C15.5141 16.8157 15.4063 17.2801 15.3234 17.761C15.2405 18.2253 15.1741 18.6731 15.1244 19.1043C14.8093 18.8721 14.5191 18.7146 14.2537 18.6316C13.9884 18.5321 13.6899 18.4824 13.3582 18.4824C12.9436 18.4824 12.5456 18.5404 12.1642 18.6565C11.7828 18.756 11.393 18.8721 10.995 19.0048C10.597 19.1209 10.1907 19.237 9.77612 19.353C9.36152 19.4525 8.91376 19.5023 8.43284 19.5023C7.35489 19.5023 6.31012 19.3282 5.29851 18.9799C4.2869 18.6151 3.39138 18.0678 2.61194 17.3381C1.8325 16.5918 1.20232 15.6632 0.721393 14.552C0.240464 13.4409 0 12.1391 0 10.6466C0 9.35304 0.165837 8.21705 0.497512 7.23861C0.845771 6.26017 1.27695 5.42269 1.79104 4.72617C2.32172 4.02966 2.90216 3.45752 3.53234 3.00976C4.16252 2.56199 4.77612 2.21374 5.37313 1.96498L6.76617 1.39284C7.26368 1.17725 7.76119 0.986539 8.25871 0.820701C8.7728 0.638279 9.29519 0.547069 9.82587 0.547069C10.7214 0.547069 11.5091 0.629988 12.1891 0.795826C12.869 0.94508 13.408 1.11092 13.806 1.29334C14.005 1.24359 14.1874 1.1275 14.3532 0.94508C14.5191 0.746074 14.6269 0.522193 14.6766 0.273438H15.4229C15.34 0.605112 15.2819 0.95337 15.2488 1.31821C15.2322 1.68306 15.2239 2.02302 15.2239 2.33811C15.2239 3.44923 15.4229 4.70959 15.8209 6.11921H15.0498C14.4196 4.70959 13.5572 3.68969 12.4627 3.05951C11.3847 2.42933 10.1161 2.11423 8.65672 2.11423C8.25871 2.11423 7.81094 2.16398 7.31343 2.26349C6.8325 2.36299 6.3267 2.52883 5.79602 2.761C5.06633 3.50727 4.4942 4.43596 4.0796 5.54707C3.66501 6.6416 3.45771 8.04292 3.45771 9.75105C3.45771 10.9451 3.60696 12.0396 3.90547 13.0346C4.22056 14.0297 4.65174 14.892 5.199 15.6217C5.74627 16.3348 6.40962 16.8904 7.18905 17.2884C7.96849 17.6864 8.83085 17.8854 9.77612 17.8854Z" fill="#FCF5D7"/>
</svg>
