<svg width="163" height="18" viewBox="0 0 163 18" fill="none" xmlns="http://www.w3.org/2000/svg">
<path d="M7.73372 17.288C6.21372 17.288 4.90972 16.936 3.82172 16.232C2.73372 15.512 1.90172 14.528 1.32572 13.28C0.749719 12.032 0.461719 10.592 0.461719 8.96C0.461719 7.296 0.765719 5.848 1.37372 4.616C1.99772 3.368 2.86972 2.4 3.98972 1.712C5.10972 1.024 6.42172 0.68 7.92572 0.68C9.26972 0.68 10.4777 0.992 11.5497 1.616C12.6377 2.24 13.4537 3.136 13.9977 4.304L12.0297 5.024C11.6777 4.304 11.1417 3.72 10.4217 3.272C9.71772 2.808 8.84572 2.576 7.80572 2.576C6.86172 2.576 6.00572 2.816 5.23772 3.296C4.48572 3.776 3.88572 4.496 3.43772 5.456C2.98972 6.4 2.76572 7.568 2.76572 8.96C2.76572 10.304 2.98172 11.456 3.41372 12.416C3.84572 13.376 4.44572 14.112 5.21372 14.624C5.99772 15.136 6.88572 15.392 7.87772 15.392C8.91772 15.392 9.78972 15.168 10.4937 14.72C11.2137 14.272 11.7577 13.68 12.1257 12.944L14.0937 13.664C13.5177 14.848 12.6697 15.752 11.5497 16.376C10.4297 16.984 9.15772 17.288 7.73372 17.288ZM16.8357 17V0.967999H19.0917V7.784H27.4917V0.967999H29.7477V17H27.4917V9.728H19.0917V17H16.8357ZM31.822 17L37.846 0.943999H40.366L46.366 17H43.966L42.742 13.496H35.446L34.222 17H31.822ZM36.142 11.552H42.046L39.094 3.224L36.142 11.552ZM48.1895 17V15.224H50.4455V2.744H48.1895V0.967999H54.9575V2.744H52.7015V15.224H54.9575V17H48.1895ZM58.367 17V0.967999H61.703L68.999 14.6V0.967999H71.255V17H67.943L60.623 3.296V17H58.367ZM81.6404 17V0.967999H83.8964V15.056H92.5124V17H81.6404ZM94.3379 17V15.224H96.5939V2.744H94.3379V0.967999H101.106V2.744H98.8499V15.224H101.106V17H94.3379ZM104.515 17V0.967999H107.851L115.147 14.6V0.967999H117.403V17H114.091L106.771 3.296V17H104.515ZM121.062 17V0.967999H123.318V9.032L130.542 0.967999H133.35L127.23 7.664L134.046 17H131.286L125.718 9.32L123.318 11.96V17H121.062ZM136.109 17V0.967999H146.981V2.912H138.365V7.784H144.725V9.728H138.365V15.056H146.981V17H136.109ZM149.726 17V0.967999H154.814C156.126 0.967999 157.278 1.088 158.27 1.328C159.278 1.552 160.062 2 160.622 2.672C161.198 3.328 161.486 4.296 161.486 5.576C161.486 6.296 161.374 6.968 161.15 7.592C160.926 8.216 160.494 8.744 159.854 9.176C159.23 9.608 158.294 9.912 157.046 10.088L162.014 17H159.254L154.382 10.256H151.982V17H149.726ZM151.982 8.36H154.982C155.766 8.36 156.47 8.304 157.094 8.192C157.734 8.08 158.238 7.832 158.606 7.448C158.99 7.048 159.182 6.44 159.182 5.624C159.182 4.792 158.99 4.184 158.606 3.8C158.238 3.416 157.734 3.168 157.094 3.056C156.47 2.928 155.766 2.864 154.982 2.864H151.982V8.36Z" fill="#45C552"/>
</svg>
