<svg width="31" height="31" viewBox="0 0 31 31" fill="none" xmlns="http://www.w3.org/2000/svg">
<path fill-rule="evenodd" clip-rule="evenodd" d="M15.2773 31C6.8399 31 0 24.1601 0 15.7227C0 7.28521 6.8399 0.445312 15.2773 0.445312C23.7148 0.445312 30.5547 7.28521 30.5547 15.7227C30.5547 19.0342 29.501 22.0997 27.7107 24.6021C27.5109 24.8815 27.4533 25.2406 27.5716 25.5631L28.7652 28.8186C29.0301 29.5408 28.4143 30.2791 27.6562 30.1482L22.6694 29.2873C22.6372 29.2817 22.6195 29.2466 22.6342 29.2174C22.6557 29.1745 22.6087 29.1293 22.5665 29.1523C20.4002 30.3306 17.9169 31 15.2773 31Z" fill="#45C552"/>
<path d="M14.9441 22.9136C13.6811 22.9136 12.6023 22.6279 11.7077 22.0565C10.8262 21.4721 10.1487 20.6734 9.67507 19.6605C9.21461 18.6475 8.98438 17.4787 8.98438 16.1541C8.98438 14.8035 9.23434 13.6282 9.73428 12.6283C10.2474 11.6153 10.9644 10.8296 11.8853 10.2712C12.8062 9.7128 13.885 9.43359 15.1217 9.43359C16.2268 9.43359 17.2201 9.68683 18.1016 10.1933C18.9962 10.6998 19.6738 11.427 20.1342 12.375L18.4963 12.9594C18.2068 12.375 17.7661 11.901 17.1741 11.5374C16.5952 11.1608 15.8782 10.9725 15.0231 10.9725C14.2468 10.9725 13.543 11.1673 12.9115 11.5569C12.2932 11.9465 11.7998 12.5309 11.4314 13.3101C11.063 14.0763 10.8789 15.0243 10.8789 16.1541C10.8789 17.245 11.0499 18.18 11.392 18.9592C11.7472 19.7384 12.2339 20.3358 12.8523 20.7513C13.4838 21.1669 14.2074 21.3747 15.0231 21.3747C15.4572 21.3747 15.9045 21.3228 16.365 21.2189C16.8255 21.115 17.2464 20.9397 17.628 20.6929C18.0095 20.4332 18.3187 20.0825 18.5555 19.641C18.7923 19.1995 18.9107 18.641 18.9107 17.9657V17.5372H15.0625V15.9593H20.6671V22.6798H19.6014L19.108 21.0435C18.687 21.7059 18.1082 22.1864 17.3714 22.485C16.6478 22.7708 15.8387 22.9136 14.9441 22.9136Z" fill="white"/>
</svg>
