<svg width="190" height="22" viewBox="0 0 190 22" fill="none" xmlns="http://www.w3.org/2000/svg">
<path d="M7.448 17.288C5.912 17.288 4.6 16.936 3.512 16.232C2.44 15.512 1.616 14.528 1.04 13.28C0.48 12.032 0.2 10.592 0.2 8.96C0.2 7.296 0.504 5.848 1.112 4.616C1.736 3.368 2.608 2.4 3.728 1.712C4.848 1.024 6.16 0.68 7.664 0.68C9.008 0.68 10.216 0.992 11.288 1.616C12.376 2.24 13.2 3.136 13.76 4.304L11.768 5.024C11.416 4.304 10.88 3.72 10.16 3.272C9.456 2.808 8.584 2.576 7.544 2.576C6.6 2.576 5.744 2.816 4.976 3.296C4.224 3.776 3.624 4.496 3.176 5.456C2.728 6.4 2.504 7.568 2.504 8.96C2.504 10.304 2.712 11.456 3.128 12.416C3.56 13.376 4.152 14.112 4.904 14.624C5.672 15.136 6.552 15.392 7.544 15.392C8.072 15.392 8.616 15.328 9.176 15.2C9.736 15.072 10.248 14.856 10.712 14.552C11.176 14.232 11.552 13.8 11.84 13.256C12.128 12.712 12.272 12.024 12.272 11.192V10.664H7.592V8.72H14.408V17H13.112L12.512 14.984C12 15.8 11.296 16.392 10.4 16.76C9.52 17.112 8.536 17.288 7.448 17.288ZM20.5271 17C19.7751 17 19.1911 16.928 18.7751 16.784C18.3751 16.624 18.0951 16.328 17.9351 15.896C17.7911 15.464 17.7191 14.84 17.7191 14.024V0.991999H19.7351V13.688C19.7351 14.296 19.7991 14.704 19.9271 14.912C20.0551 15.12 20.3991 15.224 20.9591 15.224H21.4151V17H20.5271ZM28.5253 17.288C27.2773 17.288 26.2213 17.016 25.3573 16.472C24.4933 15.912 23.8293 15.168 23.3652 14.24C22.9173 13.296 22.6933 12.24 22.6933 11.072C22.6933 9.808 22.9493 8.72 23.4613 7.808C23.9733 6.88 24.6613 6.168 25.5253 5.672C26.4053 5.16 27.3893 4.904 28.4773 4.904C29.4213 4.904 30.2533 5.096 30.9733 5.48C31.6933 5.848 32.2853 6.352 32.7493 6.992C33.2293 7.616 33.5733 8.328 33.7812 9.128C34.0052 9.928 34.0853 10.752 34.0213 11.6H24.8533C24.8853 12.592 25.1013 13.376 25.5013 13.952C25.9173 14.528 26.4053 14.936 26.9653 15.176C27.5253 15.4 28.0453 15.512 28.5253 15.512C29.1973 15.512 29.7573 15.408 30.2053 15.2C30.6693 14.976 31.0373 14.688 31.3093 14.336L33.2533 14.912C32.8213 15.6 32.2053 16.168 31.4053 16.616C30.6053 17.064 29.6453 17.288 28.5253 17.288ZM24.8773 9.992H31.8853C31.8853 9.432 31.7413 8.896 31.4533 8.384C31.1813 7.872 30.7893 7.456 30.2773 7.136C29.7813 6.8 29.1813 6.632 28.4773 6.632C27.8853 6.632 27.3253 6.744 26.7973 6.968C26.2693 7.192 25.8293 7.552 25.4773 8.048C25.1413 8.544 24.9413 9.192 24.8773 9.992ZM39.7348 17.288C38.9828 17.288 38.2948 17.152 37.6708 16.88C37.0468 16.608 36.5508 16.216 36.1828 15.704C35.8148 15.192 35.6308 14.576 35.6308 13.856C35.6308 12.912 35.9588 12.168 36.6148 11.624C37.2868 11.08 38.2228 10.664 39.4228 10.376C40.6388 10.072 42.0548 9.832 43.6708 9.656C43.7028 8.648 43.5028 7.872 43.0708 7.328C42.6388 6.784 41.9428 6.512 40.9828 6.512C40.2628 6.512 39.6708 6.68 39.2068 7.016C38.7588 7.336 38.4708 7.784 38.3428 8.36L36.3988 7.784C36.7188 6.872 37.2868 6.168 38.1028 5.672C38.9348 5.16 39.8868 4.904 40.9588 4.904C42.6068 4.904 43.8068 5.296 44.5588 6.08C45.3268 6.848 45.7108 8.064 45.7108 9.728V12.512C45.7108 13.504 45.7508 14.36 45.8308 15.08C45.9108 15.8 46.0068 16.44 46.1188 17H44.2708L43.7908 15.368C43.4388 15.96 42.9348 16.432 42.2788 16.784C41.6228 17.12 40.7748 17.288 39.7348 17.288ZM40.1668 15.68C40.7908 15.68 41.3828 15.568 41.9428 15.344C42.5028 15.12 42.9588 14.744 43.3108 14.216C43.6628 13.672 43.8388 12.936 43.8388 12.008V11.264C42.6228 11.392 41.5668 11.552 40.6708 11.744C39.7748 11.92 39.0788 12.176 38.5828 12.512C38.1028 12.832 37.8628 13.264 37.8628 13.808C37.8628 14.368 38.0628 14.824 38.4628 15.176C38.8788 15.512 39.4468 15.68 40.1668 15.68ZM49.0316 17V5.096H50.5196L51.0476 6.896C51.3836 6.336 51.8396 5.864 52.4156 5.48C53.0076 5.096 53.7436 4.904 54.6236 4.904C55.5356 4.904 56.2716 5.088 56.8316 5.456C57.3916 5.824 57.7996 6.336 58.0556 6.992C58.5356 6.256 59.1116 5.728 59.7836 5.408C60.4716 5.072 61.2316 4.904 62.0636 4.904C63.4396 4.904 64.4236 5.328 65.0156 6.176C65.6076 7.008 65.9036 8.104 65.9036 9.464V17H63.8876V10.064C63.8876 9.456 63.8236 8.896 63.6956 8.384C63.5836 7.856 63.3436 7.432 62.9756 7.112C62.6236 6.792 62.0796 6.632 61.3436 6.632C60.4796 6.632 59.7836 6.968 59.2556 7.64C58.7436 8.296 58.4876 9.264 58.4876 10.544V17H56.4716V10.064C56.4716 9.456 56.4076 8.896 56.2796 8.384C56.1676 7.856 55.9276 7.432 55.5596 7.112C55.2076 6.792 54.6636 6.632 53.9276 6.632C53.0636 6.632 52.3676 6.968 51.8396 7.64C51.3116 8.296 51.0476 9.264 51.0476 10.544V17H49.0316ZM76.0818 17V0.967999H79.8258L84.0978 14.072L88.3698 0.967999H92.1138V17H89.8578V3.32L85.2258 17H82.9938L78.3378 3.32V17H76.0818ZM100.689 17.288C99.4413 17.288 98.3853 17.016 97.5213 16.472C96.6573 15.912 95.9933 15.168 95.5293 14.24C95.0813 13.296 94.8573 12.24 94.8573 11.072C94.8573 9.808 95.1133 8.72 95.6253 7.808C96.1373 6.88 96.8253 6.168 97.6893 5.672C98.5693 5.16 99.5533 4.904 100.641 4.904C101.585 4.904 102.417 5.096 103.137 5.48C103.857 5.848 104.449 6.352 104.913 6.992C105.393 7.616 105.737 8.328 105.945 9.128C106.169 9.928 106.249 10.752 106.185 11.6H97.0173C97.0493 12.592 97.2653 13.376 97.6653 13.952C98.0813 14.528 98.5693 14.936 99.1293 15.176C99.6893 15.4 100.209 15.512 100.689 15.512C101.361 15.512 101.921 15.408 102.369 15.2C102.833 14.976 103.201 14.688 103.473 14.336L105.417 14.912C104.985 15.6 104.369 16.168 103.569 16.616C102.769 17.064 101.809 17.288 100.689 17.288ZM97.0413 9.992H104.049C104.049 9.432 103.905 8.896 103.617 8.384C103.345 7.872 102.953 7.456 102.441 7.136C101.945 6.8 101.345 6.632 100.641 6.632C100.049 6.632 99.4893 6.744 98.9613 6.968C98.4333 7.192 97.9933 7.552 97.6413 8.048C97.3053 8.544 97.1053 9.192 97.0413 9.992ZM112.619 17.288C111.931 17.288 111.251 17.184 110.579 16.976C109.923 16.752 109.331 16.424 108.803 15.992C108.291 15.544 107.899 14.984 107.627 14.312L109.571 13.592C109.747 14.296 110.131 14.808 110.723 15.128C111.331 15.432 111.963 15.584 112.619 15.584C113.099 15.584 113.547 15.512 113.963 15.368C114.395 15.224 114.747 15.016 115.019 14.744C115.291 14.472 115.427 14.16 115.427 13.808C115.427 13.152 115.163 12.688 114.635 12.416C114.123 12.144 113.507 11.936 112.787 11.792L111.131 11.456C110.555 11.328 110.019 11.152 109.523 10.928C109.027 10.688 108.627 10.352 108.323 9.92C108.019 9.488 107.867 8.912 107.867 8.192C107.867 7.472 108.091 6.872 108.539 6.392C108.987 5.896 109.555 5.52 110.243 5.264C110.947 5.008 111.683 4.88 112.451 4.88C113.395 4.88 114.283 5.08 115.115 5.48C115.963 5.864 116.563 6.472 116.915 7.304L115.019 8C114.811 7.52 114.443 7.168 113.915 6.944C113.403 6.704 112.867 6.584 112.307 6.584C111.699 6.584 111.147 6.72 110.651 6.992C110.155 7.264 109.907 7.656 109.907 8.168C109.907 8.68 110.115 9.056 110.531 9.296C110.963 9.52 111.491 9.696 112.115 9.824L113.675 10.136C114.315 10.264 114.923 10.448 115.499 10.688C116.075 10.928 116.547 11.288 116.915 11.768C117.283 12.232 117.467 12.888 117.467 13.736C117.467 14.488 117.235 15.128 116.771 15.656C116.307 16.184 115.707 16.592 114.971 16.88C114.235 17.152 113.451 17.288 112.619 17.288ZM123.916 17.288C123.228 17.288 122.548 17.184 121.876 16.976C121.22 16.752 120.628 16.424 120.1 15.992C119.588 15.544 119.196 14.984 118.924 14.312L120.868 13.592C121.044 14.296 121.428 14.808 122.02 15.128C122.628 15.432 123.26 15.584 123.916 15.584C124.396 15.584 124.844 15.512 125.26 15.368C125.692 15.224 126.044 15.016 126.316 14.744C126.588 14.472 126.724 14.16 126.724 13.808C126.724 13.152 126.46 12.688 125.932 12.416C125.42 12.144 124.804 11.936 124.084 11.792L122.428 11.456C121.852 11.328 121.316 11.152 120.82 10.928C120.324 10.688 119.924 10.352 119.62 9.92C119.316 9.488 119.164 8.912 119.164 8.192C119.164 7.472 119.388 6.872 119.836 6.392C120.284 5.896 120.852 5.52 121.54 5.264C122.244 5.008 122.98 4.88 123.748 4.88C124.692 4.88 125.58 5.08 126.412 5.48C127.26 5.864 127.86 6.472 128.212 7.304L126.316 8C126.108 7.52 125.74 7.168 125.212 6.944C124.7 6.704 124.164 6.584 123.604 6.584C122.996 6.584 122.444 6.72 121.948 6.992C121.452 7.264 121.204 7.656 121.204 8.168C121.204 8.68 121.412 9.056 121.828 9.296C122.26 9.52 122.788 9.696 123.412 9.824L124.972 10.136C125.612 10.264 126.22 10.448 126.796 10.688C127.372 10.928 127.844 11.288 128.212 11.768C128.58 12.232 128.764 12.888 128.764 13.736C128.764 14.488 128.532 15.128 128.068 15.656C127.604 16.184 127.004 16.592 126.268 16.88C125.532 17.152 124.748 17.288 123.916 17.288ZM136.221 17.288C134.973 17.288 133.917 17.016 133.053 16.472C132.189 15.912 131.525 15.168 131.061 14.24C130.613 13.296 130.389 12.24 130.389 11.072C130.389 9.808 130.645 8.72 131.157 7.808C131.669 6.88 132.357 6.168 133.221 5.672C134.101 5.16 135.085 4.904 136.173 4.904C137.117 4.904 137.949 5.096 138.669 5.48C139.389 5.848 139.981 6.352 140.445 6.992C140.925 7.616 141.269 8.328 141.477 9.128C141.701 9.928 141.781 10.752 141.717 11.6H132.549C132.581 12.592 132.797 13.376 133.197 13.952C133.613 14.528 134.101 14.936 134.661 15.176C135.221 15.4 135.741 15.512 136.221 15.512C136.893 15.512 137.453 15.408 137.901 15.2C138.365 14.976 138.733 14.688 139.005 14.336L140.949 14.912C140.517 15.6 139.901 16.168 139.101 16.616C138.301 17.064 137.341 17.288 136.221 17.288ZM132.573 9.992H139.581C139.581 9.432 139.437 8.896 139.149 8.384C138.877 7.872 138.485 7.456 137.973 7.136C137.477 6.8 136.877 6.632 136.173 6.632C135.581 6.632 135.021 6.744 134.493 6.968C133.965 7.192 133.525 7.552 133.173 8.048C132.837 8.544 132.637 9.192 132.573 9.992ZM144.094 17V5.096H145.582L146.11 6.896C146.446 6.336 146.918 5.864 147.526 5.48C148.134 5.096 148.942 4.904 149.95 4.904C151.39 4.904 152.406 5.328 152.998 6.176C153.59 7.008 153.886 8.104 153.886 9.464V17H151.87V10.064C151.87 9.456 151.814 8.896 151.702 8.384C151.59 7.856 151.342 7.432 150.958 7.112C150.59 6.792 150.022 6.632 149.254 6.632C148.278 6.632 147.51 6.968 146.95 7.64C146.39 8.296 146.11 9.264 146.11 10.544V17H144.094ZM161.764 21.608C161.124 21.608 160.484 21.512 159.844 21.32C159.22 21.144 158.66 20.848 158.164 20.432C157.684 20.016 157.34 19.48 157.132 18.824L159.148 18.272C159.372 18.896 159.74 19.312 160.252 19.52C160.764 19.728 161.268 19.832 161.764 19.832C162.996 19.832 163.828 19.536 164.26 18.944C164.708 18.352 164.932 17.48 164.932 16.328V14.744C164.564 15.368 164.076 15.864 163.468 16.232C162.86 16.6 162.084 16.784 161.14 16.784C160.26 16.784 159.436 16.56 158.668 16.112C157.9 15.648 157.276 14.976 156.796 14.096C156.332 13.2 156.1 12.12 156.1 10.856C156.1 9.576 156.332 8.496 156.796 7.616C157.276 6.736 157.9 6.064 158.668 5.6C159.436 5.136 160.26 4.904 161.14 4.904C162.084 4.904 162.86 5.096 163.468 5.48C164.076 5.848 164.564 6.344 164.932 6.968L165.484 5.096H166.948V15.872C166.948 17.76 166.564 19.184 165.796 20.144C165.044 21.12 163.7 21.608 161.764 21.608ZM161.644 15.104C162.252 15.104 162.804 14.96 163.3 14.672C163.812 14.384 164.22 13.928 164.524 13.304C164.844 12.68 165.004 11.864 165.004 10.856C165.004 9.848 164.844 9.032 164.524 8.408C164.22 7.784 163.812 7.336 163.3 7.064C162.804 6.776 162.252 6.632 161.644 6.632C160.668 6.632 159.86 7 159.22 7.736C158.596 8.456 158.284 9.496 158.284 10.856C158.284 12.216 158.596 13.264 159.22 14C159.86 14.736 160.668 15.104 161.644 15.104ZM175.361 17.288C174.113 17.288 173.057 17.016 172.193 16.472C171.329 15.912 170.665 15.168 170.201 14.24C169.753 13.296 169.529 12.24 169.529 11.072C169.529 9.808 169.785 8.72 170.297 7.808C170.809 6.88 171.497 6.168 172.361 5.672C173.241 5.16 174.225 4.904 175.313 4.904C176.257 4.904 177.089 5.096 177.809 5.48C178.529 5.848 179.121 6.352 179.585 6.992C180.065 7.616 180.409 8.328 180.617 9.128C180.841 9.928 180.921 10.752 180.857 11.6H171.689C171.721 12.592 171.937 13.376 172.337 13.952C172.753 14.528 173.241 14.936 173.801 15.176C174.361 15.4 174.881 15.512 175.361 15.512C176.033 15.512 176.593 15.408 177.041 15.2C177.505 14.976 177.873 14.688 178.145 14.336L180.089 14.912C179.657 15.6 179.041 16.168 178.241 16.616C177.441 17.064 176.481 17.288 175.361 17.288ZM171.713 9.992H178.721C178.721 9.432 178.577 8.896 178.289 8.384C178.017 7.872 177.625 7.456 177.113 7.136C176.617 6.8 176.017 6.632 175.313 6.632C174.721 6.632 174.161 6.744 173.633 6.968C173.105 7.192 172.665 7.552 172.313 8.048C171.977 8.544 171.777 9.192 171.713 9.992ZM183.235 17V5.096H184.699L185.347 7.304C185.763 6.584 186.323 6.008 187.027 5.576C187.747 5.128 188.603 4.904 189.595 4.904V6.992C189.483 6.992 189.363 6.992 189.235 6.992C189.123 6.992 189.011 7 188.899 7.016C187.539 7.128 186.587 7.6 186.043 8.432C185.515 9.264 185.251 10.416 185.251 11.888V17H183.235Z" fill="#45C552"/>
</svg>
