<svg width="31" height="12" viewBox="0 0 31 12" fill="none" xmlns="http://www.w3.org/2000/svg">
<rect width="31" height="12" rx="2" fill="#45C552"/>
<path d="M4.728 9.112C3.976 9.112 3.44 8.608 3.44 7.832C3.44 6.888 4.24 6.4 6.064 6.2C6.056 5.688 5.872 5.24 5.232 5.24C4.768 5.24 4.328 5.456 3.96 5.696L3.616 5.064C4.064 4.784 4.688 4.488 5.392 4.488C6.488 4.488 6.992 5.184 6.992 6.36V9H6.232L6.16 8.504H6.128C5.728 8.848 5.256 9.112 4.728 9.112ZM5.016 8.376C5.4 8.376 5.704 8.2 6.064 7.864V6.792C4.76 6.944 4.328 7.272 4.328 7.768C4.328 8.2 4.624 8.376 5.016 8.376ZM9.80956 9.112C8.70556 9.112 8.00156 8.264 8.00156 6.808C8.00156 5.376 8.90556 4.488 9.88156 4.488C10.3856 4.488 10.7136 4.68 11.0656 4.984L11.0256 4.256V2.632H11.9536V9H11.1936L11.1216 8.512H11.0976C10.7616 8.848 10.3056 9.112 9.80956 9.112ZM10.0336 8.344C10.3936 8.344 10.7136 8.176 11.0256 7.808V5.664C10.7056 5.368 10.3936 5.256 10.0656 5.256C9.44956 5.256 8.95356 5.848 8.95356 6.792C8.95356 7.792 9.34556 8.344 10.0336 8.344ZM13.3286 9V4.6H14.0806L14.1606 5.216H14.1846C14.5606 4.816 15.0006 4.488 15.5446 4.488C16.2006 4.488 16.5686 4.792 16.7526 5.296C17.1926 4.84 17.6406 4.488 18.1926 4.488C19.1126 4.488 19.5366 5.12 19.5366 6.232V9H18.6166V6.352C18.6166 5.584 18.3846 5.288 17.8886 5.288C17.5846 5.288 17.2646 5.48 16.8966 5.88V9H15.9766V6.352C15.9766 5.584 15.7446 5.288 15.2406 5.288C14.9446 5.288 14.6086 5.48 14.2566 5.88V9H13.3286ZM20.8755 9V4.6H21.8035V9H20.8755ZM21.3395 3.776C20.9955 3.776 20.7715 3.56 20.7715 3.224C20.7715 2.896 20.9955 2.68 21.3395 2.68C21.6755 2.68 21.9155 2.896 21.9155 3.224C21.9155 3.56 21.6755 3.776 21.3395 3.776ZM23.1802 9V4.6H23.9322L24.0122 5.216H24.0362C24.4362 4.816 24.8922 4.488 25.4922 4.488C26.4282 4.488 26.8442 5.12 26.8442 6.232V9H25.9162V6.352C25.9162 5.584 25.6922 5.288 25.1802 5.288C24.7722 5.288 24.4922 5.496 24.1082 5.88V9H23.1802Z" fill="white"/>
</svg>
