<svg width="27" height="26" viewBox="0 0 27 26" fill="none" xmlns="http://www.w3.org/2000/svg">
<mask id="path-1-inside-1_5200_1373" fill="white">
<path fill-rule="evenodd" clip-rule="evenodd" d="M1.13383 22.4987C1.19332 22.3499 1.17705 22.1822 1.09596 22.0441C0.399392 20.8575 0 19.4754 0 18C0 13.5817 3.58172 10 8 10C12.4183 10 16 13.5817 16 18C16 22.4183 12.4183 26 8 26C6.51388 26 5.12241 25.5948 3.93005 24.8888C3.82873 24.8288 3.71035 24.8033 3.59378 24.8199L0.856097 25.211C0.475328 25.2654 0.178298 24.8875 0.321148 24.5304L1.13383 22.4987Z"/>
</mask>
<path fill-rule="evenodd" clip-rule="evenodd" d="M1.13383 22.4987C1.19332 22.3499 1.17705 22.1822 1.09596 22.0441C0.399392 20.8575 0 19.4754 0 18C0 13.5817 3.58172 10 8 10C12.4183 10 16 13.5817 16 18C16 22.4183 12.4183 26 8 26C6.51388 26 5.12241 25.5948 3.93005 24.8888C3.82873 24.8288 3.71035 24.8033 3.59378 24.8199L0.856097 25.211C0.475328 25.2654 0.178298 24.8875 0.321148 24.5304L1.13383 22.4987Z" fill="#848484"/>
<path d="M3.93005 24.8888L3.42057 25.7493L3.93005 24.8888ZM3.59378 24.8199L3.45236 23.83L3.59378 24.8199ZM0.856097 25.211L0.997519 26.201L0.856097 25.211ZM1.09596 22.0441L1.95835 21.5379L1.09596 22.0441ZM1.13383 22.4987L0.20535 22.1273L1.13383 22.4987ZM1 18C1 19.2926 1.34943 20.5006 1.95835 21.5379L0.233568 22.5503C-0.550644 21.2144 -1 19.6582 -1 18H1ZM8 11C4.13401 11 1 14.134 1 18H-1C-1 13.0294 3.02944 9 8 9V11ZM15 18C15 14.134 11.866 11 8 11V9C12.9706 9 17 13.0294 17 18H15ZM8 25C11.866 25 15 21.866 15 18H17C17 22.9706 12.9706 27 8 27V25ZM4.43952 24.0283C5.48188 24.6455 6.69802 25 8 25V27C6.32975 27 4.76294 26.5441 3.42057 25.7493L4.43952 24.0283ZM0.714676 24.2211L3.45236 23.83L3.7352 25.8099L0.997519 26.201L0.714676 24.2211ZM2.0623 22.8701L1.24962 24.9017L-0.607328 24.159L0.20535 22.1273L2.0623 22.8701ZM3.42057 25.7493C3.50481 25.7992 3.61477 25.8271 3.7352 25.8099L3.45236 23.83C3.80592 23.7795 4.15264 23.8585 4.43952 24.0283L3.42057 25.7493ZM0.997519 26.201C-0.144785 26.3642 -1.03588 25.2303 -0.607328 24.159L1.24962 24.9017C1.39248 24.5446 1.09544 24.1667 0.714676 24.2211L0.997519 26.201ZM1.95835 21.5379C2.1871 21.9275 2.24294 22.4185 2.0623 22.8701L0.20535 22.1273C0.143694 22.2814 0.166995 22.4369 0.233568 22.5503L1.95835 21.5379Z" fill="#848484" mask="url(#path-1-inside-1_5200_1373)"/>
<mask id="path-3-inside-2_5200_1373" fill="white">
<path fill-rule="evenodd" clip-rule="evenodd" d="M25.3463 18.8667C25.2273 18.5693 25.2605 18.2342 25.4197 17.9562C26.4252 16.2011 26.9999 14.1676 26.9999 12C26.9999 5.37257 21.6274 0 15 0C8.37257 0 3 5.37257 3 12C3 18.6274 8.37257 23.9999 15 23.9999C17.1961 23.9999 19.2544 23.41 21.0251 22.38C21.2286 22.2616 21.4651 22.2102 21.6982 22.2435L25.2877 22.7563C26.0492 22.865 26.6433 22.1092 26.3576 21.3949L25.3463 18.8667Z"/>
</mask>
<path fill-rule="evenodd" clip-rule="evenodd" d="M25.3463 18.8667C25.2273 18.5693 25.2605 18.2342 25.4197 17.9562C26.4252 16.2011 26.9999 14.1676 26.9999 12C26.9999 5.37257 21.6274 0 15 0C8.37257 0 3 5.37257 3 12C3 18.6274 8.37257 23.9999 15 23.9999C17.1961 23.9999 19.2544 23.41 21.0251 22.38C21.2286 22.2616 21.4651 22.2102 21.6982 22.2435L25.2877 22.7563C26.0492 22.865 26.6433 22.1092 26.3576 21.3949L25.3463 18.8667Z" fill="#FBFBFB"/>
<path d="M21.0251 22.38L20.2708 21.0834L21.0251 22.38ZM21.6982 22.2435L21.9103 20.7585L21.6982 22.2435ZM25.2877 22.7563L25.0755 24.2412L25.2877 22.7563ZM26.3576 21.3949L24.9648 21.952L26.3576 21.3949ZM25.4197 17.9562L24.1182 17.2106L25.4197 17.9562ZM25.3463 18.8667L26.739 18.3097L25.3463 18.8667ZM25.4999 12C25.4999 13.8992 24.997 15.6764 24.1182 17.2106L26.7213 18.7018C27.8533 16.7258 28.4999 14.4361 28.4999 12H25.4999ZM15 1.5C20.7989 1.5 25.4999 6.20099 25.4999 12H28.4999C28.4999 4.54414 22.4558 -1.5 15 -1.5V1.5ZM4.5 12C4.5 6.20099 9.20099 1.5 15 1.5V-1.5C7.54414 -1.5 1.5 4.54414 1.5 12H4.5ZM15 22.4999C9.20099 22.4999 4.5 17.7989 4.5 12H1.5C1.5 19.4558 7.54414 25.4999 15 25.4999V22.4999ZM20.2708 21.0834C18.723 21.9838 16.924 22.4999 15 22.4999V25.4999C17.4681 25.4999 19.7857 24.8362 21.7793 23.6766L20.2708 21.0834ZM25.4998 21.2713L21.9103 20.7585L21.4861 23.7284L25.0755 24.2412L25.4998 21.2713ZM23.9536 19.4238L24.9648 21.952L27.7503 20.8378L26.739 18.3097L23.9536 19.4238ZM21.7793 23.6766C21.7119 23.7158 21.6103 23.7461 21.4861 23.7284L21.9103 20.7585C21.32 20.6742 20.7452 20.8074 20.2708 21.0834L21.7793 23.6766ZM25.0755 24.2412C26.9794 24.5132 28.4645 22.6235 27.7503 20.8378L24.9648 21.952C24.822 21.5949 25.119 21.2169 25.4998 21.2713L25.0755 24.2412ZM24.1182 17.2106C23.7486 17.8558 23.6519 18.6695 23.9536 19.4238L26.739 18.3097C26.8028 18.469 26.7724 18.6126 26.7213 18.7018L24.1182 17.2106Z" fill="#848484" mask="url(#path-3-inside-2_5200_1373)"/>
<path d="M10 8H20" stroke="#848484" stroke-width="1.5" stroke-linecap="round"/>
<path d="M10 11H20" stroke="#848484" stroke-width="1.5" stroke-linecap="round"/>
<path d="M10 14H16" stroke="#848484" stroke-width="1.5" stroke-linecap="round"/>
</svg>
