<svg width="30" height="30" viewBox="0 0 30 30" fill="none" xmlns="http://www.w3.org/2000/svg">
<path fill-rule="evenodd" clip-rule="evenodd" d="M17.6603 24.1636C17.0885 26.2975 14.8807 27.56 12.7291 26.9834C10.5775 26.4069 9.29671 24.2097 9.86848 22.0758L12.8802 10.836C13.244 9.47805 14.649 8.67467 16.0182 9.04155C17.3874 9.40843 18.2025 10.8067 17.8386 12.1646L15.6739 20.2432C15.57 20.6312 15.1686 20.8607 14.7774 20.7559C14.3862 20.6511 14.1533 20.2516 14.2572 19.8636L16.4219 11.785C16.5779 11.203 16.2286 10.6038 15.6417 10.4465C15.0549 10.2893 14.4528 10.6336 14.2969 11.2156L11.2852 22.4554C10.9213 23.8133 11.7363 25.2116 13.1056 25.5785C14.4748 25.9453 15.8797 25.142 16.2436 23.784L20.0082 9.73421C20.58 7.60034 19.2992 5.40313 17.1476 4.8266C14.996 4.25007 12.7882 5.51253 12.2164 7.6464L9.29883 18.535C9.19487 18.923 8.79346 19.1525 8.40225 19.0477C8.01104 18.9429 7.77818 18.5434 7.88214 18.1554L10.7997 7.2668C11.5794 4.35698 14.59 2.63544 17.5241 3.42162C20.4581 4.2078 22.2046 7.20399 21.4249 10.1138L17.6603 24.1636Z" fill="#555555"/>
</svg>
