<svg width="72" height="72" viewBox="0 0 72 72" fill="none" xmlns="http://www.w3.org/2000/svg">
<g filter="url(#filter0_d_5368_19889)">
<circle cx="36" cy="33" r="29" fill="white"/>
<path fill-rule="evenodd" clip-rule="evenodd" d="M22.177 38.4584C21.019 36.4081 20.3573 34.0401 20.3573 31.5104C20.3573 23.6946 26.6933 17.3586 34.5091 17.3586C42.3249 17.3586 48.6609 23.6946 48.6609 31.5104C48.6609 39.3262 42.3249 45.6622 34.5091 45.6622C31.9373 45.6622 29.5324 44.9783 27.4586 43.784C26.7186 43.3579 25.8188 43.1466 24.8889 43.2795L21.7037 43.7345L22.4266 41.9273C22.9019 40.739 22.7456 39.465 22.177 38.4584ZM20.1233 39.6183C20.371 40.0569 20.4237 40.5836 20.2367 41.0513L19.0087 44.1212C18.5595 45.2443 19.4936 46.4328 20.6911 46.2618L25.2224 45.6144C25.5889 45.5621 25.9607 45.6432 26.2815 45.828C28.7037 47.2229 31.5132 48.0208 34.5091 48.0208C43.6276 48.0208 51.0195 40.6289 51.0195 31.5104C51.0195 22.392 43.6276 15 34.5091 15C25.3907 15 17.9987 22.392 17.9987 31.5104C17.9987 34.4571 18.7706 37.2234 20.1233 39.6183Z" fill="#45C552"/>
<circle cx="46.069" cy="43.069" r="11.5573" fill="#45C552"/>
<path fill-rule="evenodd" clip-rule="evenodd" d="M47.3898 37.7857C47.3898 37.0562 46.7985 36.4648 46.069 36.4648C45.3395 36.4648 44.7482 37.0562 44.7482 37.7857L44.7482 41.7482H40.7857C40.0562 41.7482 39.4648 42.3395 39.4648 43.069C39.4648 43.7985 40.0562 44.3898 40.7857 44.3898H44.7482V48.3523C44.7482 49.0818 45.3395 49.6732 46.069 49.6732C46.7985 49.6732 47.3898 49.0818 47.3898 48.3523V44.3898H51.3523C52.0818 44.3898 52.6732 43.7985 52.6732 43.069C52.6732 42.3395 52.0818 41.7482 51.3523 41.7482H47.3898V37.7857Z" fill="white"/>
</g>
<defs>
<filter id="filter0_d_5368_19889" x="0.8" y="0.8" width="70.4" height="70.4" filterUnits="userSpaceOnUse" color-interpolation-filters="sRGB">
<feFlood flood-opacity="0" result="BackgroundImageFix"/>
<feColorMatrix in="SourceAlpha" type="matrix" values="0 0 0 0 0 0 0 0 0 0 0 0 0 0 0 0 0 0 127 0" result="hardAlpha"/>
<feOffset dy="3"/>
<feGaussianBlur stdDeviation="3.1"/>
<feComposite in2="hardAlpha" operator="out"/>
<feColorMatrix type="matrix" values="0 0 0 0 0 0 0 0 0 0 0 0 0 0 0 0 0 0 0.15 0"/>
<feBlend mode="normal" in2="BackgroundImageFix" result="effect1_dropShadow_5368_19889"/>
<feBlend mode="normal" in="SourceGraphic" in2="effect1_dropShadow_5368_19889" result="shape"/>
</filter>
</defs>
</svg>
