<svg width="30" height="30" viewBox="0 0 30 30" fill="none" xmlns="http://www.w3.org/2000/svg">
<path fill-rule="evenodd" clip-rule="evenodd" d="M15 30C23.2843 30 30 23.2843 30 15C30 6.71573 23.2843 0 15 0C6.71573 0 0 6.71573 0 15C0 23.2843 6.71573 30 15 30ZM15 29C22.732 29 29 22.732 29 15C29 7.26801 22.732 1 15 1C7.26801 1 1 7.26801 1 15C1 22.732 7.26801 29 15 29Z" fill="#E2E2E2"/>
<path d="M15.1332 24.0668C16.0169 24.0668 16.7332 23.3505 16.7332 22.4668H13.5332C13.5332 23.3505 14.2495 24.0668 15.1332 24.0668Z" fill="#7D7D7D"/>
<path fill-rule="evenodd" clip-rule="evenodd" d="M16.7008 8.2782C19.1798 8.96391 20.9998 11.2359 20.9998 13.9331V17.8449C20.9998 18.424 21.1713 18.9902 21.4925 19.4721L22.0967 20.3784C22.5397 21.0429 22.0633 21.9331 21.2646 21.9331H9.00168C8.20299 21.9331 7.72659 21.0429 8.16963 20.3784L8.77381 19.4721C9.09507 18.9902 9.2665 18.424 9.2665 17.8449V13.9331C9.2665 11.2359 11.0866 8.96386 13.5656 8.27818C13.7145 7.54877 14.3598 7 15.1332 7C15.9066 7 16.5519 7.54878 16.7008 8.2782Z" fill="#7D7D7D"/>
</svg>
