<svg width="27" height="24" viewBox="0 0 27 24" fill="none" xmlns="http://www.w3.org/2000/svg">
<circle cx="15" cy="6" r="5.5" fill="white" stroke="#BCBCBC"/>
<path d="M3.5117 23.5C3.77267 17.9332 8.36862 13.5 14 13.5H16C21.6314 13.5 26.2273 17.9332 26.4883 23.5H3.5117Z" fill="white" stroke="#BCBCBC"/>
<path fill-rule="evenodd" clip-rule="evenodd" d="M4.84 8C4.59699 8 4.4 8.19699 4.4 8.44V8.89753C4.4 9.09829 4.26325 9.27139 4.07333 9.33645C3.89859 9.39631 3.72881 9.46686 3.56478 9.54733C3.38449 9.63576 3.16534 9.61007 3.02334 9.46808L2.6995 9.14423C2.52767 8.9724 2.24907 8.9724 2.07724 9.14423L1.14386 10.0776C0.972031 10.2494 0.972031 10.528 1.14386 10.6999L1.46784 11.0238C1.60982 11.1658 1.63551 11.3849 1.54711 11.5652C1.46674 11.7291 1.39626 11.8987 1.33645 12.0733C1.27139 12.2633 1.09829 12.4 0.897527 12.4H0.44C0.196995 12.4 0 12.597 0 12.84V14.16C0 14.403 0.196995 14.6 0.44 14.6H0.897527C1.09829 14.6 1.27139 14.7367 1.33645 14.9267C1.39626 15.1013 1.46675 15.2709 1.54712 15.4348C1.63553 15.6151 1.60983 15.8342 1.46785 15.9762L1.14389 16.3002C0.972059 16.472 0.972059 16.7506 1.14389 16.9224L2.07727 17.8558C2.2491 18.0276 2.52769 18.0276 2.69952 17.8558L3.02338 17.5319C3.16537 17.3899 3.38452 17.3643 3.56481 17.4527C3.72883 17.5331 3.8986 17.6037 4.07332 17.6635C4.26325 17.7286 4.4 17.9017 4.4 18.1025V18.56C4.4 18.803 4.59699 19 4.84 19H6.16C6.40301 19 6.6 18.803 6.6 18.56V18.1025C6.6 17.9017 6.73675 17.7286 6.92668 17.6635C7.10125 17.6037 7.27088 17.5333 7.43478 17.4529C7.61506 17.3645 7.83418 17.3902 7.97616 17.5322L8.29978 17.8558C8.47161 18.0276 8.75021 18.0276 8.92204 17.8558L9.85542 16.9224C10.0272 16.7506 10.0272 16.472 9.85542 16.3002L9.53192 15.9767C9.38993 15.8347 9.36424 15.6155 9.45267 15.4352C9.53314 15.2712 9.60369 15.1014 9.66355 14.9267C9.72861 14.7367 9.90171 14.6 10.1025 14.6H10.56C10.803 14.6 11 14.403 11 14.16V12.84C11 12.597 10.803 12.4 10.56 12.4H10.1025C9.90171 12.4 9.72861 12.2633 9.66355 12.0733C9.60369 11.8986 9.53314 11.7288 9.45269 11.5648C9.36426 11.3845 9.38994 11.1654 9.53194 11.0234L9.85545 10.6999C10.0273 10.528 10.0273 10.2494 9.85544 10.0776L8.92206 9.14424C8.75023 8.97241 8.47164 8.97241 8.29981 9.14424L7.97619 9.46785C7.83421 9.60983 7.61509 9.63553 7.43481 9.54712C7.2709 9.46675 7.10127 9.39626 6.92667 9.33645C6.73675 9.27139 6.6 9.09829 6.6 8.89753V8.44C6.6 8.197 6.40301 8 6.16 8H4.84ZM5.5 15.7C6.71503 15.7 7.7 14.715 7.7 13.5C7.7 12.285 6.71503 11.3 5.5 11.3C4.28497 11.3 3.3 12.285 3.3 13.5C3.3 14.715 4.28497 15.7 5.5 15.7Z" fill="#BCBCBC"/>
</svg>
