<svg width="30" height="30" viewBox="0 0 30 30" fill="none" xmlns="http://www.w3.org/2000/svg">
<circle cx="15" cy="15" r="14.5" stroke="#916AFF"/>
<path d="M9 8L9 22C9 22.5523 9.44772 23 10 23L17.5858 23C17.851 23 18.1054 22.8946 18.2929 22.7071L20.7071 20.2929C20.8946 20.1054 21 19.851 21 19.5858L21 8C21 7.44772 20.5523 7 20 7L10 7C9.44772 7 9 7.44771 9 8Z" fill="#916AFF"/>
<path d="M11 10H19" stroke="white" stroke-width="0.5" stroke-linecap="round" stroke-linejoin="round"/>
<path d="M11 13H19" stroke="white" stroke-width="0.5" stroke-linecap="round" stroke-linejoin="round"/>
<path d="M11 16H19" stroke="white" stroke-width="0.5" stroke-linecap="round" stroke-linejoin="round"/>
<path d="M17 22V19H20" stroke="white" stroke-width="0.5" stroke-linecap="round" stroke-linejoin="round"/>
</svg>
