<svg width="31" height="20" viewBox="0 0 31 20" fill="none" xmlns="http://www.w3.org/2000/svg">
<path fill-rule="evenodd" clip-rule="evenodd" d="M19.8 0C19.3582 0 19 0.358172 19 0.8V1.63187C19 1.99689 18.7514 2.31161 18.406 2.42991C18.0883 2.53875 17.7797 2.66703 17.4814 2.81332C17.1536 2.97411 16.7552 2.92741 16.497 2.66924L15.9082 2.08042C15.5958 1.768 15.0892 1.768 14.7768 2.08042L13.0797 3.77748C12.7673 4.0899 12.7673 4.59643 13.0797 4.90885L13.6688 5.49789C13.9269 5.75604 13.9737 6.15444 13.8129 6.48223C13.6668 6.78022 13.5387 7.08863 13.4299 7.40604C13.3116 7.75137 12.9969 8 12.6319 8H11.8C11.3582 8 11 8.35817 11 8.8V11.2C11 11.6418 11.3582 12 11.8 12H12.6319C12.9969 12 13.3116 12.2486 13.4299 12.594C13.5387 12.9114 13.6668 13.2198 13.813 13.5178C13.9737 13.8456 13.927 14.244 13.6688 14.5022L13.0798 15.0912C12.7674 15.4036 12.7674 15.9101 13.0798 16.2226L14.7769 17.9196C15.0893 18.232 15.5958 18.232 15.9082 17.9196L16.4971 17.3308C16.7552 17.0726 17.1537 17.0259 17.4815 17.1867C17.7797 17.333 18.0884 17.4613 18.406 17.5701C18.7514 17.6884 19 18.0031 19 18.3681V19.2C19 19.6418 19.3582 20 19.8 20H22.2C22.6418 20 23 19.6418 23 19.2V18.3681C23 18.0031 23.2486 17.6884 23.594 17.5701C23.9114 17.4613 24.2198 17.3332 24.5178 17.1871C24.8456 17.0263 25.244 17.0731 25.5021 17.3312L26.0905 17.9196C26.4029 18.232 26.9095 18.232 27.2219 17.9196L28.9189 16.2226C29.2314 15.9101 29.2314 15.4036 28.9189 15.0912L28.3308 14.503C28.0726 14.2448 28.0259 13.8464 28.1867 13.5186C28.333 13.2203 28.4613 12.9117 28.5701 12.594C28.6884 12.2486 29.0031 12 29.3681 12H30.2C30.6418 12 31 11.6418 31 11.2V8.8C31 8.35817 30.6418 8 30.2 8H29.3681C29.0031 8 28.6884 7.75137 28.5701 7.40604C28.4613 7.08836 28.333 6.7797 28.1867 6.48147C28.0259 6.15368 28.0726 5.75522 28.3308 5.49705L28.919 4.90886C29.2314 4.59644 29.2314 4.08991 28.919 3.77749L27.2219 2.08043C26.9095 1.76801 26.403 1.76801 26.0906 2.08043L25.5022 2.66882C25.244 2.92697 24.8456 2.97369 24.5178 2.81295C24.2198 2.66681 23.9114 2.53866 23.594 2.42991C23.2486 2.31161 23 1.99689 23 1.63187V0.800001C23 0.358173 22.6418 0 22.2 0H19.8ZM21 14C23.2091 14 25 12.2091 25 10C25 7.79086 23.2091 6 21 6C18.7909 6 17 7.79086 17 10C17 12.2091 18.7909 14 21 14Z" fill="#848484"/>
<path d="M6 5L1 10L6 15" stroke="#848484" stroke-linecap="round" stroke-linejoin="round"/>
</svg>
