<svg width="31" height="20" viewBox="0 0 31 20" fill="none" xmlns="http://www.w3.org/2000/svg">
<path fill-rule="evenodd" clip-rule="evenodd" d="M8.8 0C8.35817 0 8 0.358172 8 0.8V1.63187C8 1.99689 7.75137 2.31161 7.40605 2.42991C7.08834 2.53875 6.77966 2.66703 6.48141 2.81332C6.15362 2.97411 5.75516 2.92741 5.49699 2.66924L4.90817 2.08042C4.59576 1.768 4.08922 1.768 3.7768 2.08042L2.07975 3.77748C1.76733 4.0899 1.76733 4.59643 2.07975 4.90885L2.66879 5.49789C2.92694 5.75604 2.97366 6.15444 2.81292 6.48223C2.66679 6.78022 2.53865 7.08863 2.42991 7.40604C2.31161 7.75137 1.99689 8 1.63187 8H0.800001C0.358173 8 0 8.35817 0 8.8V11.2C0 11.6418 0.358172 12 0.8 12H1.63187C1.99689 12 2.31161 12.2486 2.42991 12.594C2.53866 12.9114 2.66681 13.2198 2.81295 13.5178C2.97369 13.8456 2.92697 14.244 2.66882 14.5022L2.0798 15.0912C1.76738 15.4036 1.76738 15.9101 2.0798 16.2226L3.77686 17.9196C4.08928 18.232 4.59581 18.232 4.90823 17.9196L5.49705 17.3308C5.75522 17.0726 6.15368 17.0259 6.48147 17.1867C6.7797 17.333 7.08836 17.4613 7.40604 17.5701C7.75137 17.6884 8 18.0031 8 18.3681V19.2C8 19.6418 8.35817 20 8.8 20H11.2C11.6418 20 12 19.6418 12 19.2V18.3681C12 18.0031 12.2486 17.6884 12.594 17.5701C12.9114 17.4613 13.2198 17.3332 13.5178 17.1871C13.8456 17.0263 14.244 17.0731 14.5021 17.3312L15.0905 17.9196C15.4029 18.232 15.9095 18.232 16.2219 17.9196L17.9189 16.2226C18.2314 15.9101 18.2314 15.4036 17.9189 15.0912L17.3308 14.503C17.0726 14.2448 17.0259 13.8464 17.1867 13.5186C17.333 13.2203 17.4613 12.9117 17.5701 12.594C17.6884 12.2486 18.0031 12 18.3681 12H19.2C19.6418 12 20 11.6418 20 11.2V8.8C20 8.35817 19.6418 8 19.2 8H18.3681C18.0031 8 17.6884 7.75137 17.5701 7.40604C17.4613 7.08836 17.333 6.7797 17.1867 6.48147C17.0259 6.15368 17.0726 5.75522 17.3308 5.49705L17.919 4.90886C18.2314 4.59644 18.2314 4.08991 17.919 3.77749L16.2219 2.08043C15.9095 1.76801 15.403 1.76801 15.0906 2.08043L14.5022 2.66882C14.244 2.92697 13.8456 2.97369 13.5178 2.81295C13.2198 2.66681 12.9114 2.53866 12.594 2.42991C12.2486 2.31161 12 1.99689 12 1.63187V0.800001C12 0.358173 11.6418 0 11.2 0H8.8ZM10 14C12.2091 14 14 12.2091 14 10C14 7.79086 12.2091 6 10 6C7.79086 6 6 7.79086 6 10C6 12.2091 7.79086 14 10 14Z" fill="#848484"/>
<path d="M25 15L30 10L25 5" stroke="#848484" stroke-linecap="round" stroke-linejoin="round"/>
</svg>
